# MagicaVoxel @ Ephtracy

# group
o 

# material
mtllib esquinas de calle.mtl
usemtl palette

# normals
vn -1 0 0
vn 1 0 0
vn 0 0 1
vn 0 0 -1
vn 0 -1 0
vn 0 1 0

# texcoords
vt 0.466797 0.5
vt 0.474609 0.5
vt 0.916016 0.5
vt 0.978516 0.5
vt 0.986328 0.5
vt 0.990234 0.5

# verts
v -12.8 -0.1 12.8
v -12.8 -0.1 6.8
v -12.8 -0.1 -6.7
v -12.8 -0.1 -12.7
v -12.8 -4.47035e-08 6.8
v -12.8 -4.47035e-08 -6.7
v -12.8 0.1 12.8
v -12.8 0.1 7.8
v -12.8 0.1 6.8
v -12.8 0.1 -6.7
v -12.8 0.1 -7.7
v -12.8 0.1 -12.7
v -12.8 0.2 7.8
v -12.8 0.2 6.8
v -12.8 0.2 -6.7
v -12.8 0.2 -7.7
v -7.8 0.1 12.8
v -7.8 0.1 7.8
v -7.8 0.1 -7.7
v -7.8 0.1 -12.7
v -7.8 0.2 12.8
v -7.8 0.2 7.8
v -7.8 0.2 -7.7
v -7.8 0.2 -12.7
v 6.7 -4.47035e-08 12.8
v 6.7 -4.47035e-08 6.8
v 6.7 -4.47035e-08 -6.7
v 6.7 -4.47035e-08 -12.7
v 6.7 0.1 12.8
v 6.7 0.1 6.8
v 6.7 0.1 -6.7
v 6.7 0.1 -12.7
v 6.7 0.2 12.8
v 6.7 0.2 6.8
v 6.7 0.2 -6.7
v 6.7 0.2 -12.7
v -6.8 -4.47035e-08 12.8
v -6.8 -4.47035e-08 6.8
v -6.8 -4.47035e-08 -6.7
v -6.8 -4.47035e-08 -12.7
v -6.8 0.1 12.8
v -6.8 0.1 6.8
v -6.8 0.1 -6.7
v -6.8 0.1 -12.7
v -6.8 0.2 12.8
v -6.8 0.2 6.8
v -6.8 0.2 -6.7
v -6.8 0.2 -12.7
v 7.7 0.1 12.8
v 7.7 0.1 7.8
v 7.7 0.1 -7.7
v 7.7 0.1 -12.7
v 7.7 0.2 12.8
v 7.7 0.2 7.8
v 7.7 0.2 -7.7
v 7.7 0.2 -12.7
v 12.7 -0.1 12.8
v 12.7 -0.1 6.8
v 12.7 -0.1 -6.7
v 12.7 -0.1 -12.7
v 12.7 -4.47035e-08 6.8
v 12.7 -4.47035e-08 -6.7
v 12.7 0.1 12.8
v 12.7 0.1 7.8
v 12.7 0.1 6.8
v 12.7 0.1 -6.7
v 12.7 0.1 -7.7
v 12.7 0.1 -12.7
v 12.7 0.2 7.8
v 12.7 0.2 6.8
v 12.7 0.2 -6.7
v 12.7 0.2 -7.7
v -12.8 -0.1 12.8
v -12.8 0.1 12.8
v -7.8 0.1 12.8
v -7.8 0.2 12.8
v -6.8 -0.1 12.8
v -6.8 -4.47035e-08 12.8
v -6.8 0.1 12.8
v -6.8 0.2 12.8
v 6.7 -0.1 12.8
v 6.7 -4.47035e-08 12.8
v 6.7 0.1 12.8
v 6.7 0.2 12.8
v 7.7 0.1 12.8
v 7.7 0.2 12.8
v 12.7 -0.1 12.8
v 12.7 0.1 12.8
v -12.8 0.1 7.8
v -12.8 0.2 7.8
v -7.8 0.1 7.8
v -7.8 0.2 7.8
v 7.7 0.1 7.8
v 7.7 0.2 7.8
v 12.7 0.1 7.8
v 12.7 0.2 7.8
v -12.8 -4.47035e-08 -6.7
v -12.8 0.1 -6.7
v -12.8 0.2 -6.7
v -6.8 -4.47035e-08 -6.7
v -6.8 0.1 -6.7
v -6.8 0.2 -6.7
v 6.7 -4.47035e-08 -6.7
v 6.7 0.1 -6.7
v 6.7 0.2 -6.7
v 12.7 -4.47035e-08 -6.7
v 12.7 0.1 -6.7
v 12.7 0.2 -6.7
v -12.8 -4.47035e-08 6.8
v -12.8 0.1 6.8
v -12.8 0.2 6.8
v -6.8 -4.47035e-08 6.8
v -6.8 0.1 6.8
v -6.8 0.2 6.8
v 6.7 -4.47035e-08 6.8
v 6.7 0.1 6.8
v 6.7 0.2 6.8
v 12.7 -4.47035e-08 6.8
v 12.7 0.1 6.8
v 12.7 0.2 6.8
v -12.8 0.1 -7.7
v -12.8 0.2 -7.7
v -7.8 0.1 -7.7
v -7.8 0.2 -7.7
v 7.7 0.1 -7.7
v 7.7 0.2 -7.7
v 12.7 0.1 -7.7
v 12.7 0.2 -7.7
v -12.8 -0.1 -12.7
v -12.8 0.1 -12.7
v -7.8 0.1 -12.7
v -7.8 0.2 -12.7
v -6.8 -0.1 -12.7
v -6.8 -4.47035e-08 -12.7
v -6.8 0.1 -12.7
v -6.8 0.2 -12.7
v 6.7 -0.1 -12.7
v 6.7 -4.47035e-08 -12.7
v 6.7 0.1 -12.7
v 6.7 0.2 -12.7
v 7.7 0.1 -12.7
v 7.7 0.2 -12.7
v 12.7 -0.1 -12.7
v 12.7 0.1 -12.7
v -12.8 -0.1 12.8
v -6.8 -0.1 12.8
v 6.7 -0.1 12.8
v 12.7 -0.1 12.8
v -5.2 -0.1 12.6
v -3.7 -0.1 12.6
v -1.8 -0.1 12.6
v -0.3 -0.1 12.6
v 1.6 -0.1 12.6
v 3.1 -0.1 12.6
v 4.2 -0.1 12.6
v 5.7 -0.1 12.6
v -5.2 -0.1 7
v -3.7 -0.1 7
v -1.8 -0.1 7
v -0.3 -0.1 7
v 1.6 -0.1 7
v 3.1 -0.1 7
v 4.2 -0.1 7
v 5.7 -0.1 7
v -12.8 -0.1 6.8
v -6.8 -0.1 6.8
v 6.7 -0.1 6.8
v 12.7 -0.1 6.8
v -12.6 -0.1 5.1
v -6.8 -0.1 5.1
v 6.9 -0.1 5
v 12.5 -0.1 5
v -12.6 -0.1 3.6
v -6.8 -0.1 3.6
v 6.9 -0.1 3.5
v 12.5 -0.1 3.5
v -12.6 -0.1 2
v -6.8 -0.1 2
v 6.9 -0.1 1.7
v 12.5 -0.1 1.7
v -12.6 -0.1 0.5
v -6.8 -0.1 0.5
v 6.9 -0.1 0.200001
v 12.5 -0.1 0.200001
v -12.6 -0.1 -1
v -6.8 -0.1 -1
v 6.9 -0.1 -1.5
v 12.5 -0.1 -1.5
v -12.6 -0.1 -2.5
v -6.8 -0.1 -2.5
v 6.9 -0.1 -3
v 12.5 -0.1 -3
v -12.6 -0.1 -3.9
v -6.8 -0.1 -3.9
v 6.9 -0.1 -4.3
v 12.5 -0.1 -4.3
v -12.6 -0.1 -5.4
v -6.8 -0.1 -5.4
v 6.9 -0.1 -5.8
v 12.5 -0.1 -5.8
v -12.8 -0.1 -6.7
v -6.8 -0.1 -6.7
v 6.7 -0.1 -6.7
v 12.7 -0.1 -6.7
v -5.5 -0.1 -6.8
v -4 -0.1 -6.8
v -2.5 -0.1 -6.8
v -1 -0.1 -6.8
v 0.599999 -0.1 -6.8
v 2.1 -0.1 -6.8
v 3.6 -0.1 -6.8
v 5.1 -0.1 -6.8
v -5.5 -0.1 -12.5
v -4 -0.1 -12.5
v -2.5 -0.1 -12.5
v -1 -0.1 -12.5
v 0.599999 -0.1 -12.5
v 2.1 -0.1 -12.5
v 3.6 -0.1 -12.5
v 5.1 -0.1 -12.5
v -12.8 -0.1 -12.7
v -6.8 -0.1 -12.7
v 6.7 -0.1 -12.7
v 12.7 -0.1 -12.7
v -6.8 -4.47035e-08 12.8
v 6.7 -4.47035e-08 12.8
v -5.2 -4.47035e-08 12.6
v -3.7 -4.47035e-08 12.6
v -1.8 -4.47035e-08 12.6
v -0.3 -4.47035e-08 12.6
v 1.6 -4.47035e-08 12.6
v 3.1 -4.47035e-08 12.6
v 4.2 -4.47035e-08 12.6
v 5.7 -4.47035e-08 12.6
v -5.2 -4.47035e-08 7
v -3.7 -4.47035e-08 7
v -1.8 -4.47035e-08 7
v -0.3 -4.47035e-08 7
v 1.6 -4.47035e-08 7
v 3.1 -4.47035e-08 7
v 4.2 -4.47035e-08 7
v 5.7 -4.47035e-08 7
v -12.8 -4.47035e-08 6.8
v -6.8 -4.47035e-08 6.8
v 6.7 -4.47035e-08 6.8
v 12.7 -4.47035e-08 6.8
v -12.6 -4.47035e-08 5.1
v -6.8 -4.47035e-08 5.1
v 6.9 -4.47035e-08 5
v 12.5 -4.47035e-08 5
v -12.6 -4.47035e-08 3.6
v -6.8 -4.47035e-08 3.6
v 6.9 -4.47035e-08 3.5
v 12.5 -4.47035e-08 3.5
v -12.6 -4.47035e-08 2
v -6.8 -4.47035e-08 2
v 6.9 -4.47035e-08 1.7
v 12.5 -4.47035e-08 1.7
v -12.6 -4.47035e-08 0.5
v -6.8 -4.47035e-08 0.5
v 6.9 -4.47035e-08 0.200001
v 12.5 -4.47035e-08 0.200001
v -12.6 -4.47035e-08 -1
v -6.8 -4.47035e-08 -1
v 6.9 -4.47035e-08 -1.5
v 12.5 -4.47035e-08 -1.5
v -12.6 -4.47035e-08 -2.5
v -6.8 -4.47035e-08 -2.5
v 6.9 -4.47035e-08 -3
v 12.5 -4.47035e-08 -3
v -12.6 -4.47035e-08 -3.9
v -6.8 -4.47035e-08 -3.9
v 6.9 -4.47035e-08 -4.3
v 12.5 -4.47035e-08 -4.3
v -12.6 -4.47035e-08 -5.4
v -6.8 -4.47035e-08 -5.4
v 6.9 -4.47035e-08 -5.8
v 12.5 -4.47035e-08 -5.8
v -12.8 -4.47035e-08 -6.7
v -6.8 -4.47035e-08 -6.7
v 6.7 -4.47035e-08 -6.7
v 12.7 -4.47035e-08 -6.7
v -5.5 -4.47035e-08 -6.8
v -4 -4.47035e-08 -6.8
v -2.5 -4.47035e-08 -6.8
v -1 -4.47035e-08 -6.8
v 0.599999 -4.47035e-08 -6.8
v 2.1 -4.47035e-08 -6.8
v 3.6 -4.47035e-08 -6.8
v 5.1 -4.47035e-08 -6.8
v -5.5 -4.47035e-08 -12.5
v -4 -4.47035e-08 -12.5
v -2.5 -4.47035e-08 -12.5
v -1 -4.47035e-08 -12.5
v 0.599999 -4.47035e-08 -12.5
v 2.1 -4.47035e-08 -12.5
v 3.6 -4.47035e-08 -12.5
v 5.1 -4.47035e-08 -12.5
v -6.8 -4.47035e-08 -12.7
v 6.7 -4.47035e-08 -12.7
v -12.8 0.1 12.8
v -7.8 0.1 12.8
v 7.7 0.1 12.8
v 12.7 0.1 12.8
v 11.5 0.1 12.1
v 11.6 0.1 12.1
v 8.8 0.1 12
v 8.9 0.1 12
v -12.1 0.1 11.7
v -7.9 0.1 11.7
v -12.1 0.1 11.6
v -7.9 0.1 11.6
v 9.9 0.1 11.2
v 10 0.1 11.2
v -11.2 0.1 10.1
v -8.9 0.1 10.1
v -11.2 0.1 10
v -8.9 0.1 10
v 8.7 0.1 10
v 8.8 0.1 10
v 8.9 0.1 10
v -12 0.1 9
v -10 0.1 9
v -12 0.1 8.9
v -10 0.1 8.9
v -7.9 0.1 8.9
v 9.9 0.1 8.9
v 10 0.1 8.9
v -10 0.1 8.8
v -7.9 0.1 8.8
v 8.7 0.1 7.9
v 8.8 0.1 7.9
v 11.5 0.1 7.9
v 11.6 0.1 7.9
v -12.8 0.1 7.8
v -7.8 0.1 7.8
v 7.7 0.1 7.8
v 12.7 0.1 7.8
v -12.8 0.1 -7.7
v -7.8 0.1 -7.7
v 7.7 0.1 -7.7
v 12.7 0.1 -7.7
v -11.7 0.1 -7.8
v -11.6 0.1 -7.8
v -8.9 0.1 -7.8
v -8.8 0.1 -7.8
v 7.8 0.1 -8.7
v 9.9 0.1 -8.7
v -10.1 0.1 -8.8
v -10 0.1 -8.8
v 7.8 0.1 -8.8
v 9.9 0.1 -8.8
v 11.9 0.1 -8.8
v 9.9 0.1 -8.9
v 11.9 0.1 -8.9
v -9 0.1 -9.9
v -8.9 0.1 -9.9
v -8.8 0.1 -9.9
v 8.8 0.1 -9.9
v 11.1 0.1 -9.9
v 8.8 0.1 -10
v 11.1 0.1 -10
v -10.1 0.1 -11.1
v -10 0.1 -11.1
v 7.8 0.1 -11.5
v 12 0.1 -11.5
v 7.8 0.1 -11.6
v 12 0.1 -11.6
v -9 0.1 -11.9
v -8.9 0.1 -11.9
v -11.7 0.1 -12
v -11.6 0.1 -12
v -12.8 0.1 -12.7
v -7.8 0.1 -12.7
v 7.7 0.1 -12.7
v 12.7 0.1 -12.7
v -7.8 0.2 12.8
v -6.8 0.2 12.8
v 6.7 0.2 12.8
v 7.7 0.2 12.8
v -7.7 0.2 12.5
v -7.6 0.2 12.5
v 7.4 0.2 12.4
v 7.5 0.2 12.4
v -7.7 0.2 8.3
v -7.6 0.2 8.3
v -12.8 0.2 7.8
v -7.8 0.2 7.8
v 7.4 0.2 7.8
v 7.5 0.2 7.8
v 7.7 0.2 7.8
v 12.7 0.2 7.8
v 8.2 0.2 7.7
v 12.4 0.2 7.7
v -12.4 0.2 7.6
v -7.8 0.2 7.6
v 8.2 0.2 7.6
v 12.4 0.2 7.6
v -12.4 0.2 7.5
v -7.8 0.2 7.5
v -12.8 0.2 6.8
v -6.8 0.2 6.8
v 6.7 0.2 6.8
v 12.7 0.2 6.8
v -12.8 0.2 -6.7
v -6.8 0.2 -6.7
v 6.7 0.2 -6.7
v 12.7 0.2 -6.7
v 7.7 0.2 -7.4
v 12.3 0.2 -7.4
v -12.5 0.2 -7.5
v -8.3 0.2 -7.5
v 7.7 0.2 -7.5
v 12.3 0.2 -7.5
v -12.5 0.2 -7.6
v -8.3 0.2 -7.6
v -12.8 0.2 -7.7
v -7.8 0.2 -7.7
v -7.6 0.2 -7.7
v -7.5 0.2 -7.7
v 7.7 0.2 -7.7
v 12.7 0.2 -7.7
v 7.5 0.2 -8.2
v 7.6 0.2 -8.2
v -7.6 0.2 -12.3
v -7.5 0.2 -12.3
v 7.5 0.2 -12.4
v 7.6 0.2 -12.4
v -7.8 0.2 -12.7
v -6.8 0.2 -12.7
v 6.7 0.2 -12.7
v 7.7 0.2 -12.7

# faces
f 5/4/1 2/4/1 1/4/1
f 5/6/1 3/6/1 2/6/1
f 6/4/1 4/4/1 3/4/1
f 6/6/1 3/6/1 5/6/1
f 7/4/1 5/4/1 1/4/1
f 8/4/1 5/4/1 7/4/1
f 9/4/1 5/4/1 8/4/1
f 10/4/1 4/4/1 6/4/1
f 11/4/1 4/4/1 10/4/1
f 12/4/1 4/4/1 11/4/1
f 13/2/1 9/2/1 8/2/1
f 14/2/1 9/2/1 13/2/1
f 15/2/1 11/2/1 10/2/1
f 16/2/1 11/2/1 15/2/1
f 21/2/1 18/2/1 17/2/1
f 22/2/1 18/2/1 21/2/1
f 23/2/1 20/2/1 19/2/1
f 24/2/1 20/2/1 23/2/1
f 29/4/1 26/4/1 25/4/1
f 30/4/1 26/4/1 29/4/1
f 31/4/1 28/4/1 27/4/1
f 32/4/1 28/4/1 31/4/1
f 33/2/1 30/2/1 29/2/1
f 34/2/1 30/2/1 33/2/1
f 35/2/1 32/2/1 31/2/1
f 36/2/1 32/2/1 35/2/1
f 37/4/2 38/4/2 41/4/2
f 41/4/2 38/4/2 42/4/2
f 39/4/2 40/4/2 43/4/2
f 43/4/2 40/4/2 44/4/2
f 41/2/2 42/2/2 45/2/2
f 45/2/2 42/2/2 46/2/2
f 43/2/2 44/2/2 47/2/2
f 47/2/2 44/2/2 48/2/2
f 49/2/2 50/2/2 53/2/2
f 53/2/2 50/2/2 54/2/2
f 51/2/2 52/2/2 55/2/2
f 55/2/2 52/2/2 56/2/2
f 57/4/2 58/4/2 61/4/2
f 58/6/2 59/6/2 61/6/2
f 59/4/2 60/4/2 62/4/2
f 61/6/2 59/6/2 62/6/2
f 57/4/2 61/4/2 63/4/2
f 63/4/2 61/4/2 64/4/2
f 64/4/2 61/4/2 65/4/2
f 62/4/2 60/4/2 66/4/2
f 66/4/2 60/4/2 67/4/2
f 67/4/2 60/4/2 68/4/2
f 64/2/2 65/2/2 69/2/2
f 69/2/2 65/2/2 70/2/2
f 66/2/2 67/2/2 71/2/2
f 71/2/2 67/2/2 72/2/2
f 75/4/3 74/4/3 73/4/3
f 77/4/3 75/4/3 73/4/3
f 78/4/3 75/4/3 77/4/3
f 79/2/3 76/2/3 75/2/3
f 79/4/3 75/4/3 78/4/3
f 80/2/3 76/2/3 79/2/3
f 81/6/3 78/6/3 77/6/3
f 82/6/3 78/6/3 81/6/3
f 85/4/3 82/4/3 81/4/3
f 85/2/3 84/2/3 83/2/3
f 85/4/3 83/4/3 82/4/3
f 86/2/3 84/2/3 85/2/3
f 87/4/3 85/4/3 81/4/3
f 88/4/3 85/4/3 87/4/3
f 91/2/3 90/2/3 89/2/3
f 92/2/3 90/2/3 91/2/3
f 95/2/3 94/2/3 93/2/3
f 96/2/3 94/2/3 95/2/3
f 100/4/3 98/4/3 97/4/3
f 101/2/3 99/2/3 98/2/3
f 101/4/3 98/4/3 100/4/3
f 102/2/3 99/2/3 101/2/3
f 106/4/3 104/4/3 103/4/3
f 107/2/3 105/2/3 104/2/3
f 107/4/3 104/4/3 106/4/3
f 108/2/3 105/2/3 107/2/3
f 109/4/4 110/4/4 112/4/4
f 110/2/4 111/2/4 113/2/4
f 112/4/4 110/4/4 113/4/4
f 113/2/4 111/2/4 114/2/4
f 115/4/4 116/4/4 118/4/4
f 116/2/4 117/2/4 119/2/4
f 118/4/4 116/4/4 119/4/4
f 119/2/4 117/2/4 120/2/4
f 121/2/4 122/2/4 123/2/4
f 123/2/4 122/2/4 124/2/4
f 125/2/4 126/2/4 127/2/4
f 127/2/4 126/2/4 128/2/4
f 129/4/4 130/4/4 131/4/4
f 129/4/4 131/4/4 133/4/4
f 133/4/4 131/4/4 134/4/4
f 131/2/4 132/2/4 135/2/4
f 134/4/4 131/4/4 135/4/4
f 135/2/4 132/2/4 136/2/4
f 133/6/4 134/6/4 137/6/4
f 137/6/4 134/6/4 138/6/4
f 137/4/4 138/4/4 141/4/4
f 139/2/4 140/2/4 141/2/4
f 138/4/4 139/4/4 141/4/4
f 141/2/4 140/2/4 142/2/4
f 137/4/4 141/4/4 143/4/4
f 143/4/4 141/4/4 144/4/4
f 149/6/5 147/6/5 146/6/5
f 150/6/5 147/6/5 149/6/5
f 151/6/5 147/6/5 150/6/5
f 152/6/5 147/6/5 151/6/5
f 153/6/5 147/6/5 152/6/5
f 154/6/5 147/6/5 153/6/5
f 155/6/5 147/6/5 154/6/5
f 156/6/5 147/6/5 155/6/5
f 157/6/5 149/6/5 146/6/5
f 157/3/5 150/3/5 149/3/5
f 158/6/5 151/6/5 150/6/5
f 158/3/5 150/3/5 157/3/5
f 159/3/5 152/3/5 151/3/5
f 159/6/5 151/6/5 158/6/5
f 160/6/5 153/6/5 152/6/5
f 160/3/5 152/3/5 159/3/5
f 161/3/5 154/3/5 153/3/5
f 161/6/5 153/6/5 160/6/5
f 162/6/5 155/6/5 154/6/5
f 162/3/5 154/3/5 161/3/5
f 163/3/5 156/3/5 155/3/5
f 163/6/5 155/6/5 162/6/5
f 164/6/5 147/6/5 156/6/5
f 164/3/5 156/3/5 163/3/5
f 165/4/5 146/4/5 145/4/5
f 166/6/5 163/6/5 162/6/5
f 166/4/5 146/4/5 165/4/5
f 166/6/5 162/6/5 161/6/5
f 166/6/5 164/6/5 163/6/5
f 166/6/5 161/6/5 160/6/5
f 166/6/5 160/6/5 159/6/5
f 166/6/5 159/6/5 158/6/5
f 166/6/5 158/6/5 157/6/5
f 166/6/5 157/6/5 146/6/5
f 167/6/5 147/6/5 164/6/5
f 167/6/5 164/6/5 166/6/5
f 167/4/5 148/4/5 147/4/5
f 168/4/5 148/4/5 167/4/5
f 169/6/5 166/6/5 165/6/5
f 169/6/5 167/6/5 166/6/5
f 169/6/5 168/6/5 167/6/5
f 170/6/5 168/6/5 169/6/5
f 171/6/5 168/6/5 170/6/5
f 172/6/5 168/6/5 171/6/5
f 173/6/5 169/6/5 165/6/5
f 173/3/5 170/3/5 169/3/5
f 174/6/5 171/6/5 170/6/5
f 174/3/5 170/3/5 173/3/5
f 175/3/5 172/3/5 171/3/5
f 175/6/5 171/6/5 174/6/5
f 175/6/5 174/6/5 173/6/5
f 176/6/5 168/6/5 172/6/5
f 176/3/5 172/3/5 175/3/5
f 177/6/5 175/6/5 173/6/5
f 177/6/5 173/6/5 165/6/5
f 177/6/5 176/6/5 175/6/5
f 178/6/5 176/6/5 177/6/5
f 179/6/5 176/6/5 178/6/5
f 180/6/5 168/6/5 176/6/5
f 180/6/5 176/6/5 179/6/5
f 181/6/5 177/6/5 165/6/5
f 181/3/5 178/3/5 177/3/5
f 182/6/5 179/6/5 178/6/5
f 182/3/5 178/3/5 181/3/5
f 183/3/5 180/3/5 179/3/5
f 183/6/5 179/6/5 182/6/5
f 183/6/5 182/6/5 181/6/5
f 184/6/5 168/6/5 180/6/5
f 184/3/5 180/3/5 183/3/5
f 185/6/5 181/6/5 165/6/5
f 185/6/5 183/6/5 181/6/5
f 185/6/5 184/6/5 183/6/5
f 186/6/5 184/6/5 185/6/5
f 187/6/5 184/6/5 186/6/5
f 188/6/5 168/6/5 184/6/5
f 188/6/5 184/6/5 187/6/5
f 189/6/5 185/6/5 165/6/5
f 189/3/5 186/3/5 185/3/5
f 190/6/5 187/6/5 186/6/5
f 190/3/5 186/3/5 189/3/5
f 191/3/5 188/3/5 187/3/5
f 191/6/5 187/6/5 190/6/5
f 191/6/5 190/6/5 189/6/5
f 192/6/5 168/6/5 188/6/5
f 192/3/5 188/3/5 191/3/5
f 193/6/5 189/6/5 165/6/5
f 193/6/5 191/6/5 189/6/5
f 193/6/5 192/6/5 191/6/5
f 194/6/5 192/6/5 193/6/5
f 195/6/5 192/6/5 194/6/5
f 196/6/5 168/6/5 192/6/5
f 196/6/5 192/6/5 195/6/5
f 197/6/5 193/6/5 165/6/5
f 197/3/5 194/3/5 193/3/5
f 198/6/5 195/6/5 194/6/5
f 198/3/5 194/3/5 197/3/5
f 199/3/5 196/3/5 195/3/5
f 199/6/5 195/6/5 198/6/5
f 199/6/5 198/6/5 197/6/5
f 200/6/5 168/6/5 196/6/5
f 200/3/5 196/3/5 199/3/5
f 201/6/5 197/6/5 165/6/5
f 201/6/5 199/6/5 197/6/5
f 201/6/5 200/6/5 199/6/5
f 202/6/5 200/6/5 201/6/5
f 203/6/5 200/6/5 202/6/5
f 204/6/5 168/6/5 200/6/5
f 204/6/5 200/6/5 203/6/5
f 205/6/5 203/6/5 202/6/5
f 206/6/5 203/6/5 205/6/5
f 207/6/5 203/6/5 206/6/5
f 208/6/5 203/6/5 207/6/5
f 209/6/5 203/6/5 208/6/5
f 210/6/5 203/6/5 209/6/5
f 211/6/5 203/6/5 210/6/5
f 212/6/5 203/6/5 211/6/5
f 213/6/5 205/6/5 202/6/5
f 213/3/5 206/3/5 205/3/5
f 214/6/5 207/6/5 206/6/5
f 214/3/5 206/3/5 213/3/5
f 215/3/5 208/3/5 207/3/5
f 215/6/5 207/6/5 214/6/5
f 216/6/5 209/6/5 208/6/5
f 216/3/5 208/3/5 215/3/5
f 217/3/5 210/3/5 209/3/5
f 217/6/5 209/6/5 216/6/5
f 218/6/5 211/6/5 210/6/5
f 218/3/5 210/3/5 217/3/5
f 219/3/5 212/3/5 211/3/5
f 219/6/5 211/6/5 218/6/5
f 220/6/5 203/6/5 212/6/5
f 220/3/5 212/3/5 219/3/5
f 221/4/5 202/4/5 201/4/5
f 222/6/5 219/6/5 218/6/5
f 222/4/5 202/4/5 221/4/5
f 222/6/5 218/6/5 217/6/5
f 222/6/5 220/6/5 219/6/5
f 222/6/5 217/6/5 216/6/5
f 222/6/5 216/6/5 215/6/5
f 222/6/5 215/6/5 214/6/5
f 222/6/5 214/6/5 213/6/5
f 222/6/5 213/6/5 202/6/5
f 223/6/5 203/6/5 220/6/5
f 223/6/5 220/6/5 222/6/5
f 223/4/5 204/4/5 203/4/5
f 224/4/5 204/4/5 223/4/5
f 225/6/6 226/6/6 227/6/6
f 227/6/6 226/6/6 228/6/6
f 228/6/6 226/6/6 229/6/6
f 229/6/6 226/6/6 230/6/6
f 230/6/6 226/6/6 231/6/6
f 231/6/6 226/6/6 232/6/6
f 232/6/6 226/6/6 233/6/6
f 233/6/6 226/6/6 234/6/6
f 225/6/6 227/6/6 235/6/6
f 227/3/6 228/3/6 235/3/6
f 228/6/6 229/6/6 236/6/6
f 235/3/6 228/3/6 236/3/6
f 229/3/6 230/3/6 237/3/6
f 236/6/6 229/6/6 237/6/6
f 230/6/6 231/6/6 238/6/6
f 237/3/6 230/3/6 238/3/6
f 231/3/6 232/3/6 239/3/6
f 238/6/6 231/6/6 239/6/6
f 232/6/6 233/6/6 240/6/6
f 239/3/6 232/3/6 240/3/6
f 233/3/6 234/3/6 241/3/6
f 240/6/6 233/6/6 241/6/6
f 234/6/6 226/6/6 242/6/6
f 241/3/6 234/3/6 242/3/6
f 240/6/6 241/6/6 244/6/6
f 239/6/6 240/6/6 244/6/6
f 241/6/6 242/6/6 244/6/6
f 238/6/6 239/6/6 244/6/6
f 237/6/6 238/6/6 244/6/6
f 236/6/6 237/6/6 244/6/6
f 235/6/6 236/6/6 244/6/6
f 225/6/6 235/6/6 244/6/6
f 242/6/6 226/6/6 245/6/6
f 244/6/6 242/6/6 245/6/6
f 243/6/6 244/6/6 247/6/6
f 245/6/6 246/6/6 247/6/6
f 244/6/6 245/6/6 247/6/6
f 247/6/6 246/6/6 248/6/6
f 248/6/6 246/6/6 249/6/6
f 249/6/6 246/6/6 250/6/6
f 243/6/6 247/6/6 251/6/6
f 247/3/6 248/3/6 251/3/6
f 248/6/6 249/6/6 252/6/6
f 251/3/6 248/3/6 252/3/6
f 249/3/6 250/3/6 253/3/6
f 252/6/6 249/6/6 253/6/6
f 251/6/6 252/6/6 253/6/6
f 250/6/6 246/6/6 254/6/6
f 253/3/6 250/3/6 254/3/6
f 251/6/6 253/6/6 255/6/6
f 243/6/6 251/6/6 255/6/6
f 253/6/6 254/6/6 255/6/6
f 255/6/6 254/6/6 256/6/6
f 256/6/6 254/6/6 257/6/6
f 254/6/6 246/6/6 258/6/6
f 257/6/6 254/6/6 258/6/6
f 243/6/6 255/6/6 259/6/6
f 255/3/6 256/3/6 259/3/6
f 256/6/6 257/6/6 260/6/6
f 259/3/6 256/3/6 260/3/6
f 257/3/6 258/3/6 261/3/6
f 260/6/6 257/6/6 261/6/6
f 259/6/6 260/6/6 261/6/6
f 258/6/6 246/6/6 262/6/6
f 261/3/6 258/3/6 262/3/6
f 243/6/6 259/6/6 263/6/6
f 259/6/6 261/6/6 263/6/6
f 261/6/6 262/6/6 263/6/6
f 263/6/6 262/6/6 264/6/6
f 264/6/6 262/6/6 265/6/6
f 262/6/6 246/6/6 266/6/6
f 265/6/6 262/6/6 266/6/6
f 243/6/6 263/6/6 267/6/6
f 263/3/6 264/3/6 267/3/6
f 264/6/6 265/6/6 268/6/6
f 267/3/6 264/3/6 268/3/6
f 265/3/6 266/3/6 269/3/6
f 268/6/6 265/6/6 269/6/6
f 267/6/6 268/6/6 269/6/6
f 266/6/6 246/6/6 270/6/6
f 269/3/6 266/3/6 270/3/6
f 243/6/6 267/6/6 271/6/6
f 267/6/6 269/6/6 271/6/6
f 269/6/6 270/6/6 271/6/6
f 271/6/6 270/6/6 272/6/6
f 272/6/6 270/6/6 273/6/6
f 270/6/6 246/6/6 274/6/6
f 273/6/6 270/6/6 274/6/6
f 243/6/6 271/6/6 275/6/6
f 271/3/6 272/3/6 275/3/6
f 272/6/6 273/6/6 276/6/6
f 275/3/6 272/3/6 276/3/6
f 273/3/6 274/3/6 277/3/6
f 276/6/6 273/6/6 277/6/6
f 275/6/6 276/6/6 277/6/6
f 274/6/6 246/6/6 278/6/6
f 277/3/6 274/3/6 278/3/6
f 243/6/6 275/6/6 279/6/6
f 275/6/6 277/6/6 279/6/6
f 277/6/6 278/6/6 279/6/6
f 279/6/6 278/6/6 280/6/6
f 280/6/6 278/6/6 281/6/6
f 278/6/6 246/6/6 282/6/6
f 281/6/6 278/6/6 282/6/6
f 280/6/6 281/6/6 283/6/6
f 283/6/6 281/6/6 284/6/6
f 284/6/6 281/6/6 285/6/6
f 285/6/6 281/6/6 286/6/6
f 286/6/6 281/6/6 287/6/6
f 287/6/6 281/6/6 288/6/6
f 288/6/6 281/6/6 289/6/6
f 289/6/6 281/6/6 290/6/6
f 280/6/6 283/6/6 291/6/6
f 283/3/6 284/3/6 291/3/6
f 284/6/6 285/6/6 292/6/6
f 291/3/6 284/3/6 292/3/6
f 285/3/6 286/3/6 293/3/6
f 292/6/6 285/6/6 293/6/6
f 286/6/6 287/6/6 294/6/6
f 293/3/6 286/3/6 294/3/6
f 287/3/6 288/3/6 295/3/6
f 294/6/6 287/6/6 295/6/6
f 288/6/6 289/6/6 296/6/6
f 295/3/6 288/3/6 296/3/6
f 289/3/6 290/3/6 297/3/6
f 296/6/6 289/6/6 297/6/6
f 290/6/6 281/6/6 298/6/6
f 297/3/6 290/3/6 298/3/6
f 296/6/6 297/6/6 299/6/6
f 295/6/6 296/6/6 299/6/6
f 297/6/6 298/6/6 299/6/6
f 294/6/6 295/6/6 299/6/6
f 293/6/6 294/6/6 299/6/6
f 292/6/6 293/6/6 299/6/6
f 291/6/6 292/6/6 299/6/6
f 280/6/6 291/6/6 299/6/6
f 298/6/6 281/6/6 300/6/6
f 299/6/6 298/6/6 300/6/6
f 303/4/6 304/4/6 305/4/6
f 305/4/6 304/4/6 306/4/6
f 303/4/6 305/4/6 307/4/6
f 307/4/6 305/4/6 308/4/6
f 301/4/6 302/4/6 309/4/6
f 309/4/6 302/4/6 310/4/6
f 301/4/6 309/4/6 311/4/6
f 309/5/6 310/5/6 311/5/6
f 310/4/6 302/4/6 312/4/6
f 311/5/6 310/5/6 312/5/6
f 308/4/6 305/4/6 313/4/6
f 313/4/6 305/4/6 314/4/6
f 311/4/6 312/4/6 315/4/6
f 315/4/6 312/4/6 316/4/6
f 311/4/6 315/4/6 317/4/6
f 315/5/6 316/5/6 317/5/6
f 316/4/6 312/4/6 318/4/6
f 317/5/6 316/5/6 318/5/6
f 303/4/6 307/4/6 319/4/6
f 307/5/6 308/5/6 320/5/6
f 319/4/6 307/4/6 320/4/6
f 308/4/6 313/4/6 321/4/6
f 320/5/6 308/5/6 321/5/6
f 311/4/6 317/4/6 322/4/6
f 317/4/6 318/4/6 322/4/6
f 322/4/6 318/4/6 323/4/6
f 311/4/6 322/4/6 324/4/6
f 322/5/6 323/5/6 324/5/6
f 323/4/6 318/4/6 325/4/6
f 324/5/6 323/5/6 325/5/6
f 312/4/6 302/4/6 326/4/6
f 325/4/6 318/4/6 326/4/6
f 318/4/6 312/4/6 326/4/6
f 313/5/6 314/5/6 327/5/6
f 321/4/6 313/4/6 327/4/6
f 320/4/6 321/4/6 327/4/6
f 314/4/6 305/4/6 328/4/6
f 327/5/6 314/5/6 328/5/6
f 324/4/6 325/4/6 329/4/6
f 325/5/6 326/5/6 329/5/6
f 326/4/6 302/4/6 330/4/6
f 329/5/6 326/5/6 330/5/6
f 303/4/6 319/4/6 331/4/6
f 319/5/6 320/5/6 331/5/6
f 320/4/6 327/4/6 332/4/6
f 331/5/6 320/5/6 332/5/6
f 327/4/6 328/4/6 332/4/6
f 328/4/6 305/4/6 333/4/6
f 332/4/6 328/4/6 333/4/6
f 305/5/6 306/5/6 333/5/6
f 306/4/6 304/4/6 334/4/6
f 333/5/6 306/5/6 334/5/6
f 324/4/6 329/4/6 335/4/6
f 311/4/6 324/4/6 335/4/6
f 301/4/6 311/4/6 335/4/6
f 329/4/6 330/4/6 335/4/6
f 330/4/6 302/4/6 336/4/6
f 335/4/6 330/4/6 336/4/6
f 331/4/6 332/4/6 337/4/6
f 332/4/6 333/4/6 337/4/6
f 303/4/6 331/4/6 337/4/6
f 333/4/6 334/4/6 337/4/6
f 334/4/6 304/4/6 338/4/6
f 337/4/6 334/4/6 338/4/6
f 339/4/6 340/4/6 343/4/6
f 343/4/6 340/4/6 344/4/6
f 344/4/6 340/4/6 345/4/6
f 345/4/6 340/4/6 346/4/6
f 341/4/6 342/4/6 347/4/6
f 347/4/6 342/4/6 348/4/6
f 344/4/6 345/4/6 349/4/6
f 349/4/6 345/4/6 350/4/6
f 341/4/6 347/4/6 351/4/6
f 347/5/6 348/5/6 351/5/6
f 348/4/6 342/4/6 352/4/6
f 351/5/6 348/5/6 352/5/6
f 352/4/6 342/4/6 353/4/6
f 351/4/6 352/4/6 354/4/6
f 352/5/6 353/5/6 354/5/6
f 353/4/6 342/4/6 355/4/6
f 354/5/6 353/5/6 355/5/6
f 350/4/6 345/4/6 356/4/6
f 345/5/6 346/5/6 357/5/6
f 356/4/6 345/4/6 357/4/6
f 346/4/6 340/4/6 358/4/6
f 357/5/6 346/5/6 358/5/6
f 351/4/6 354/4/6 359/4/6
f 354/4/6 355/4/6 359/4/6
f 359/4/6 355/4/6 360/4/6
f 351/4/6 359/4/6 361/4/6
f 359/5/6 360/5/6 361/5/6
f 360/4/6 355/4/6 362/4/6
f 361/5/6 360/5/6 362/5/6
f 349/5/6 350/5/6 363/5/6
f 344/4/6 349/4/6 363/4/6
f 350/4/6 356/4/6 364/4/6
f 363/5/6 350/5/6 364/5/6
f 341/4/6 351/4/6 365/4/6
f 361/4/6 362/4/6 365/4/6
f 351/4/6 361/4/6 365/4/6
f 355/4/6 342/4/6 366/4/6
f 365/4/6 362/4/6 366/4/6
f 362/4/6 355/4/6 366/4/6
f 341/4/6 365/4/6 367/4/6
f 365/5/6 366/5/6 367/5/6
f 366/4/6 342/4/6 368/4/6
f 367/5/6 366/5/6 368/5/6
f 356/5/6 357/5/6 369/5/6
f 364/4/6 356/4/6 369/4/6
f 363/4/6 364/4/6 369/4/6
f 357/4/6 358/4/6 370/4/6
f 369/5/6 357/5/6 370/5/6
f 339/4/6 343/4/6 371/4/6
f 343/5/6 344/5/6 371/5/6
f 369/4/6 370/4/6 372/4/6
f 371/5/6 344/5/6 372/5/6
f 344/4/6 363/4/6 372/4/6
f 363/4/6 369/4/6 372/4/6
f 339/4/6 371/4/6 373/4/6
f 371/4/6 372/4/6 373/4/6
f 370/4/6 358/4/6 374/4/6
f 373/4/6 372/4/6 374/4/6
f 372/4/6 370/4/6 374/4/6
f 358/4/6 340/4/6 374/4/6
f 341/4/6 367/4/6 375/4/6
f 367/4/6 368/4/6 375/4/6
f 368/4/6 342/4/6 376/4/6
f 375/4/6 368/4/6 376/4/6
f 377/2/6 378/2/6 381/2/6
f 381/2/6 378/2/6 382/2/6
f 379/2/6 380/2/6 383/2/6
f 383/2/6 380/2/6 384/2/6
f 377/2/6 381/2/6 385/2/6
f 381/1/6 382/1/6 385/1/6
f 382/2/6 378/2/6 386/2/6
f 385/1/6 382/1/6 386/1/6
f 377/2/6 385/2/6 388/2/6
f 385/2/6 386/2/6 388/2/6
f 383/1/6 384/1/6 389/1/6
f 379/2/6 383/2/6 389/2/6
f 384/2/6 380/2/6 390/2/6
f 389/1/6 384/1/6 390/1/6
f 390/2/6 380/2/6 391/2/6
f 389/2/6 390/2/6 393/2/6
f 391/2/6 392/2/6 393/2/6
f 390/2/6 391/2/6 393/2/6
f 393/2/6 392/2/6 394/2/6
f 387/2/6 388/2/6 395/2/6
f 388/2/6 386/2/6 396/2/6
f 395/2/6 388/2/6 396/2/6
f 389/2/6 393/2/6 397/2/6
f 393/1/6 394/1/6 397/1/6
f 394/2/6 392/2/6 398/2/6
f 397/1/6 394/1/6 398/1/6
f 387/2/6 395/2/6 399/2/6
f 395/1/6 396/1/6 399/1/6
f 396/2/6 386/2/6 400/2/6
f 399/1/6 396/1/6 400/1/6
f 387/2/6 399/2/6 401/2/6
f 399/2/6 400/2/6 401/2/6
f 386/2/6 378/2/6 402/2/6
f 401/2/6 400/2/6 402/2/6
f 400/2/6 386/2/6 402/2/6
f 379/2/6 389/2/6 403/2/6
f 389/2/6 397/2/6 403/2/6
f 397/2/6 398/2/6 403/2/6
f 398/2/6 392/2/6 404/2/6
f 403/2/6 398/2/6 404/2/6
f 407/2/6 408/2/6 409/2/6
f 409/2/6 408/2/6 410/2/6
f 405/2/6 406/2/6 411/2/6
f 411/2/6 406/2/6 412/2/6
f 407/2/6 409/2/6 413/2/6
f 409/1/6 410/1/6 413/1/6
f 410/2/6 408/2/6 414/2/6
f 413/1/6 410/1/6 414/1/6
f 411/1/6 412/1/6 415/1/6
f 405/2/6 411/2/6 415/2/6
f 412/2/6 406/2/6 416/2/6
f 415/1/6 412/1/6 416/1/6
f 405/2/6 415/2/6 417/2/6
f 415/2/6 416/2/6 417/2/6
f 416/2/6 406/2/6 418/2/6
f 417/2/6 416/2/6 418/2/6
f 418/2/6 406/2/6 419/2/6
f 419/2/6 406/2/6 420/2/6
f 407/2/6 413/2/6 421/2/6
f 413/2/6 414/2/6 421/2/6
f 414/2/6 408/2/6 422/2/6
f 421/2/6 414/2/6 422/2/6
f 407/2/6 421/2/6 423/2/6
f 423/2/6 421/2/6 424/2/6
f 419/1/6 420/1/6 425/1/6
f 418/2/6 419/2/6 425/2/6
f 420/2/6 406/2/6 426/2/6
f 425/1/6 420/1/6 426/1/6
f 423/1/6 424/1/6 427/1/6
f 407/2/6 423/2/6 427/2/6
f 424/2/6 421/2/6 428/2/6
f 427/1/6 424/1/6 428/1/6
f 418/2/6 425/2/6 429/2/6
f 425/2/6 426/2/6 429/2/6
f 426/2/6 406/2/6 430/2/6
f 429/2/6 426/2/6 430/2/6
f 407/2/6 427/2/6 431/2/6
f 427/2/6 428/2/6 431/2/6
f 428/2/6 421/2/6 432/2/6
f 431/2/6 428/2/6 432/2/6
