# MagicaVoxel @ Ephtracy

# group
o 

# material
mtllib muro ancho solo.mtl
usemtl palette

# normals
vn -1 0 0
vn 1 0 0
vn 0 0 1
vn 0 0 -1
vn 0 -1 0
vn 0 1 0

# texcoords
vt 0.708984 0.5
vt 0.767578 0.5
vt 0.994141 0.5

# verts
v -12.8 0 0
v -12.8 0 -0.1
v -12.8 3.7 0
v -12.8 3.7 -0.1
v -12.7 0.6 0.1
v -12.7 0.6 0
v -12.7 3.3 0.1
v -12.7 3.3 0
v -12.6 0.4 0.1
v -12.6 0.4 0
v -12.6 0.6 0.1
v -12.6 0.6 0
v -12.6 3.3 0.1
v -12.6 3.3 0
v -12.6 3.5 0.1
v -12.6 3.5 0
v -12.4 0.3 0.1
v -12.4 0.3 0
v -12.4 0.4 0.1
v -12.4 0.4 0
v -12.4 3.5 0.1
v -12.4 3.5 0
v -12.4 3.6 0.1
v -12.4 3.6 0
v -10.3 0.8 0.1
v -10.3 0.8 -0.1
v -10.3 2.9 0.1
v -10.3 2.9 -0.1
v -6.1 0.8 0.1
v -6.1 0.8 -0.1
v -6.1 2.9 0.1
v -6.1 2.9 -0.1
v -1.7 0.8 0.1
v -1.7 0.8 -0.1
v -1.7 2.9 0.1
v -1.7 2.9 -0.1
v 3.5 0.8 0.1
v 3.5 0.8 -0.1
v 3.5 2.9 0.1
v 3.5 2.9 -0.1
v 7.3 0.8 0.1
v 7.3 0.8 -0.1
v 7.3 2.9 0.1
v 7.3 2.9 -0.1
v 11.4 0.8 0.1
v 11.4 0.8 -0.1
v 11.4 2.9 0.1
v 11.4 2.9 -0.1
v -11.5 0.8 0.1
v -11.5 0.8 -0.1
v -11.5 2.9 0.1
v -11.5 2.9 -0.1
v -7.4 0.8 0.1
v -7.4 0.8 -0.1
v -7.4 2.9 0.1
v -7.4 2.9 -0.1
v -3.6 0.8 0.1
v -3.6 0.8 -0.1
v -3.6 2.9 0.1
v -3.6 2.9 -0.1
v 1.6 0.8 0.1
v 1.6 0.8 -0.1
v 1.6 2.9 0.1
v 1.6 2.9 -0.1
v 6 0.8 0.1
v 6 0.8 -0.1
v 6 2.9 0.1
v 6 2.9 -0.1
v 10.2 0.8 0.1
v 10.2 0.8 -0.1
v 10.2 2.9 0.1
v 10.2 2.9 -0.1
v 12.3 0.3 0.1
v 12.3 0.3 0
v 12.3 0.4 0.1
v 12.3 0.4 0
v 12.3 3.5 0.1
v 12.3 3.5 0
v 12.3 3.6 0.1
v 12.3 3.6 0
v 12.5 0.4 0.1
v 12.5 0.4 0
v 12.5 0.6 0.1
v 12.5 0.6 0
v 12.5 3.3 0.1
v 12.5 3.3 0
v 12.5 3.5 0.1
v 12.5 3.5 0
v 12.6 0.6 0.1
v 12.6 0.6 0
v 12.6 3.3 0.1
v 12.6 3.3 0
v 12.7 0 0
v 12.7 0 -0.1
v 12.7 3.7 0
v 12.7 3.7 -0.1
v -12.7 0.6 0.1
v -12.7 3.3 0.1
v -12.6 0.4 0.1
v -12.6 0.6 0.1
v -12.6 3.3 0.1
v -12.6 3.5 0.1
v -12.4 0.3 0.1
v -12.4 0.4 0.1
v -12.4 3.5 0.1
v -12.4 3.6 0.1
v -11.6 0.7 0.1
v -11.6 3 0.1
v -11.5 0.8 0.1
v -11.5 2.9 0.1
v -10.3 0.8 0.1
v -10.3 2.9 0.1
v -10.2 0.7 0.1
v -10.2 3 0.1
v -7.5 0.7 0.1
v -7.5 3 0.1
v -7.4 0.8 0.1
v -7.4 2.9 0.1
v -6.1 0.8 0.1
v -6.1 2.9 0.1
v -6 0.7 0.1
v -6 3 0.1
v -3.7 0.7 0.1
v -3.7 3 0.1
v -3.6 0.8 0.1
v -3.6 2.9 0.1
v -1.7 0.8 0.1
v -1.7 2.9 0.1
v -1.6 0.7 0.1
v -1.6 3 0.1
v 1.5 0.7 0.1
v 1.5 3 0.1
v 1.6 0.8 0.1
v 1.6 2.9 0.1
v 3.5 0.8 0.1
v 3.5 2.9 0.1
v 3.6 0.7 0.1
v 3.6 3 0.1
v 5.9 0.7 0.1
v 5.9 3 0.1
v 6 0.8 0.1
v 6 2.9 0.1
v 7.3 0.8 0.1
v 7.3 2.9 0.1
v 7.4 0.7 0.1
v 7.4 3 0.1
v 10.1 0.7 0.1
v 10.1 3 0.1
v 10.2 0.8 0.1
v 10.2 2.9 0.1
v 11.4 0.8 0.1
v 11.4 2.9 0.1
v 11.5 0.7 0.1
v 11.5 3 0.1
v 12.3 0.3 0.1
v 12.3 0.4 0.1
v 12.3 3.5 0.1
v 12.3 3.6 0.1
v 12.5 0.4 0.1
v 12.5 0.6 0.1
v 12.5 3.3 0.1
v 12.5 3.5 0.1
v 12.6 0.6 0.1
v 12.6 3.3 0.1
v -12.8 0 0
v -12.8 3.7 0
v -12.7 0.6 0
v -12.7 3.3 0
v -12.6 0.4 0
v -12.6 0.6 0
v -12.6 3.3 0
v -12.6 3.5 0
v -12.4 0.3 0
v -12.4 0.4 0
v -12.4 3.5 0
v -12.4 3.6 0
v 12.3 0.3 0
v 12.3 0.4 0
v 12.3 3.5 0
v 12.3 3.6 0
v 12.5 0.4 0
v 12.5 0.6 0
v 12.5 3.3 0
v 12.5 3.5 0
v 12.6 0.6 0
v 12.6 3.3 0
v 12.7 0 0
v 12.7 3.7 0
v -12.8 0 -0.1
v -12.8 3.7 -0.1
v -11.6 0.7 -0.1
v -11.6 3 -0.1
v -11.5 0.8 -0.1
v -11.5 2.9 -0.1
v -10.3 0.8 -0.1
v -10.3 2.9 -0.1
v -10.2 0.7 -0.1
v -10.2 3 -0.1
v -7.5 0.7 -0.1
v -7.5 3 -0.1
v -7.4 0.8 -0.1
v -7.4 2.9 -0.1
v -6.1 0.8 -0.1
v -6.1 2.9 -0.1
v -6 0.7 -0.1
v -6 3 -0.1
v -3.7 0.7 -0.1
v -3.7 3 -0.1
v -3.6 0.8 -0.1
v -3.6 2.9 -0.1
v -1.7 0.8 -0.1
v -1.7 2.9 -0.1
v -1.6 0.7 -0.1
v -1.6 3 -0.1
v 1.5 0.7 -0.1
v 1.5 3 -0.1
v 1.6 0.8 -0.1
v 1.6 2.9 -0.1
v 3.5 0.8 -0.1
v 3.5 2.9 -0.1
v 3.6 0.7 -0.1
v 3.6 3 -0.1
v 5.9 0.7 -0.1
v 5.9 3 -0.1
v 6 0.8 -0.1
v 6 2.9 -0.1
v 7.3 0.8 -0.1
v 7.3 2.9 -0.1
v 7.4 0.7 -0.1
v 7.4 3 -0.1
v 10.1 0.7 -0.1
v 10.1 3 -0.1
v 10.2 0.8 -0.1
v 10.2 2.9 -0.1
v 11.4 0.8 -0.1
v 11.4 2.9 -0.1
v 11.5 0.7 -0.1
v 11.5 3 -0.1
v 12.7 0 -0.1
v 12.7 3.7 -0.1
v -12.8 0 0
v 12.7 0 0
v -12.8 0 -0.1
v 12.7 0 -0.1
v -12.4 0.3 0.1
v 12.3 0.3 0.1
v -12.4 0.3 0
v 12.3 0.3 0
v -12.6 0.4 0.1
v -12.4 0.4 0.1
v 12.3 0.4 0.1
v 12.5 0.4 0.1
v -12.6 0.4 0
v -12.4 0.4 0
v 12.3 0.4 0
v 12.5 0.4 0
v -12.7 0.6 0.1
v -12.6 0.6 0.1
v 12.5 0.6 0.1
v 12.6 0.6 0.1
v -12.7 0.6 0
v -12.6 0.6 0
v 12.5 0.6 0
v 12.6 0.6 0
v -11.5 2.9 0.1
v -10.3 2.9 0.1
v -7.4 2.9 0.1
v -6.1 2.9 0.1
v -3.6 2.9 0.1
v -1.7 2.9 0.1
v 1.6 2.9 0.1
v 3.5 2.9 0.1
v 6 2.9 0.1
v 7.3 2.9 0.1
v 10.2 2.9 0.1
v 11.4 2.9 0.1
v -11.5 2.9 -0.1
v -10.3 2.9 -0.1
v -7.4 2.9 -0.1
v -6.1 2.9 -0.1
v -3.6 2.9 -0.1
v -1.7 2.9 -0.1
v 1.6 2.9 -0.1
v 3.5 2.9 -0.1
v 6 2.9 -0.1
v 7.3 2.9 -0.1
v 10.2 2.9 -0.1
v 11.4 2.9 -0.1
v -11.5 0.8 0.1
v -10.3 0.8 0.1
v -7.4 0.8 0.1
v -6.1 0.8 0.1
v -3.6 0.8 0.1
v -1.7 0.8 0.1
v 1.6 0.8 0.1
v 3.5 0.8 0.1
v 6 0.8 0.1
v 7.3 0.8 0.1
v 10.2 0.8 0.1
v 11.4 0.8 0.1
v -11.5 0.8 -0.1
v -10.3 0.8 -0.1
v -7.4 0.8 -0.1
v -6.1 0.8 -0.1
v -3.6 0.8 -0.1
v -1.7 0.8 -0.1
v 1.6 0.8 -0.1
v 3.5 0.8 -0.1
v 6 0.8 -0.1
v 7.3 0.8 -0.1
v 10.2 0.8 -0.1
v 11.4 0.8 -0.1
v -12.7 3.3 0.1
v -12.6 3.3 0.1
v 12.5 3.3 0.1
v 12.6 3.3 0.1
v -12.7 3.3 0
v -12.6 3.3 0
v 12.5 3.3 0
v 12.6 3.3 0
v -12.6 3.5 0.1
v -12.4 3.5 0.1
v 12.3 3.5 0.1
v 12.5 3.5 0.1
v -12.6 3.5 0
v -12.4 3.5 0
v 12.3 3.5 0
v 12.5 3.5 0
v -12.4 3.6 0.1
v 12.3 3.6 0.1
v -12.4 3.6 0
v 12.3 3.6 0
v -12.8 3.7 0
v 12.7 3.7 0
v -12.8 3.7 -0.1
v 12.7 3.7 -0.1

# faces
f 3/2/1 2/2/1 1/2/1
f 4/2/1 2/2/1 3/2/1
f 7/1/1 6/1/1 5/1/1
f 8/1/1 6/1/1 7/1/1
f 11/1/1 10/1/1 9/1/1
f 12/1/1 10/1/1 11/1/1
f 15/1/1 14/1/1 13/1/1
f 16/1/1 14/1/1 15/1/1
f 19/1/1 18/1/1 17/1/1
f 20/1/1 18/1/1 19/1/1
f 23/1/1 22/1/1 21/1/1
f 24/1/1 22/1/1 23/1/1
f 27/3/1 26/3/1 25/3/1
f 28/3/1 26/3/1 27/3/1
f 31/3/1 30/3/1 29/3/1
f 32/3/1 30/3/1 31/3/1
f 35/3/1 34/3/1 33/3/1
f 36/3/1 34/3/1 35/3/1
f 39/3/1 38/3/1 37/3/1
f 40/3/1 38/3/1 39/3/1
f 43/3/1 42/3/1 41/3/1
f 44/3/1 42/3/1 43/3/1
f 47/3/1 46/3/1 45/3/1
f 48/3/1 46/3/1 47/3/1
f 49/3/2 50/3/2 51/3/2
f 51/3/2 50/3/2 52/3/2
f 53/3/2 54/3/2 55/3/2
f 55/3/2 54/3/2 56/3/2
f 57/3/2 58/3/2 59/3/2
f 59/3/2 58/3/2 60/3/2
f 61/3/2 62/3/2 63/3/2
f 63/3/2 62/3/2 64/3/2
f 65/3/2 66/3/2 67/3/2
f 67/3/2 66/3/2 68/3/2
f 69/3/2 70/3/2 71/3/2
f 71/3/2 70/3/2 72/3/2
f 73/1/2 74/1/2 75/1/2
f 75/1/2 74/1/2 76/1/2
f 77/1/2 78/1/2 79/1/2
f 79/1/2 78/1/2 80/1/2
f 81/1/2 82/1/2 83/1/2
f 83/1/2 82/1/2 84/1/2
f 85/1/2 86/1/2 87/1/2
f 87/1/2 86/1/2 88/1/2
f 89/1/2 90/1/2 91/1/2
f 91/1/2 90/1/2 92/1/2
f 93/2/2 94/2/2 95/2/2
f 95/2/2 94/2/2 96/2/2
f 100/1/3 98/1/3 97/1/3
f 101/1/3 98/1/3 100/1/3
f 104/1/3 100/1/3 99/1/3
f 104/1/3 102/1/3 101/1/3
f 104/1/3 101/1/3 100/1/3
f 105/1/3 102/1/3 104/1/3
f 107/1/3 104/1/3 103/1/3
f 107/1/3 106/1/3 105/1/3
f 107/1/3 105/1/3 104/1/3
f 108/1/3 106/1/3 107/1/3
f 109/3/3 108/3/3 107/3/3
f 110/3/3 108/3/3 109/3/3
f 111/3/3 109/3/3 107/3/3
f 112/3/3 108/3/3 110/3/3
f 113/1/3 107/1/3 103/1/3
f 113/3/3 112/3/3 111/3/3
f 113/3/3 111/3/3 107/3/3
f 114/3/3 108/3/3 112/3/3
f 114/3/3 112/3/3 113/3/3
f 114/1/3 106/1/3 108/1/3
f 115/1/3 113/1/3 103/1/3
f 115/1/3 114/1/3 113/1/3
f 116/1/3 106/1/3 114/1/3
f 116/1/3 114/1/3 115/1/3
f 117/3/3 116/3/3 115/3/3
f 118/3/3 116/3/3 117/3/3
f 119/3/3 117/3/3 115/3/3
f 120/3/3 116/3/3 118/3/3
f 121/1/3 115/1/3 103/1/3
f 121/3/3 120/3/3 119/3/3
f 121/3/3 119/3/3 115/3/3
f 122/3/3 116/3/3 120/3/3
f 122/3/3 120/3/3 121/3/3
f 122/1/3 106/1/3 116/1/3
f 123/1/3 121/1/3 103/1/3
f 123/1/3 122/1/3 121/1/3
f 124/1/3 106/1/3 122/1/3
f 124/1/3 122/1/3 123/1/3
f 125/3/3 124/3/3 123/3/3
f 126/3/3 124/3/3 125/3/3
f 127/3/3 125/3/3 123/3/3
f 128/3/3 124/3/3 126/3/3
f 129/1/3 123/1/3 103/1/3
f 129/3/3 128/3/3 127/3/3
f 129/3/3 127/3/3 123/3/3
f 130/3/3 124/3/3 128/3/3
f 130/3/3 128/3/3 129/3/3
f 130/1/3 106/1/3 124/1/3
f 131/1/3 129/1/3 103/1/3
f 131/1/3 130/1/3 129/1/3
f 132/1/3 106/1/3 130/1/3
f 132/1/3 130/1/3 131/1/3
f 133/3/3 132/3/3 131/3/3
f 134/3/3 132/3/3 133/3/3
f 135/3/3 133/3/3 131/3/3
f 136/3/3 132/3/3 134/3/3
f 137/1/3 131/1/3 103/1/3
f 137/3/3 136/3/3 135/3/3
f 137/3/3 135/3/3 131/3/3
f 138/3/3 132/3/3 136/3/3
f 138/3/3 136/3/3 137/3/3
f 138/1/3 106/1/3 132/1/3
f 139/1/3 137/1/3 103/1/3
f 139/1/3 138/1/3 137/1/3
f 140/1/3 106/1/3 138/1/3
f 140/1/3 138/1/3 139/1/3
f 141/3/3 140/3/3 139/3/3
f 142/3/3 140/3/3 141/3/3
f 143/3/3 141/3/3 139/3/3
f 144/3/3 140/3/3 142/3/3
f 145/1/3 139/1/3 103/1/3
f 145/3/3 144/3/3 143/3/3
f 145/3/3 143/3/3 139/3/3
f 146/3/3 140/3/3 144/3/3
f 146/3/3 144/3/3 145/3/3
f 146/1/3 106/1/3 140/1/3
f 147/1/3 145/1/3 103/1/3
f 147/1/3 146/1/3 145/1/3
f 148/1/3 106/1/3 146/1/3
f 148/1/3 146/1/3 147/1/3
f 149/3/3 148/3/3 147/3/3
f 150/3/3 148/3/3 149/3/3
f 151/3/3 149/3/3 147/3/3
f 152/3/3 148/3/3 150/3/3
f 153/1/3 147/1/3 103/1/3
f 153/3/3 152/3/3 151/3/3
f 153/3/3 151/3/3 147/3/3
f 154/3/3 148/3/3 152/3/3
f 154/3/3 152/3/3 153/3/3
f 154/1/3 106/1/3 148/1/3
f 155/1/3 153/1/3 103/1/3
f 155/1/3 154/1/3 153/1/3
f 156/1/3 154/1/3 155/1/3
f 157/1/3 106/1/3 154/1/3
f 157/1/3 154/1/3 156/1/3
f 158/1/3 106/1/3 157/1/3
f 159/1/3 157/1/3 156/1/3
f 160/1/3 157/1/3 159/1/3
f 161/1/3 157/1/3 160/1/3
f 162/1/3 157/1/3 161/1/3
f 163/1/3 161/1/3 160/1/3
f 164/1/3 161/1/3 163/1/3
f 167/2/3 166/2/3 165/2/3
f 168/2/3 166/2/3 167/2/3
f 169/2/3 167/2/3 165/2/3
f 170/2/3 167/2/3 169/2/3
f 171/2/3 166/2/3 168/2/3
f 172/2/3 166/2/3 171/2/3
f 173/2/3 169/2/3 165/2/3
f 174/2/3 169/2/3 173/2/3
f 175/2/3 166/2/3 172/2/3
f 176/2/3 166/2/3 175/2/3
f 177/2/3 173/2/3 165/2/3
f 180/2/3 166/2/3 176/2/3
f 181/2/3 178/2/3 177/2/3
f 184/2/3 180/2/3 179/2/3
f 185/2/3 182/2/3 181/2/3
f 186/2/3 184/2/3 183/2/3
f 187/2/3 185/2/3 181/2/3
f 187/2/3 186/2/3 185/2/3
f 187/2/3 177/2/3 165/2/3
f 187/2/3 181/2/3 177/2/3
f 188/2/3 184/2/3 186/2/3
f 188/2/3 186/2/3 187/2/3
f 188/2/3 166/2/3 180/2/3
f 188/2/3 180/2/3 184/2/3
f 189/2/4 190/2/4 191/2/4
f 191/2/4 190/2/4 192/2/4
f 191/3/4 192/3/4 193/3/4
f 193/3/4 192/3/4 194/3/4
f 191/3/4 193/3/4 195/3/4
f 194/3/4 192/3/4 196/3/4
f 189/2/4 191/2/4 197/2/4
f 195/3/4 196/3/4 197/3/4
f 191/3/4 195/3/4 197/3/4
f 196/3/4 192/3/4 198/3/4
f 197/3/4 196/3/4 198/3/4
f 192/2/4 190/2/4 198/2/4
f 189/2/4 197/2/4 199/2/4
f 197/2/4 198/2/4 199/2/4
f 198/2/4 190/2/4 200/2/4
f 199/2/4 198/2/4 200/2/4
f 199/3/4 200/3/4 201/3/4
f 201/3/4 200/3/4 202/3/4
f 199/3/4 201/3/4 203/3/4
f 202/3/4 200/3/4 204/3/4
f 189/2/4 199/2/4 205/2/4
f 203/3/4 204/3/4 205/3/4
f 199/3/4 203/3/4 205/3/4
f 204/3/4 200/3/4 206/3/4
f 205/3/4 204/3/4 206/3/4
f 200/2/4 190/2/4 206/2/4
f 189/2/4 205/2/4 207/2/4
f 205/2/4 206/2/4 207/2/4
f 206/2/4 190/2/4 208/2/4
f 207/2/4 206/2/4 208/2/4
f 207/3/4 208/3/4 209/3/4
f 209/3/4 208/3/4 210/3/4
f 207/3/4 209/3/4 211/3/4
f 210/3/4 208/3/4 212/3/4
f 189/2/4 207/2/4 213/2/4
f 211/3/4 212/3/4 213/3/4
f 207/3/4 211/3/4 213/3/4
f 212/3/4 208/3/4 214/3/4
f 213/3/4 212/3/4 214/3/4
f 208/2/4 190/2/4 214/2/4
f 189/2/4 213/2/4 215/2/4
f 213/2/4 214/2/4 215/2/4
f 214/2/4 190/2/4 216/2/4
f 215/2/4 214/2/4 216/2/4
f 215/3/4 216/3/4 217/3/4
f 217/3/4 216/3/4 218/3/4
f 215/3/4 217/3/4 219/3/4
f 218/3/4 216/3/4 220/3/4
f 189/2/4 215/2/4 221/2/4
f 219/3/4 220/3/4 221/3/4
f 215/3/4 219/3/4 221/3/4
f 220/3/4 216/3/4 222/3/4
f 221/3/4 220/3/4 222/3/4
f 216/2/4 190/2/4 222/2/4
f 189/2/4 221/2/4 223/2/4
f 221/2/4 222/2/4 223/2/4
f 222/2/4 190/2/4 224/2/4
f 223/2/4 222/2/4 224/2/4
f 223/3/4 224/3/4 225/3/4
f 225/3/4 224/3/4 226/3/4
f 223/3/4 225/3/4 227/3/4
f 226/3/4 224/3/4 228/3/4
f 189/2/4 223/2/4 229/2/4
f 227/3/4 228/3/4 229/3/4
f 223/3/4 227/3/4 229/3/4
f 228/3/4 224/3/4 230/3/4
f 229/3/4 228/3/4 230/3/4
f 224/2/4 190/2/4 230/2/4
f 189/2/4 229/2/4 231/2/4
f 229/2/4 230/2/4 231/2/4
f 230/2/4 190/2/4 232/2/4
f 231/2/4 230/2/4 232/2/4
f 231/3/4 232/3/4 233/3/4
f 233/3/4 232/3/4 234/3/4
f 231/3/4 233/3/4 235/3/4
f 234/3/4 232/3/4 236/3/4
f 189/2/4 231/2/4 237/2/4
f 235/3/4 236/3/4 237/3/4
f 231/3/4 235/3/4 237/3/4
f 236/3/4 232/3/4 238/3/4
f 237/3/4 236/3/4 238/3/4
f 232/2/4 190/2/4 238/2/4
f 189/2/4 237/2/4 239/2/4
f 237/2/4 238/2/4 239/2/4
f 238/2/4 190/2/4 240/2/4
f 239/2/4 238/2/4 240/2/4
f 243/2/5 242/2/5 241/2/5
f 244/2/5 242/2/5 243/2/5
f 247/1/5 246/1/5 245/1/5
f 248/1/5 246/1/5 247/1/5
f 253/1/5 250/1/5 249/1/5
f 254/1/5 250/1/5 253/1/5
f 255/1/5 252/1/5 251/1/5
f 256/1/5 252/1/5 255/1/5
f 261/1/5 258/1/5 257/1/5
f 262/1/5 258/1/5 261/1/5
f 263/1/5 260/1/5 259/1/5
f 264/1/5 260/1/5 263/1/5
f 277/3/5 266/3/5 265/3/5
f 278/3/5 266/3/5 277/3/5
f 279/3/5 268/3/5 267/3/5
f 280/3/5 268/3/5 279/3/5
f 281/3/5 270/3/5 269/3/5
f 282/3/5 270/3/5 281/3/5
f 283/3/5 272/3/5 271/3/5
f 284/3/5 272/3/5 283/3/5
f 285/3/5 274/3/5 273/3/5
f 286/3/5 274/3/5 285/3/5
f 287/3/5 276/3/5 275/3/5
f 288/3/5 276/3/5 287/3/5
f 289/3/6 290/3/6 301/3/6
f 301/3/6 290/3/6 302/3/6
f 291/3/6 292/3/6 303/3/6
f 303/3/6 292/3/6 304/3/6
f 293/3/6 294/3/6 305/3/6
f 305/3/6 294/3/6 306/3/6
f 295/3/6 296/3/6 307/3/6
f 307/3/6 296/3/6 308/3/6
f 297/3/6 298/3/6 309/3/6
f 309/3/6 298/3/6 310/3/6
f 299/3/6 300/3/6 311/3/6
f 311/3/6 300/3/6 312/3/6
f 313/1/6 314/1/6 317/1/6
f 317/1/6 314/1/6 318/1/6
f 315/1/6 316/1/6 319/1/6
f 319/1/6 316/1/6 320/1/6
f 321/1/6 322/1/6 325/1/6
f 325/1/6 322/1/6 326/1/6
f 323/1/6 324/1/6 327/1/6
f 327/1/6 324/1/6 328/1/6
f 329/1/6 330/1/6 331/1/6
f 331/1/6 330/1/6 332/1/6
f 333/2/6 334/2/6 335/2/6
f 335/2/6 334/2/6 336/2/6
