# MagicaVoxel @ Ephtracy

# group
o 

# material
mtllib sillon sillota.mtl
usemtl palette

# normals
vn -1 0 0
vn 1 0 0
vn 0 0 1
vn 0 0 -1
vn 0 -1 0
vn 0 1 0

# texcoords
vt 0.0253906 0.5
vt 0.986328 0.5
vt 0.994141 0.5

# verts
v -2.9 5.2 3.1
v -2.9 5.2 2
v -2.9 5.2 -1.5
v -2.9 5.2 -2.6
v -2.9 5.8 3.1
v -2.9 5.8 2
v -2.9 5.8 -1.5
v -2.9 5.8 -2.6
v -2.2 3.9 3
v -2.2 3.9 -2.5
v -2.2 4.4 1.9
v -2.2 4.4 -1.4
v -2.2 5.1 2.1
v -2.2 5.1 1.9
v -2.2 5.1 -1.4
v -2.2 5.1 -1.6
v -2.2 5.2 3
v -2.2 5.2 2.1
v -2.2 5.2 -1.6
v -2.2 5.2 -2.5
v -0.6 3 1.4
v -0.6 3 -0.9
v -0.6 3.9 1.4
v -0.6 3.9 -0.9
v 0.9 3.3 -0.9
v 0.9 3.3 -1.7
v 0.9 3.5 -0.9
v 0.9 3.5 -1.7
v 1.1 3.3 -0.8
v 1.1 3.3 -0.9
v 1.1 3.5 -0.8
v 1.1 3.5 -0.9
v 2.1 9.9 1.6
v 2.1 9.9 -1.1
v 2.1 11 1.6
v 2.1 11 -1.1
v 2.3 4.4 1.9
v 2.3 4.4 -1.4
v 2.3 5.1 2
v 2.3 5.1 1.9
v 2.3 5.1 -1.4
v 2.3 5.1 -1.5
v 2.3 5.2 2
v 2.3 5.2 -1.5
v 2.3 5.8 3.1
v 2.3 5.8 2
v 2.3 5.8 -1.5
v 2.3 5.8 -2.6
v 2.3 9.9 1.6
v 2.3 9.9 -1.1
v 2.3 10 2.2
v 2.3 10 1.8
v 2.3 10 -1.3
v 2.3 10 -1.7
v 2.3 10.2 2.2
v 2.3 10.2 1.8
v 2.3 10.2 -1.3
v 2.3 10.2 -1.7
v 2.3 10.5 2.3
v 2.3 10.5 1.8
v 2.3 10.5 -1.3
v 2.3 10.5 -1.8
v 2.3 10.7 2.3
v 2.3 10.7 1.8
v 2.3 10.7 -1.3
v 2.3 10.7 -1.8
v 2.3 11 1.6
v 2.3 11 -1.1
v 2.3 11.2 3.1
v 2.3 11.2 -2.6
v 2.6 5.1 2.1
v 2.6 5.1 2
v 2.6 5.2 2.1
v 2.6 5.2 2
v 3.7 5.1 2.1
v 3.7 5.1 1.9
v 3.7 5.1 -1.5
v 3.7 5.1 -1.6
v 3.7 5.2 2.1
v 3.7 5.2 1.9
v 3.7 5.2 -1.5
v 3.7 5.2 -1.6
v 0.9 3.3 -0.8
v 0.9 3.3 -0.9
v 0.9 3.5 -0.8
v 0.9 3.5 -0.9
v 1.1 3.3 -0.9
v 1.1 3.3 -1.7
v 1.1 3.5 -0.9
v 1.1 3.5 -1.7
v 1.3 3 1.4
v 1.3 3 -0.9
v 1.3 3.9 1.4
v 1.3 3.9 -0.9
v 2.3 3.9 1.9
v 2.3 3.9 -1.4
v 2.3 4.4 1.9
v 2.3 4.4 -1.4
v 2.4 5.1 2
v 2.4 5.1 1.9
v 2.4 5.2 2
v 2.4 5.2 1.9
v 2.7 5.1 2.1
v 2.7 5.1 2
v 2.7 5.2 2.1
v 2.7 5.2 2
v 3.8 3.9 3
v 3.8 3.9 1.9
v 3.8 3.9 -1.4
v 3.8 3.9 -2.5
v 3.8 4.4 1.9
v 3.8 4.4 -1.4
v 3.8 5.2 3.1
v 3.8 5.2 3
v 3.8 5.2 -2.5
v 3.8 5.2 -2.6
v 3.8 10 2.2
v 3.8 10 1.8
v 3.8 10 -1.3
v 3.8 10 -1.7
v 3.8 10.2 2.2
v 3.8 10.2 1.8
v 3.8 10.2 -1.3
v 3.8 10.2 -1.7
v 3.8 10.5 2.3
v 3.8 10.5 1.8
v 3.8 10.5 -1.3
v 3.8 10.5 -1.8
v 3.8 10.7 2.3
v 3.8 10.7 1.8
v 3.8 10.7 -1.3
v 3.8 10.7 -1.8
v 3.8 11.2 3.1
v 3.8 11.2 -2.6
v -2.9 5.2 3.1
v -2.9 5.8 3.1
v 2.3 5.8 3.1
v 2.3 11.2 3.1
v 3.8 5.2 3.1
v 3.8 11.2 3.1
v -2.2 3.9 3
v -2.2 5.2 3
v 3.8 3.9 3
v 3.8 5.2 3
v 2.3 5.1 2
v 2.3 5.2 2
v 2.4 5.1 2
v 2.4 5.2 2
v 2.4 5.1 1.9
v 2.4 5.2 1.9
v 3.7 5.1 1.9
v 3.7 5.2 1.9
v 2.3 10 1.8
v 2.3 10.2 1.8
v 2.3 10.5 1.8
v 2.3 10.7 1.8
v 3.8 10 1.8
v 3.8 10.2 1.8
v 3.8 10.5 1.8
v 3.8 10.7 1.8
v 2.1 9.9 1.6
v 2.1 11 1.6
v 2.3 9.9 1.6
v 2.3 11 1.6
v -0.6 3 1.4
v -0.6 3.9 1.4
v 1.3 3 1.4
v 1.3 3.9 1.4
v 0.9 3.3 -0.9
v 0.9 3.5 -0.9
v 1.1 3.3 -0.9
v 1.1 3.5 -0.9
v -2.2 4.4 -1.4
v -2.2 5.1 -1.4
v 2.3 3.9 -1.4
v 2.3 4.4 -1.4
v 2.3 5.1 -1.4
v 3.8 3.9 -1.4
v 3.8 4.4 -1.4
v -2.9 5.2 -1.5
v -2.9 5.8 -1.5
v 2.3 5.2 -1.5
v 2.3 5.8 -1.5
v -2.2 5.1 -1.6
v -2.2 5.2 -1.6
v 3.7 5.1 -1.6
v 3.7 5.2 -1.6
v 2.3 10 -1.7
v 2.3 10.2 -1.7
v 3.8 10 -1.7
v 3.8 10.2 -1.7
v 2.3 10.5 -1.8
v 2.3 10.7 -1.8
v 3.8 10.5 -1.8
v 3.8 10.7 -1.8
v 2.3 10.5 2.3
v 2.3 10.7 2.3
v 3.8 10.5 2.3
v 3.8 10.7 2.3
v 2.3 10 2.2
v 2.3 10.2 2.2
v 3.8 10 2.2
v 3.8 10.2 2.2
v -2.2 5.1 2.1
v -2.2 5.2 2.1
v 2.6 5.1 2.1
v 2.6 5.2 2.1
v 2.7 5.1 2.1
v 2.7 5.2 2.1
v 3.7 5.1 2.1
v 3.7 5.2 2.1
v -2.9 5.2 2
v -2.9 5.8 2
v 2.3 5.2 2
v 2.3 5.8 2
v 2.6 5.1 2
v 2.6 5.2 2
v 2.7 5.1 2
v 2.7 5.2 2
v -2.2 4.4 1.9
v -2.2 5.1 1.9
v 2.3 3.9 1.9
v 2.3 4.4 1.9
v 2.3 5.1 1.9
v 3.8 3.9 1.9
v 3.8 4.4 1.9
v 0.9 3.3 -0.8
v 0.9 3.5 -0.8
v 1.1 3.3 -0.8
v 1.1 3.5 -0.8
v -0.6 3 -0.9
v -0.6 3.9 -0.9
v 0.9 3.3 -0.9
v 0.9 3.5 -0.9
v 1.1 3.3 -0.9
v 1.1 3.5 -0.9
v 1.3 3 -0.9
v 1.3 3.9 -0.9
v 2.1 9.9 -1.1
v 2.1 11 -1.1
v 2.3 9.9 -1.1
v 2.3 11 -1.1
v 2.3 10 -1.3
v 2.3 10.2 -1.3
v 2.3 10.5 -1.3
v 2.3 10.7 -1.3
v 3.8 10 -1.3
v 3.8 10.2 -1.3
v 3.8 10.5 -1.3
v 3.8 10.7 -1.3
v 2.3 5.1 -1.5
v 2.3 5.2 -1.5
v 3.7 5.1 -1.5
v 3.7 5.2 -1.5
v 0.9 3.3 -1.7
v 0.9 3.5 -1.7
v 1.1 3.3 -1.7
v 1.1 3.5 -1.7
v -2.2 3.9 -2.5
v -2.2 5.2 -2.5
v 3.8 3.9 -2.5
v 3.8 5.2 -2.5
v -2.9 5.2 -2.6
v -2.9 5.8 -2.6
v 2.3 5.8 -2.6
v 2.3 11.2 -2.6
v 3.8 5.2 -2.6
v 3.8 11.2 -2.6
v -0.6 3 1.4
v 1.3 3 1.4
v -0.6 3 -0.9
v 1.3 3 -0.9
v 0.9 3.3 -0.9
v 1.1 3.3 -0.9
v 0.9 3.3 -1.7
v 1.1 3.3 -1.7
v 0.9 3.5 -0.8
v 1.1 3.5 -0.8
v 0.9 3.5 -0.9
v 1.1 3.5 -0.9
v -2.2 3.9 3
v 3.8 3.9 3
v 2.3 3.9 1.9
v 3.8 3.9 1.9
v -0.6 3.9 1.4
v 1.3 3.9 1.4
v -0.6 3.9 -0.9
v 1.3 3.9 -0.9
v 2.3 3.9 -1.4
v 3.8 3.9 -1.4
v -2.2 3.9 -2.5
v 3.8 3.9 -2.5
v 2.3 4.4 1.9
v 3.8 4.4 1.9
v 2.3 4.4 -1.4
v 3.8 4.4 -1.4
v -2.9 5.2 3.1
v 3.8 5.2 3.1
v -2.2 5.2 3
v 3.8 5.2 3
v -2.2 5.2 2.1
v 2.6 5.2 2.1
v 2.7 5.2 2.1
v 3.7 5.2 2.1
v -2.9 5.2 2
v 2.3 5.2 2
v 2.4 5.2 2
v 2.6 5.2 2
v 2.7 5.2 2
v 2.4 5.2 1.9
v 3.7 5.2 1.9
v -2.9 5.2 -1.5
v 2.3 5.2 -1.5
v 3.7 5.2 -1.5
v -2.2 5.2 -1.6
v 3.7 5.2 -1.6
v -2.2 5.2 -2.5
v 3.8 5.2 -2.5
v -2.9 5.2 -2.6
v 3.8 5.2 -2.6
v 2.1 9.9 1.6
v 2.3 9.9 1.6
v 2.1 9.9 -1.1
v 2.3 9.9 -1.1
v 2.3 10.2 2.2
v 3.8 10.2 2.2
v 2.3 10.2 1.8
v 3.8 10.2 1.8
v 2.3 10.2 -1.3
v 3.8 10.2 -1.3
v 2.3 10.2 -1.7
v 3.8 10.2 -1.7
v 2.3 10.7 2.3
v 3.8 10.7 2.3
v 2.3 10.7 1.8
v 3.8 10.7 1.8
v 2.3 10.7 -1.3
v 3.8 10.7 -1.3
v 2.3 10.7 -1.8
v 3.8 10.7 -1.8
v 0.9 3.3 -0.8
v 1.1 3.3 -0.8
v 0.9 3.3 -0.9
v 1.1 3.3 -0.9
v 0.9 3.5 -0.9
v 1.1 3.5 -0.9
v 0.9 3.5 -1.7
v 1.1 3.5 -1.7
v -2.2 4.4 1.9
v 2.3 4.4 1.9
v -2.2 4.4 -1.4
v 2.3 4.4 -1.4
v -2.2 5.1 2.1
v 2.6 5.1 2.1
v 2.7 5.1 2.1
v 3.7 5.1 2.1
v 2.3 5.1 2
v 2.4 5.1 2
v 2.6 5.1 2
v 2.7 5.1 2
v -2.2 5.1 1.9
v 2.3 5.1 1.9
v 2.4 5.1 1.9
v 3.7 5.1 1.9
v -2.2 5.1 -1.4
v 2.3 5.1 -1.4
v 2.3 5.1 -1.5
v 3.7 5.1 -1.5
v -2.2 5.1 -1.6
v 3.7 5.1 -1.6
v -2.9 5.8 3.1
v 2.3 5.8 3.1
v -2.9 5.8 2
v 2.3 5.8 2
v -2.9 5.8 -1.5
v 2.3 5.8 -1.5
v -2.9 5.8 -2.6
v 2.3 5.8 -2.6
v 2.3 10 2.2
v 3.8 10 2.2
v 2.3 10 1.8
v 3.8 10 1.8
v 2.3 10 -1.3
v 3.8 10 -1.3
v 2.3 10 -1.7
v 3.8 10 -1.7
v 2.3 10.5 2.3
v 3.8 10.5 2.3
v 2.3 10.5 1.8
v 3.8 10.5 1.8
v 2.3 10.5 -1.3
v 3.8 10.5 -1.3
v 2.3 10.5 -1.8
v 3.8 10.5 -1.8
v 2.1 11 1.6
v 2.3 11 1.6
v 2.1 11 -1.1
v 2.3 11 -1.1
v 2.3 11.2 3.1
v 3.8 11.2 3.1
v 2.3 11.2 -2.6
v 3.8 11.2 -2.6

# faces
f 5/1/1 2/1/1 1/1/1
f 6/1/1 2/1/1 5/1/1
f 7/1/1 4/1/1 3/1/1
f 8/1/1 4/1/1 7/1/1
f 11/1/1 10/1/1 9/1/1
f 12/1/1 10/1/1 11/1/1
f 13/1/1 11/1/1 9/1/1
f 14/1/1 11/1/1 13/1/1
f 15/1/1 10/1/1 12/1/1
f 16/1/1 10/1/1 15/1/1
f 17/1/1 13/1/1 9/1/1
f 18/1/1 13/1/1 17/1/1
f 19/1/1 10/1/1 16/1/1
f 20/1/1 10/1/1 19/1/1
f 23/3/1 22/3/1 21/3/1
f 24/3/1 22/3/1 23/3/1
f 27/2/1 26/2/1 25/2/1
f 28/2/1 26/2/1 27/2/1
f 31/3/1 30/3/1 29/3/1
f 32/3/1 30/3/1 31/3/1
f 35/1/1 34/1/1 33/1/1
f 36/1/1 34/1/1 35/1/1
f 40/1/1 38/1/1 37/1/1
f 41/1/1 38/1/1 40/1/1
f 43/1/1 40/1/1 39/1/1
f 43/1/1 42/1/1 41/1/1
f 43/1/1 41/1/1 40/1/1
f 44/1/1 42/1/1 43/1/1
f 46/1/1 44/1/1 43/1/1
f 47/1/1 44/1/1 46/1/1
f 49/1/1 47/1/1 46/1/1
f 49/1/1 48/1/1 47/1/1
f 49/1/1 46/1/1 45/1/1
f 50/1/1 48/1/1 49/1/1
f 51/1/1 49/1/1 45/1/1
f 52/1/1 49/1/1 51/1/1
f 53/1/1 48/1/1 50/1/1
f 54/1/1 48/1/1 53/1/1
f 55/1/1 51/1/1 45/1/1
f 56/1/1 49/1/1 52/1/1
f 57/1/1 53/1/1 50/1/1
f 58/1/1 48/1/1 54/1/1
f 59/1/1 55/1/1 45/1/1
f 59/1/1 56/1/1 55/1/1
f 60/1/1 49/1/1 56/1/1
f 60/1/1 56/1/1 59/1/1
f 61/1/1 58/1/1 57/1/1
f 61/1/1 57/1/1 50/1/1
f 62/1/1 48/1/1 58/1/1
f 62/1/1 58/1/1 61/1/1
f 63/1/1 59/1/1 45/1/1
f 64/1/1 49/1/1 60/1/1
f 65/1/1 61/1/1 50/1/1
f 66/1/1 48/1/1 62/1/1
f 67/1/1 64/1/1 63/1/1
f 67/1/1 49/1/1 64/1/1
f 68/1/1 65/1/1 50/1/1
f 68/1/1 66/1/1 65/1/1
f 69/1/1 63/1/1 45/1/1
f 69/1/1 68/1/1 67/1/1
f 69/1/1 67/1/1 63/1/1
f 70/1/1 66/1/1 68/1/1
f 70/1/1 68/1/1 69/1/1
f 70/1/1 48/1/1 66/1/1
f 73/1/1 72/1/1 71/1/1
f 74/1/1 72/1/1 73/1/1
f 79/1/1 76/1/1 75/1/1
f 80/1/1 76/1/1 79/1/1
f 81/1/1 78/1/1 77/1/1
f 82/1/1 78/1/1 81/1/1
f 83/3/2 84/3/2 85/3/2
f 85/3/2 84/3/2 86/3/2
f 87/2/2 88/2/2 89/2/2
f 89/2/2 88/2/2 90/2/2
f 91/3/2 92/3/2 93/3/2
f 93/3/2 92/3/2 94/3/2
f 95/1/2 96/1/2 97/1/2
f 97/1/2 96/1/2 98/1/2
f 99/1/2 100/1/2 101/1/2
f 101/1/2 100/1/2 102/1/2
f 103/1/2 104/1/2 105/1/2
f 105/1/2 104/1/2 106/1/2
f 107/1/2 108/1/2 111/1/2
f 109/1/2 110/1/2 112/1/2
f 107/1/2 111/1/2 114/1/2
f 111/1/2 112/1/2 114/1/2
f 112/1/2 110/1/2 115/1/2
f 114/1/2 112/1/2 115/1/2
f 113/1/2 114/1/2 117/1/2
f 115/1/2 116/1/2 117/1/2
f 114/1/2 115/1/2 117/1/2
f 117/1/2 116/1/2 118/1/2
f 118/1/2 116/1/2 119/1/2
f 119/1/2 116/1/2 120/1/2
f 113/1/2 117/1/2 121/1/2
f 118/1/2 119/1/2 122/1/2
f 122/1/2 119/1/2 123/1/2
f 120/1/2 116/1/2 124/1/2
f 122/1/2 123/1/2 125/1/2
f 123/1/2 124/1/2 125/1/2
f 113/1/2 121/1/2 125/1/2
f 121/1/2 122/1/2 125/1/2
f 125/1/2 124/1/2 126/1/2
f 126/1/2 124/1/2 127/1/2
f 124/1/2 116/1/2 128/1/2
f 127/1/2 124/1/2 128/1/2
f 113/1/2 125/1/2 129/1/2
f 126/1/2 127/1/2 130/1/2
f 130/1/2 127/1/2 131/1/2
f 128/1/2 116/1/2 132/1/2
f 113/1/2 129/1/2 133/1/2
f 131/1/2 132/1/2 133/1/2
f 130/1/2 131/1/2 133/1/2
f 129/1/2 130/1/2 133/1/2
f 132/1/2 116/1/2 134/1/2
f 133/1/2 132/1/2 134/1/2
f 137/1/3 136/1/3 135/1/3
f 139/1/3 137/1/3 135/1/3
f 139/1/3 138/1/3 137/1/3
f 140/1/3 138/1/3 139/1/3
f 143/1/3 142/1/3 141/1/3
f 144/1/3 142/1/3 143/1/3
f 147/1/3 146/1/3 145/1/3
f 148/1/3 146/1/3 147/1/3
f 151/1/3 150/1/3 149/1/3
f 152/1/3 150/1/3 151/1/3
f 157/1/3 154/1/3 153/1/3
f 158/1/3 154/1/3 157/1/3
f 159/1/3 156/1/3 155/1/3
f 160/1/3 156/1/3 159/1/3
f 163/1/3 162/1/3 161/1/3
f 164/1/3 162/1/3 163/1/3
f 167/3/3 166/3/3 165/3/3
f 168/3/3 166/3/3 167/3/3
f 171/2/3 170/2/3 169/2/3
f 172/2/3 170/2/3 171/2/3
f 176/1/3 174/1/3 173/1/3
f 177/1/3 174/1/3 176/1/3
f 178/1/3 176/1/3 175/1/3
f 179/1/3 176/1/3 178/1/3
f 182/1/3 181/1/3 180/1/3
f 183/1/3 181/1/3 182/1/3
f 186/1/3 185/1/3 184/1/3
f 187/1/3 185/1/3 186/1/3
f 190/1/3 189/1/3 188/1/3
f 191/1/3 189/1/3 190/1/3
f 194/1/3 193/1/3 192/1/3
f 195/1/3 193/1/3 194/1/3
f 196/1/4 197/1/4 198/1/4
f 198/1/4 197/1/4 199/1/4
f 200/1/4 201/1/4 202/1/4
f 202/1/4 201/1/4 203/1/4
f 204/1/4 205/1/4 206/1/4
f 206/1/4 205/1/4 207/1/4
f 208/1/4 209/1/4 210/1/4
f 210/1/4 209/1/4 211/1/4
f 212/1/4 213/1/4 214/1/4
f 214/1/4 213/1/4 215/1/4
f 216/1/4 217/1/4 218/1/4
f 218/1/4 217/1/4 219/1/4
f 220/1/4 221/1/4 223/1/4
f 223/1/4 221/1/4 224/1/4
f 222/1/4 223/1/4 225/1/4
f 225/1/4 223/1/4 226/1/4
f 227/3/4 228/3/4 229/3/4
f 229/3/4 228/3/4 230/3/4
f 231/3/4 232/3/4 233/3/4
f 233/3/4 232/3/4 234/3/4
f 231/3/4 233/3/4 235/3/4
f 234/3/4 232/3/4 236/3/4
f 231/3/4 235/3/4 237/3/4
f 235/3/4 236/3/4 237/3/4
f 236/3/4 232/3/4 238/3/4
f 237/3/4 236/3/4 238/3/4
f 239/1/4 240/1/4 241/1/4
f 241/1/4 240/1/4 242/1/4
f 243/1/4 244/1/4 247/1/4
f 247/1/4 244/1/4 248/1/4
f 245/1/4 246/1/4 249/1/4
f 249/1/4 246/1/4 250/1/4
f 251/1/4 252/1/4 253/1/4
f 253/1/4 252/1/4 254/1/4
f 255/2/4 256/2/4 257/2/4
f 257/2/4 256/2/4 258/2/4
f 259/1/4 260/1/4 261/1/4
f 261/1/4 260/1/4 262/1/4
f 263/1/4 264/1/4 265/1/4
f 263/1/4 265/1/4 267/1/4
f 265/1/4 266/1/4 267/1/4
f 267/1/4 266/1/4 268/1/4
f 271/3/5 270/3/5 269/3/5
f 272/3/5 270/3/5 271/3/5
f 275/2/5 274/2/5 273/2/5
f 276/2/5 274/2/5 275/2/5
f 279/3/5 278/3/5 277/3/5
f 280/3/5 278/3/5 279/3/5
f 283/1/5 282/1/5 281/1/5
f 284/1/5 282/1/5 283/1/5
f 285/1/5 283/1/5 281/1/5
f 286/1/5 283/1/5 285/1/5
f 287/1/5 285/1/5 281/1/5
f 288/1/5 283/1/5 286/1/5
f 289/1/5 283/1/5 288/1/5
f 289/1/5 288/1/5 287/1/5
f 291/1/5 287/1/5 281/1/5
f 291/1/5 290/1/5 289/1/5
f 291/1/5 289/1/5 287/1/5
f 292/1/5 290/1/5 291/1/5
f 295/1/5 294/1/5 293/1/5
f 296/1/5 294/1/5 295/1/5
f 299/1/5 298/1/5 297/1/5
f 300/1/5 298/1/5 299/1/5
f 301/1/5 299/1/5 297/1/5
f 305/1/5 301/1/5 297/1/5
f 305/1/5 302/1/5 301/1/5
f 306/1/5 302/1/5 305/1/5
f 307/1/5 302/1/5 306/1/5
f 308/1/5 302/1/5 307/1/5
f 309/1/5 304/1/5 303/1/5
f 310/1/5 308/1/5 307/1/5
f 310/1/5 309/1/5 308/1/5
f 311/1/5 304/1/5 309/1/5
f 311/1/5 309/1/5 310/1/5
f 315/1/5 313/1/5 312/1/5
f 315/1/5 314/1/5 313/1/5
f 316/1/5 314/1/5 315/1/5
f 317/1/5 315/1/5 312/1/5
f 319/1/5 317/1/5 312/1/5
f 319/1/5 318/1/5 317/1/5
f 320/1/5 318/1/5 319/1/5
f 323/1/5 322/1/5 321/1/5
f 324/1/5 322/1/5 323/1/5
f 327/1/5 326/1/5 325/1/5
f 328/1/5 326/1/5 327/1/5
f 331/1/5 330/1/5 329/1/5
f 332/1/5 330/1/5 331/1/5
f 335/1/5 334/1/5 333/1/5
f 336/1/5 334/1/5 335/1/5
f 339/1/5 338/1/5 337/1/5
f 340/1/5 338/1/5 339/1/5
f 341/3/6 342/3/6 343/3/6
f 343/3/6 342/3/6 344/3/6
f 345/2/6 346/2/6 347/2/6
f 347/2/6 346/2/6 348/2/6
f 349/1/6 350/1/6 351/1/6
f 351/1/6 350/1/6 352/1/6
f 353/1/6 354/1/6 357/1/6
f 357/1/6 354/1/6 358/1/6
f 358/1/6 354/1/6 359/1/6
f 355/1/6 356/1/6 360/1/6
f 353/1/6 357/1/6 361/1/6
f 361/1/6 357/1/6 362/1/6
f 358/1/6 359/1/6 363/1/6
f 359/1/6 360/1/6 363/1/6
f 360/1/6 356/1/6 364/1/6
f 363/1/6 360/1/6 364/1/6
f 365/1/6 366/1/6 367/1/6
f 365/1/6 367/1/6 369/1/6
f 367/1/6 368/1/6 369/1/6
f 369/1/6 368/1/6 370/1/6
f 371/1/6 372/1/6 373/1/6
f 373/1/6 372/1/6 374/1/6
f 375/1/6 376/1/6 377/1/6
f 377/1/6 376/1/6 378/1/6
f 379/1/6 380/1/6 381/1/6
f 381/1/6 380/1/6 382/1/6
f 383/1/6 384/1/6 385/1/6
f 385/1/6 384/1/6 386/1/6
f 387/1/6 388/1/6 389/1/6
f 389/1/6 388/1/6 390/1/6
f 391/1/6 392/1/6 393/1/6
f 393/1/6 392/1/6 394/1/6
f 395/1/6 396/1/6 397/1/6
f 397/1/6 396/1/6 398/1/6
f 399/1/6 400/1/6 401/1/6
f 401/1/6 400/1/6 402/1/6
