# MagicaVoxel @ Ephtracy

# group
o 

# material
mtllib barreta.mtl
usemtl palette

# normals
vn -1 0 0
vn 1 0 0
vn 0 0 1
vn 0 0 -1
vn 0 -1 0
vn 0 1 0

# texcoords
vt 0.396484 0.5
vt 0.857422 0.5
vt 0.978516 0.5

# verts
v -0.8 0.2 0.3
v -0.8 0.2 0.2
v -0.8 0.2 -0.1
v -0.8 0.2 -0.2
v -0.8 0.3 0.3
v -0.8 0.3 0.2
v -0.8 0.3 -0.1
v -0.8 0.3 -0.2
v -0.7 0.2 0.2
v -0.7 0.2 0.1
v -0.7 0.2 0
v -0.7 0.2 -0.1
v -0.7 0.3 0.2
v -0.7 0.3 0.1
v -0.7 0.3 0
v -0.7 0.3 -0.1
v -0.6 0.2 0.1
v -0.6 0.2 0
v -0.6 0.3 0.1
v -0.6 0.3 0
v -5.96046e-08 0.1 0.2
v -5.96046e-08 0.1 -0.1
v -5.96046e-08 0.2 0.2
v -5.96046e-08 0.2 -0.1
v 0.5 0.2 0.2
v 0.5 0.2 -0.1
v 0.5 0.3 0.2
v 0.5 0.3 -0.1
v 0.6 0.3 0.2
v 0.6 0.3 -0.1
v 0.6 0.4 0.2
v 0.6 0.4 -0.1
v 0.7 0.4 0.2
v 0.7 0.4 -0.1
v 0.7 1.1 0.2
v 0.7 1.1 0.1
v 0.7 1.2 0.2
v 0.7 1.2 0.1
v 0.7 1.2 0
v 0.7 1.2 -0.1
v 0.7 1.3 0.2
v 0.7 1.3 0
v 0.7 1.4 0.1
v 0.7 1.4 -0.1
v 0.7 1.5 0.2
v 0.7 1.5 0.1
v 0.7 1.7 0.2
v 0.7 1.7 0.1
v 0.7 1.8 0.2
v 0.7 1.8 0.1
v 0.7 2.4 0.2
v 0.7 2.4 0.1
v 0.7 2.5 0.1
v 0.7 2.5 -0.1
v 0.7 2.6 0.2
v 0.7 2.6 -0.1
v 0.7 3 0.2
v 0.7 3 0.1
v 0.7 3.3 0.2
v 0.7 3.3 0.1
v 0.7 3.3 0
v 0.7 3.4 0
v 0.7 3.4 -0.1
v 0.7 3.5 0.1
v 0.7 3.5 0
v 0.7 3.6 0
v 0.7 3.6 -0.1
v 0.7 3.9 0.2
v 0.7 3.9 0.1
v 0.7 4 0.1
v 0.7 4 0
v 0.7 4.1 0.2
v 0.7 4.1 0.1
v 0.7 4.1 0
v 0.7 4.1 -0.1
v 0.7 4.2 0.1
v 0.7 4.2 0
v 0.7 4.3 0
v 0.7 4.3 -0.1
v 0.7 4.5 0.2
v 0.7 4.5 0.1
v 0.7 4.5 0
v 0.7 4.5 -0.1
v 0.7 4.7 0.1
v 0.7 4.7 0
v 0.7 4.8 0.1
v 0.7 4.8 0
v 0.8 4.5 0.2
v 0.8 4.5 0.1
v 0.8 4.5 0
v 0.8 4.5 -0.1
v 0.8 4.7 0.2
v 0.8 4.7 0.1
v 0.8 4.7 0
v 0.8 4.7 -0.1
v 0.8 4.8 0.2
v 0.8 4.8 0.1
v 0.8 4.8 0
v 0.8 4.8 -0.1
v 0.8 5 0.1
v 0.8 5 0
v -0.4 0.2 0.3
v -0.4 0.2 0.2
v -0.4 0.2 -0.1
v -0.4 0.2 -0.2
v -0.4 0.3 0.3
v -0.4 0.3 0.2
v -0.4 0.3 -0.1
v -0.4 0.3 -0.2
v 0.0999999 0.2 0.2
v 0.0999999 0.2 -0.1
v 0.0999999 0.3 0.2
v 0.0999999 0.3 -0.1
v 0.7 0.1 0.2
v 0.7 0.1 -0.1
v 0.7 0.2 0.2
v 0.7 0.2 -0.1
v 0.8 0.2 0.2
v 0.8 0.2 -0.1
v 0.8 0.3 0.2
v 0.8 0.3 -0.1
v 0.9 0.3 0.2
v 0.9 0.3 -0.1
v 0.9 0.4 0.2
v 0.9 0.4 -0.1
v 0.9 4.5 0.2
v 0.9 4.5 0.1
v 0.9 4.5 0
v 0.9 4.5 -0.1
v 0.9 4.7 0.2
v 0.9 4.7 0.1
v 0.9 4.7 0
v 0.9 4.7 -0.1
v 0.9 4.8 0.2
v 0.9 4.8 0.1
v 0.9 4.8 0
v 0.9 4.8 -0.1
v 0.9 5 0.1
v 0.9 5 0
v 1 0.4 0.2
v 1 0.4 -0.1
v 1 0.9 0.2
v 1 0.9 0.1
v 1 1 0.1
v 1 1 -0.1
v 1 1.1 0.2
v 1 1.1 0
v 1 1.2 0
v 1 1.2 -0.1
v 1 1.4 0.2
v 1 1.4 0.1
v 1 1.5 0.2
v 1 1.5 0.1
v 1 1.8 0.2
v 1 1.8 0.1
v 1 2 0.1
v 1 2 0
v 1 2.1 0.2
v 1 2.1 0.1
v 1 2.1 0
v 1 2.1 -0.1
v 1 2.2 0.2
v 1 2.2 0.1
v 1 2.2 0
v 1 2.3 0.2
v 1 2.3 0.1
v 1 2.3 0
v 1 2.3 -0.1
v 1 2.7 0.2
v 1 2.7 0.1
v 1 3 0.1
v 1 3 0
v 1 3.1 0.2
v 1 3.1 0
v 1 3.1 -0.1
v 1 3.3 0
v 1 3.3 -0.1
v 1 3.8 0.2
v 1 3.8 0.1
v 1 3.9 0.2
v 1 3.9 0.1
v 1 4 0.2
v 1 4 0
v 1 4.1 0.2
v 1 4.1 0
v 1 4.1 -0.1
v 1 4.2 0
v 1 4.2 -0.1
v 1 4.5 0.2
v 1 4.5 0.1
v 1 4.5 0
v 1 4.5 -0.1
v 1 4.7 0.1
v 1 4.7 0
v 1 4.8 0.1
v 1 4.8 0
v -0.8 0.2 0.3
v -0.8 0.3 0.3
v -0.4 0.2 0.3
v -0.4 0.3 0.3
v -0.4 0.2 0.2
v -0.4 0.3 0.2
v -5.96046e-08 0.1 0.2
v -5.96046e-08 0.2 0.2
v 0.0999999 0.2 0.2
v 0.0999999 0.3 0.2
v 0.5 0.2 0.2
v 0.5 0.3 0.2
v 0.6 0.3 0.2
v 0.6 0.4 0.2
v 0.7 0.1 0.2
v 0.7 0.2 0.2
v 0.7 0.4 0.2
v 0.7 1.1 0.2
v 0.7 1.2 0.2
v 0.7 1.3 0.2
v 0.7 1.5 0.2
v 0.7 1.7 0.2
v 0.7 1.8 0.2
v 0.7 2.4 0.2
v 0.7 2.6 0.2
v 0.7 3 0.2
v 0.7 3.3 0.2
v 0.7 3.9 0.2
v 0.7 4.1 0.2
v 0.7 4.5 0.2
v 0.8 0.2 0.2
v 0.8 0.3 0.2
v 0.8 1 0.2
v 0.8 1.1 0.2
v 0.8 1.3 0.2
v 0.8 1.4 0.2
v 0.8 1.7 0.2
v 0.8 1.8 0.2
v 0.8 1.9 0.2
v 0.8 2.2 0.2
v 0.8 2.4 0.2
v 0.8 2.6 0.2
v 0.8 2.9 0.2
v 0.8 3 0.2
v 0.8 3.1 0.2
v 0.8 3.3 0.2
v 0.8 4 0.2
v 0.8 4.1 0.2
v 0.8 4.5 0.2
v 0.8 4.7 0.2
v 0.8 4.8 0.2
v 0.9 0.3 0.2
v 0.9 0.4 0.2
v 0.9 0.9 0.2
v 0.9 1 0.2
v 0.9 1.1 0.2
v 0.9 1.2 0.2
v 0.9 1.9 0.2
v 0.9 2.1 0.2
v 0.9 2.3 0.2
v 0.9 2.4 0.2
v 0.9 2.7 0.2
v 0.9 2.9 0.2
v 0.9 3.8 0.2
v 0.9 3.9 0.2
v 0.9 4 0.2
v 0.9 4.1 0.2
v 0.9 4.5 0.2
v 0.9 4.7 0.2
v 0.9 4.8 0.2
v 1 0.4 0.2
v 1 0.9 0.2
v 1 1.1 0.2
v 1 1.4 0.2
v 1 1.5 0.2
v 1 1.8 0.2
v 1 2.1 0.2
v 1 2.2 0.2
v 1 2.3 0.2
v 1 2.7 0.2
v 1 3.1 0.2
v 1 3.8 0.2
v 1 3.9 0.2
v 1 4 0.2
v 1 4.1 0.2
v 1 4.5 0.2
v 0.7 4.5 0.1
v 0.7 4.7 0.1
v 0.7 4.8 0.1
v 0.8 4.5 0.1
v 0.8 4.7 0.1
v 0.8 4.8 0.1
v 0.8 5 0.1
v 0.9 4.5 0.1
v 0.9 4.7 0.1
v 0.9 4.8 0.1
v 0.9 5 0.1
v 1 4.5 0.1
v 1 4.7 0.1
v 1 4.8 0.1
v -0.7 0.2 0
v -0.7 0.3 0
v -0.6 0.2 0
v -0.6 0.3 0
v -0.8 0.2 -0.1
v -0.8 0.3 -0.1
v -0.7 0.2 -0.1
v -0.7 0.3 -0.1
v -0.8 0.2 0.2
v -0.8 0.3 0.2
v -0.7 0.2 0.2
v -0.7 0.3 0.2
v -0.7 0.2 0.1
v -0.7 0.3 0.1
v -0.6 0.2 0.1
v -0.6 0.3 0.1
v 0.7 4.5 0
v 0.7 4.7 0
v 0.7 4.8 0
v 0.8 4.5 0
v 0.8 4.7 0
v 0.8 4.8 0
v 0.8 5 0
v 0.9 4.5 0
v 0.9 4.7 0
v 0.9 4.8 0
v 0.9 5 0
v 1 4.5 0
v 1 4.7 0
v 1 4.8 0
v -0.4 0.2 -0.1
v -0.4 0.3 -0.1
v -5.96046e-08 0.1 -0.1
v -5.96046e-08 0.2 -0.1
v 0.0999999 0.2 -0.1
v 0.0999999 0.3 -0.1
v 0.5 0.2 -0.1
v 0.5 0.3 -0.1
v 0.6 0.3 -0.1
v 0.6 0.4 -0.1
v 0.7 0.1 -0.1
v 0.7 0.2 -0.1
v 0.7 0.4 -0.1
v 0.7 1.2 -0.1
v 0.7 1.4 -0.1
v 0.7 2.5 -0.1
v 0.7 2.6 -0.1
v 0.7 3.4 -0.1
v 0.7 3.6 -0.1
v 0.7 4.1 -0.1
v 0.7 4.3 -0.1
v 0.7 4.5 -0.1
v 0.8 0.2 -0.1
v 0.8 0.3 -0.1
v 0.8 1.3 -0.1
v 0.8 1.4 -0.1
v 0.8 2.3 -0.1
v 0.8 2.5 -0.1
v 0.8 2.6 -0.1
v 0.8 3.3 -0.1
v 0.8 3.4 -0.1
v 0.8 3.6 -0.1
v 0.8 4.1 -0.1
v 0.8 4.2 -0.1
v 0.8 4.5 -0.1
v 0.8 4.7 -0.1
v 0.8 4.8 -0.1
v 0.9 0.3 -0.1
v 0.9 0.4 -0.1
v 0.9 1 -0.1
v 0.9 1.2 -0.1
v 0.9 1.3 -0.1
v 0.9 2.1 -0.1
v 0.9 2.3 -0.1
v 0.9 2.5 -0.1
v 0.9 3.1 -0.1
v 0.9 3.3 -0.1
v 0.9 3.4 -0.1
v 0.9 4.1 -0.1
v 0.9 4.2 -0.1
v 0.9 4.3 -0.1
v 0.9 4.5 -0.1
v 0.9 4.7 -0.1
v 0.9 4.8 -0.1
v 1 0.4 -0.1
v 1 1 -0.1
v 1 1.2 -0.1
v 1 2.1 -0.1
v 1 2.3 -0.1
v 1 3.1 -0.1
v 1 3.3 -0.1
v 1 4.1 -0.1
v 1 4.2 -0.1
v 1 4.5 -0.1
v -0.8 0.2 -0.2
v -0.8 0.3 -0.2
v -0.4 0.2 -0.2
v -0.4 0.3 -0.2
v -5.96046e-08 0.1 0.2
v 0.7 0.1 0.2
v -5.96046e-08 0.1 -0.1
v 0.7 0.1 -0.1
v -0.8 0.2 0.3
v -0.4 0.2 0.3
v -0.8 0.2 0.2
v -0.7 0.2 0.2
v -0.4 0.2 0.2
v -5.96046e-08 0.2 0.2
v 0.7 0.2 0.2
v 0.8 0.2 0.2
v -0.7 0.2 0.1
v -0.6 0.2 0.1
v -0.4 0.2 0.1
v -0.1 0.2 0.1
v -0.7 0.2 0
v -0.6 0.2 0
v -0.4 0.2 0
v -0.1 0.2 0
v -0.8 0.2 -0.1
v -0.7 0.2 -0.1
v -0.4 0.2 -0.1
v -5.96046e-08 0.2 -0.1
v 0.7 0.2 -0.1
v 0.8 0.2 -0.1
v -0.8 0.2 -0.2
v -0.4 0.2 -0.2
v 0.8 0.3 0.2
v 0.9 0.3 0.2
v 0.8 0.3 -0.1
v 0.9 0.3 -0.1
v 0.9 0.4 0.2
v 1 0.4 0.2
v 0.9 0.4 -0.1
v 1 0.4 -0.1
v 0.0999999 0.2 0.2
v 0.5 0.2 0.2
v 0.0999999 0.2 -0.1
v 0.5 0.2 -0.1
v -0.8 0.3 0.3
v -0.4 0.3 0.3
v -0.8 0.3 0.2
v -0.7 0.3 0.2
v -0.4 0.3 0.2
v 0.0999999 0.3 0.2
v 0.5 0.3 0.2
v 0.6 0.3 0.2
v -0.7 0.3 0.1
v -0.6 0.3 0.1
v -0.4 0.3 0.1
v -0.1 0.3 0.1
v -0.7 0.3 0
v -0.6 0.3 0
v -0.4 0.3 0
v -0.1 0.3 0
v -0.8 0.3 -0.1
v -0.7 0.3 -0.1
v -0.4 0.3 -0.1
v 0.0999999 0.3 -0.1
v 0.5 0.3 -0.1
v 0.6 0.3 -0.1
v -0.8 0.3 -0.2
v -0.4 0.3 -0.2
v 0.6 0.4 0.2
v 0.7 0.4 0.2
v 0.6 0.4 -0.1
v 0.7 0.4 -0.1
v 0.7 4.5 0.2
v 0.8 4.5 0.2
v 0.9 4.5 0.2
v 1 4.5 0.2
v 0.7 4.5 0.1
v 0.8 4.5 0.1
v 0.9 4.5 0.1
v 1 4.5 0.1
v 0.7 4.5 0
v 0.8 4.5 0
v 0.9 4.5 0
v 1 4.5 0
v 0.7 4.5 -0.1
v 0.8 4.5 -0.1
v 0.9 4.5 -0.1
v 1 4.5 -0.1
v 0.8 4.8 0.2
v 0.9 4.8 0.2
v 0.7 4.8 0.1
v 0.8 4.8 0.1
v 0.9 4.8 0.1
v 1 4.8 0.1
v 0.7 4.8 0
v 0.8 4.8 0
v 0.9 4.8 0
v 1 4.8 0
v 0.8 4.8 -0.1
v 0.9 4.8 -0.1
v 0.8 5 0.1
v 0.9 5 0.1
v 0.8 5 0
v 0.9 5 0

# faces
f 5/3/1 2/3/1 1/3/1
f 6/3/1 2/3/1 5/3/1
f 7/3/1 4/3/1 3/3/1
f 8/3/1 4/3/1 7/3/1
f 13/3/1 10/3/1 9/3/1
f 14/3/1 10/3/1 13/3/1
f 15/3/1 12/3/1 11/3/1
f 16/3/1 12/3/1 15/3/1
f 19/3/1 18/3/1 17/3/1
f 20/3/1 18/3/1 19/3/1
f 23/1/1 22/1/1 21/1/1
f 24/1/1 22/1/1 23/1/1
f 27/1/1 26/1/1 25/1/1
f 28/1/1 26/1/1 27/1/1
f 31/1/1 30/1/1 29/1/1
f 32/1/1 30/1/1 31/1/1
f 35/1/1 34/1/1 33/1/1
f 36/1/1 34/1/1 35/1/1
f 37/2/1 36/2/1 35/2/1
f 38/1/1 34/1/1 36/1/1
f 38/2/1 36/2/1 37/2/1
f 39/1/1 34/1/1 38/1/1
f 40/1/1 34/1/1 39/1/1
f 41/1/1 38/1/1 37/1/1
f 41/1/1 39/1/1 38/1/1
f 42/2/1 40/2/1 39/2/1
f 42/1/1 39/1/1 41/1/1
f 43/2/1 42/2/1 41/2/1
f 44/2/1 40/2/1 42/2/1
f 44/2/1 42/2/1 43/2/1
f 45/2/1 43/2/1 41/2/1
f 46/1/1 44/1/1 43/1/1
f 46/2/1 43/2/1 45/2/1
f 47/1/1 46/1/1 45/1/1
f 48/1/1 44/1/1 46/1/1
f 48/1/1 46/1/1 47/1/1
f 49/2/1 48/2/1 47/2/1
f 50/1/1 44/1/1 48/1/1
f 50/2/1 48/2/1 49/2/1
f 51/1/1 50/1/1 49/1/1
f 52/1/1 44/1/1 50/1/1
f 52/1/1 50/1/1 51/1/1
f 53/2/1 52/2/1 51/2/1
f 53/1/1 44/1/1 52/1/1
f 54/1/1 44/1/1 53/1/1
f 55/2/1 53/2/1 51/2/1
f 55/2/1 54/2/1 53/2/1
f 56/2/1 54/2/1 55/2/1
f 57/1/1 56/1/1 55/1/1
f 58/1/1 56/1/1 57/1/1
f 59/2/1 58/2/1 57/2/1
f 60/1/1 56/1/1 58/1/1
f 60/2/1 58/2/1 59/2/1
f 61/1/1 56/1/1 60/1/1
f 62/2/1 61/2/1 60/2/1
f 62/1/1 56/1/1 61/1/1
f 63/1/1 56/1/1 62/1/1
f 64/1/1 60/1/1 59/1/1
f 64/2/1 62/2/1 60/2/1
f 64/2/1 63/2/1 62/2/1
f 65/2/1 63/2/1 64/2/1
f 66/1/1 65/1/1 64/1/1
f 66/2/1 63/2/1 65/2/1
f 67/2/1 63/2/1 66/2/1
f 68/1/1 64/1/1 59/1/1
f 68/1/1 66/1/1 64/1/1
f 68/1/1 67/1/1 66/1/1
f 69/1/1 67/1/1 68/1/1
f 70/2/1 69/2/1 68/2/1
f 70/1/1 67/1/1 69/1/1
f 71/1/1 67/1/1 70/1/1
f 72/2/1 70/2/1 68/2/1
f 72/2/1 71/2/1 70/2/1
f 73/2/1 71/2/1 72/2/1
f 74/1/1 67/1/1 71/1/1
f 74/2/1 71/2/1 73/2/1
f 75/1/1 67/1/1 74/1/1
f 76/1/1 73/1/1 72/1/1
f 76/2/1 74/2/1 73/2/1
f 76/2/1 75/2/1 74/2/1
f 77/2/1 75/2/1 76/2/1
f 78/1/1 77/1/1 76/1/1
f 78/2/1 75/2/1 77/2/1
f 79/2/1 75/2/1 78/2/1
f 80/1/1 76/1/1 72/1/1
f 80/1/1 78/1/1 76/1/1
f 80/1/1 79/1/1 78/1/1
f 81/1/1 79/1/1 80/1/1
f 82/1/1 79/1/1 81/1/1
f 83/1/1 79/1/1 82/1/1
f 84/1/1 82/1/1 81/1/1
f 85/1/1 82/1/1 84/1/1
f 86/2/1 85/2/1 84/2/1
f 87/2/1 85/2/1 86/2/1
f 92/1/1 89/1/1 88/1/1
f 93/1/1 89/1/1 92/1/1
f 94/1/1 91/1/1 90/1/1
f 95/1/1 91/1/1 94/1/1
f 96/2/1 93/2/1 92/2/1
f 97/2/1 93/2/1 96/2/1
f 98/2/1 95/2/1 94/2/1
f 99/2/1 95/2/1 98/2/1
f 100/2/1 98/2/1 97/2/1
f 101/2/1 98/2/1 100/2/1
f 102/3/2 103/3/2 106/3/2
f 106/3/2 103/3/2 107/3/2
f 104/3/2 105/3/2 108/3/2
f 108/3/2 105/3/2 109/3/2
f 110/1/2 111/1/2 112/1/2
f 112/1/2 111/1/2 113/1/2
f 114/1/2 115/1/2 116/1/2
f 116/1/2 115/1/2 117/1/2
f 118/1/2 119/1/2 120/1/2
f 120/1/2 119/1/2 121/1/2
f 122/1/2 123/1/2 124/1/2
f 124/1/2 123/1/2 125/1/2
f 126/1/2 127/1/2 130/1/2
f 130/1/2 127/1/2 131/1/2
f 128/1/2 129/1/2 132/1/2
f 132/1/2 129/1/2 133/1/2
f 130/2/2 131/2/2 134/2/2
f 134/2/2 131/2/2 135/2/2
f 132/2/2 133/2/2 136/2/2
f 136/2/2 133/2/2 137/2/2
f 135/2/2 136/2/2 138/2/2
f 138/2/2 136/2/2 139/2/2
f 140/1/2 141/1/2 142/1/2
f 142/1/2 141/1/2 143/1/2
f 142/2/2 143/2/2 144/2/2
f 143/1/2 141/1/2 144/1/2
f 144/1/2 141/1/2 145/1/2
f 142/2/2 144/2/2 146/2/2
f 144/2/2 145/2/2 146/2/2
f 146/2/2 145/2/2 147/2/2
f 146/1/2 147/1/2 148/1/2
f 147/2/2 145/2/2 148/2/2
f 148/2/2 145/2/2 149/2/2
f 146/1/2 148/1/2 150/1/2
f 148/1/2 149/1/2 150/1/2
f 150/1/2 149/1/2 151/1/2
f 150/2/2 151/2/2 152/2/2
f 151/1/2 149/1/2 153/1/2
f 152/2/2 151/2/2 153/2/2
f 152/1/2 153/1/2 154/1/2
f 153/1/2 149/1/2 155/1/2
f 154/1/2 153/1/2 155/1/2
f 154/2/2 155/2/2 156/2/2
f 155/1/2 149/1/2 156/1/2
f 156/1/2 149/1/2 157/1/2
f 154/2/2 156/2/2 158/2/2
f 156/2/2 157/2/2 158/2/2
f 158/2/2 157/2/2 159/2/2
f 157/1/2 149/1/2 160/1/2
f 159/2/2 157/2/2 160/2/2
f 160/1/2 149/1/2 161/1/2
f 158/1/2 159/1/2 162/1/2
f 159/2/2 160/2/2 163/2/2
f 162/1/2 159/1/2 163/1/2
f 160/2/2 161/2/2 163/2/2
f 163/2/2 161/2/2 164/2/2
f 162/2/2 163/2/2 165/2/2
f 163/1/2 164/1/2 166/1/2
f 165/2/2 163/2/2 166/2/2
f 164/2/2 161/2/2 167/2/2
f 166/1/2 164/1/2 167/1/2
f 167/2/2 161/2/2 168/2/2
f 165/1/2 166/1/2 169/1/2
f 166/1/2 167/1/2 169/1/2
f 167/1/2 168/1/2 169/1/2
f 169/1/2 168/1/2 170/1/2
f 169/2/2 170/2/2 171/2/2
f 170/1/2 168/1/2 171/1/2
f 171/1/2 168/1/2 172/1/2
f 169/2/2 171/2/2 173/2/2
f 171/2/2 172/2/2 173/2/2
f 172/1/2 168/1/2 174/1/2
f 173/2/2 172/2/2 174/2/2
f 174/1/2 168/1/2 175/1/2
f 173/1/2 174/1/2 176/1/2
f 174/2/2 175/2/2 176/2/2
f 176/2/2 175/2/2 177/2/2
f 173/1/2 176/1/2 178/1/2
f 176/1/2 177/1/2 178/1/2
f 178/1/2 177/1/2 179/1/2
f 178/2/2 179/2/2 180/2/2
f 179/1/2 177/1/2 181/1/2
f 180/2/2 179/2/2 181/2/2
f 180/1/2 181/1/2 182/1/2
f 181/1/2 177/1/2 183/1/2
f 182/1/2 181/1/2 183/1/2
f 182/2/2 183/2/2 184/2/2
f 183/1/2 177/1/2 185/1/2
f 184/2/2 183/2/2 185/2/2
f 185/1/2 177/1/2 186/1/2
f 184/1/2 185/1/2 187/1/2
f 185/2/2 186/2/2 187/2/2
f 187/2/2 186/2/2 188/2/2
f 184/1/2 187/1/2 189/1/2
f 187/1/2 188/1/2 189/1/2
f 189/1/2 188/1/2 190/1/2
f 190/1/2 188/1/2 191/1/2
f 191/1/2 188/1/2 192/1/2
f 190/1/2 191/1/2 193/1/2
f 193/1/2 191/1/2 194/1/2
f 193/2/2 194/2/2 195/2/2
f 195/2/2 194/2/2 196/2/2
f 199/3/3 198/3/3 197/3/3
f 200/3/3 198/3/3 199/3/3
f 204/1/3 202/1/3 201/1/3
f 205/1/3 202/1/3 204/1/3
f 205/1/3 204/1/3 203/1/3
f 206/1/3 202/1/3 205/1/3
f 207/1/3 205/1/3 203/1/3
f 209/1/3 208/1/3 207/1/3
f 211/1/3 209/1/3 207/1/3
f 211/1/3 210/1/3 209/1/3
f 211/1/3 207/1/3 203/1/3
f 212/1/3 210/1/3 211/1/3
f 213/1/3 210/1/3 212/1/3
f 227/1/3 213/1/3 212/1/3
f 227/1/3 214/1/3 213/1/3
f 228/1/3 214/1/3 227/1/3
f 229/1/3 214/1/3 228/1/3
f 230/2/3 215/2/3 214/2/3
f 230/1/3 214/1/3 229/1/3
f 231/1/3 216/1/3 215/1/3
f 231/2/3 217/2/3 216/2/3
f 232/2/3 217/2/3 231/2/3
f 233/1/3 218/1/3 217/1/3
f 233/2/3 219/2/3 218/2/3
f 234/1/3 220/1/3 219/1/3
f 234/2/3 219/2/3 233/2/3
f 235/1/3 220/1/3 234/1/3
f 236/1/3 220/1/3 235/1/3
f 237/2/3 221/2/3 220/2/3
f 237/1/3 220/1/3 236/1/3
f 238/1/3 222/1/3 221/1/3
f 238/2/3 221/2/3 237/2/3
f 239/1/3 222/1/3 238/1/3
f 240/2/3 223/2/3 222/2/3
f 240/1/3 222/1/3 239/1/3
f 241/2/3 223/2/3 240/2/3
f 242/1/3 224/1/3 223/1/3
f 242/2/3 223/2/3 241/2/3
f 243/2/3 225/2/3 224/2/3
f 244/1/3 226/1/3 225/1/3
f 244/2/3 225/2/3 243/2/3
f 245/1/3 226/1/3 244/1/3
f 248/1/3 229/1/3 228/1/3
f 249/1/3 229/1/3 248/1/3
f 250/1/3 229/1/3 249/1/3
f 251/2/3 230/2/3 229/2/3
f 251/1/3 229/1/3 250/1/3
f 252/2/3 215/2/3 230/2/3
f 252/2/3 230/2/3 251/2/3
f 253/1/3 232/1/3 231/1/3
f 253/2/3 215/2/3 252/2/3
f 253/1/3 231/1/3 215/1/3
f 254/1/3 236/1/3 235/1/3
f 254/2/3 235/2/3 234/2/3
f 255/1/3 236/1/3 254/1/3
f 256/2/3 237/2/3 236/2/3
f 257/1/3 239/1/3 238/1/3
f 257/2/3 237/2/3 256/2/3
f 257/1/3 238/1/3 237/1/3
f 258/1/3 239/1/3 257/1/3
f 259/2/3 241/2/3 240/2/3
f 259/1/3 239/1/3 258/1/3
f 259/2/3 240/2/3 239/2/3
f 260/1/3 224/1/3 242/1/3
f 260/1/3 242/1/3 241/1/3
f 261/2/3 243/2/3 224/2/3
f 261/1/3 224/1/3 260/1/3
f 262/1/3 246/1/3 245/1/3
f 262/2/3 243/2/3 261/2/3
f 262/1/3 244/1/3 243/1/3
f 262/1/3 245/1/3 244/1/3
f 263/1/3 246/1/3 262/1/3
f 264/1/3 246/1/3 263/1/3
f 265/2/3 247/2/3 246/2/3
f 265/1/3 246/1/3 264/1/3
f 266/2/3 247/2/3 265/2/3
f 267/1/3 250/1/3 249/1/3
f 268/2/3 251/2/3 250/2/3
f 268/1/3 250/1/3 267/1/3
f 268/2/3 252/2/3 251/2/3
f 269/1/3 253/1/3 252/1/3
f 269/2/3 252/2/3 268/2/3
f 270/2/3 217/2/3 232/2/3
f 270/1/3 253/1/3 269/1/3
f 270/1/3 232/1/3 253/1/3
f 271/1/3 233/1/3 217/1/3
f 271/2/3 217/2/3 270/2/3
f 271/1/3 234/1/3 233/1/3
f 272/2/3 254/2/3 234/2/3
f 272/1/3 234/1/3 271/1/3
f 272/2/3 255/2/3 254/2/3
f 273/1/3 236/1/3 255/1/3
f 273/2/3 255/2/3 272/2/3
f 274/2/3 256/2/3 236/2/3
f 274/1/3 236/1/3 273/1/3
f 275/1/3 258/1/3 257/1/3
f 275/2/3 256/2/3 274/2/3
f 275/1/3 257/1/3 256/1/3
f 276/2/3 259/2/3 258/2/3
f 276/1/3 258/1/3 275/1/3
f 277/1/3 260/1/3 241/1/3
f 277/2/3 259/2/3 276/2/3
f 277/2/3 241/2/3 259/2/3
f 278/2/3 261/2/3 260/2/3
f 278/1/3 260/1/3 277/1/3
f 279/1/3 262/1/3 261/1/3
f 279/2/3 261/2/3 278/2/3
f 280/2/3 263/2/3 262/2/3
f 280/1/3 262/1/3 279/1/3
f 281/1/3 264/1/3 263/1/3
f 281/2/3 263/2/3 280/2/3
f 282/1/3 264/1/3 281/1/3
f 286/1/3 284/1/3 283/1/3
f 287/2/3 285/2/3 284/2/3
f 287/1/3 284/1/3 286/1/3
f 288/2/3 285/2/3 287/2/3
f 292/2/3 289/2/3 288/2/3
f 293/2/3 289/2/3 292/2/3
f 294/1/3 291/1/3 290/1/3
f 295/2/3 292/2/3 291/2/3
f 295/1/3 291/1/3 294/1/3
f 296/2/3 292/2/3 295/2/3
f 299/3/3 298/3/3 297/3/3
f 300/3/3 298/3/3 299/3/3
f 303/3/3 302/3/3 301/3/3
f 304/3/3 302/3/3 303/3/3
f 305/3/4 306/3/4 307/3/4
f 307/3/4 306/3/4 308/3/4
f 309/3/4 310/3/4 311/3/4
f 311/3/4 310/3/4 312/3/4
f 313/1/4 314/1/4 316/1/4
f 314/2/4 315/2/4 317/2/4
f 316/1/4 314/1/4 317/1/4
f 317/2/4 315/2/4 318/2/4
f 318/2/4 319/2/4 322/2/4
f 322/2/4 319/2/4 323/2/4
f 320/1/4 321/1/4 324/1/4
f 321/2/4 322/2/4 325/2/4
f 324/1/4 321/1/4 325/1/4
f 325/2/4 322/2/4 326/2/4
f 327/1/4 328/1/4 330/1/4
f 330/1/4 328/1/4 331/1/4
f 329/1/4 330/1/4 331/1/4
f 331/1/4 328/1/4 332/1/4
f 329/1/4 331/1/4 333/1/4
f 333/1/4 334/1/4 335/1/4
f 333/1/4 335/1/4 337/1/4
f 335/1/4 336/1/4 337/1/4
f 329/1/4 333/1/4 337/1/4
f 337/1/4 336/1/4 338/1/4
f 338/1/4 336/1/4 339/1/4
f 338/1/4 339/1/4 349/1/4
f 339/1/4 340/1/4 349/1/4
f 349/1/4 340/1/4 350/1/4
f 340/2/4 341/2/4 351/2/4
f 341/1/4 342/1/4 352/1/4
f 351/2/4 341/2/4 352/2/4
f 352/1/4 342/1/4 353/1/4
f 342/2/4 343/2/4 354/2/4
f 353/1/4 342/1/4 354/1/4
f 343/1/4 344/1/4 355/1/4
f 354/2/4 343/2/4 355/2/4
f 355/1/4 344/1/4 356/1/4
f 344/2/4 345/2/4 357/2/4
f 356/1/4 344/1/4 357/1/4
f 345/1/4 346/1/4 358/1/4
f 357/2/4 345/2/4 358/2/4
f 346/2/4 347/2/4 359/2/4
f 358/1/4 346/1/4 359/1/4
f 359/2/4 347/2/4 360/2/4
f 347/1/4 348/1/4 361/1/4
f 350/1/4 340/1/4 364/1/4
f 364/1/4 340/1/4 365/1/4
f 365/1/4 340/1/4 366/1/4
f 340/2/4 351/2/4 367/2/4
f 366/1/4 340/1/4 367/1/4
f 352/1/4 353/1/4 368/1/4
f 367/2/4 351/2/4 368/2/4
f 351/1/4 352/1/4 368/1/4
f 368/1/4 353/1/4 369/1/4
f 353/2/4 354/2/4 370/2/4
f 369/1/4 353/1/4 370/1/4
f 355/1/4 356/1/4 371/1/4
f 370/2/4 354/2/4 371/2/4
f 354/1/4 355/1/4 371/1/4
f 371/1/4 356/1/4 372/1/4
f 356/2/4 357/2/4 373/2/4
f 372/1/4 356/1/4 373/1/4
f 357/1/4 358/1/4 374/1/4
f 373/2/4 357/2/4 374/2/4
f 358/1/4 359/1/4 374/1/4
f 359/1/4 360/1/4 374/1/4
f 374/1/4 360/1/4 375/1/4
f 360/2/4 347/2/4 376/2/4
f 375/1/4 360/1/4 376/1/4
f 361/1/4 362/1/4 377/1/4
f 376/2/4 347/2/4 377/2/4
f 347/1/4 361/1/4 377/1/4
f 377/1/4 362/1/4 378/1/4
f 362/2/4 363/2/4 379/2/4
f 378/1/4 362/1/4 379/1/4
f 379/2/4 363/2/4 380/2/4
f 365/1/4 366/1/4 381/1/4
f 366/2/4 367/2/4 382/2/4
f 381/1/4 366/1/4 382/1/4
f 368/1/4 369/1/4 383/1/4
f 382/2/4 367/2/4 383/2/4
f 367/1/4 368/1/4 383/1/4
f 369/2/4 370/2/4 384/2/4
f 383/1/4 369/1/4 384/1/4
f 371/1/4 372/1/4 385/1/4
f 384/2/4 370/2/4 385/2/4
f 370/1/4 371/1/4 385/1/4
f 372/2/4 373/2/4 386/2/4
f 385/1/4 372/1/4 386/1/4
f 374/1/4 375/1/4 387/1/4
f 386/2/4 373/2/4 387/2/4
f 373/1/4 374/1/4 387/1/4
f 375/2/4 376/2/4 388/2/4
f 387/1/4 375/1/4 388/1/4
f 377/1/4 378/1/4 389/1/4
f 388/2/4 376/2/4 389/2/4
f 376/1/4 377/1/4 389/1/4
f 389/1/4 378/1/4 390/1/4
f 391/3/4 392/3/4 393/3/4
f 393/3/4 392/3/4 394/3/4
f 397/1/5 396/1/5 395/1/5
f 398/1/5 396/1/5 397/1/5
f 401/3/5 400/3/5 399/3/5
f 402/3/5 400/3/5 401/3/5
f 403/3/5 400/3/5 402/3/5
f 407/3/5 403/3/5 402/3/5
f 408/3/5 403/3/5 407/3/5
f 409/1/5 404/1/5 403/1/5
f 409/3/5 403/3/5 408/3/5
f 410/1/5 404/1/5 409/1/5
f 412/3/5 409/3/5 408/3/5
f 412/3/5 410/3/5 409/3/5
f 413/3/5 410/3/5 412/3/5
f 414/1/5 404/1/5 410/1/5
f 414/3/5 410/3/5 413/3/5
f 416/3/5 413/3/5 412/3/5
f 416/3/5 412/3/5 411/3/5
f 417/1/5 414/1/5 413/1/5
f 417/3/5 413/3/5 416/3/5
f 418/1/5 404/1/5 414/1/5
f 418/1/5 414/1/5 417/1/5
f 419/1/5 406/1/5 405/1/5
f 420/1/5 406/1/5 419/1/5
f 421/3/5 417/3/5 416/3/5
f 421/3/5 416/3/5 415/3/5
f 422/3/5 417/3/5 421/3/5
f 425/1/5 424/1/5 423/1/5
f 426/1/5 424/1/5 425/1/5
f 429/1/5 428/1/5 427/1/5
f 430/1/5 428/1/5 429/1/5
f 431/1/6 432/1/6 433/1/6
f 433/1/6 432/1/6 434/1/6
f 435/3/6 436/3/6 437/3/6
f 437/3/6 436/3/6 438/3/6
f 438/3/6 436/3/6 439/3/6
f 438/3/6 439/3/6 443/3/6
f 443/3/6 439/3/6 444/3/6
f 439/1/6 440/1/6 445/1/6
f 444/3/6 439/3/6 445/3/6
f 445/1/6 440/1/6 446/1/6
f 444/3/6 445/3/6 448/3/6
f 445/3/6 446/3/6 448/3/6
f 448/3/6 446/3/6 449/3/6
f 446/1/6 440/1/6 450/1/6
f 449/3/6 446/3/6 450/3/6
f 448/3/6 449/3/6 452/3/6
f 447/3/6 448/3/6 452/3/6
f 449/1/6 450/1/6 453/1/6
f 452/3/6 449/3/6 453/3/6
f 450/1/6 440/1/6 454/1/6
f 453/1/6 450/1/6 454/1/6
f 441/1/6 442/1/6 455/1/6
f 455/1/6 442/1/6 456/1/6
f 452/3/6 453/3/6 457/3/6
f 451/3/6 452/3/6 457/3/6
f 457/3/6 453/3/6 458/3/6
f 459/1/6 460/1/6 461/1/6
f 461/1/6 460/1/6 462/1/6
f 463/1/6 464/1/6 467/1/6
f 467/1/6 464/1/6 468/1/6
f 465/1/6 466/1/6 469/1/6
f 469/1/6 466/1/6 470/1/6
f 471/1/6 472/1/6 475/1/6
f 475/1/6 472/1/6 476/1/6
f 473/1/6 474/1/6 477/1/6
f 477/1/6 474/1/6 478/1/6
f 479/2/6 480/2/6 482/2/6
f 482/2/6 480/2/6 483/2/6
f 481/2/6 482/2/6 485/2/6
f 485/2/6 482/2/6 486/2/6
f 483/2/6 484/2/6 487/2/6
f 487/2/6 484/2/6 488/2/6
f 486/2/6 487/2/6 489/2/6
f 489/2/6 487/2/6 490/2/6
f 491/2/6 492/2/6 493/2/6
f 493/2/6 492/2/6 494/2/6
