# MagicaVoxel @ Ephtracy

# group
o 

# material
mtllib Character1_LeftForearm.mtl
usemtl palette

# normals
vn -1 0 0
vn 1 0 0
vn 0 0 1
vn 0 0 -1
vn 0 -1 0
vn 0 1 0

# texcoords
vt 0.275391 0.5
vt 0.373047 0.5
vt 0.416016 0.5

# verts
v -0.7 1.8 -1.3
v -0.7 1.8 -1.4
v -0.7 1.8 -1.5
v -0.7 2.1 -1.3
v -0.7 2.1 -1.4
v -0.7 2.3 -1.3
v -0.7 2.3 -1.5
v -0.5 1.4 -1.4
v -0.5 1.4 -1.6
v -0.5 1.6 -1.3
v -0.5 1.6 -1.4
v -0.5 1.8 -1.3
v -0.5 1.8 -1.4
v -0.5 1.8 -1.5
v -0.5 1.8 -1.6
v -0.5 1.8 -1.7
v -0.5 1.9 -1.6
v -0.5 1.9 -1.7
v -0.5 2.3 -1.5
v -0.5 2.3 -1.6
v -0.5 2.3 -1.7
v -0.1 1.4 -1.4
v -0.1 1.4 -1.6
v -0.1 1.6 -1.3
v -0.1 1.6 -1.4
v -0.1 1.8 -1.3
v -0.1 1.8 -1.4
v -0.1 1.8 -1.6
v 5.96046e-008 1.8 -1.3
v 5.96046e-008 1.8 -1.4
v 5.96046e-008 1.8 -1.7
v 5.96046e-008 1.9 -1.6
v 5.96046e-008 1.9 -1.7
v 5.96046e-008 2.1 -1.3
v 5.96046e-008 2.1 -1.4
v 5.96046e-008 2.3 -1.3
v 5.96046e-008 2.3 -1.6
v 5.96046e-008 2.3 -1.7
v -0.7 1.8 -1.3
v -0.7 2.1 -1.3
v -0.7 2.3 -1.3
v -0.5 1.6 -1.3
v -0.5 1.8 -1.3
v -0.1 1.6 -1.3
v -0.1 1.8 -1.3
v 5.96046e-008 1.8 -1.3
v 5.96046e-008 2.1 -1.3
v 5.96046e-008 2.3 -1.3
v -0.5 1.4 -1.4
v -0.5 1.6 -1.4
v -0.1 1.4 -1.4
v -0.1 1.6 -1.4
v -0.7 1.8 -1.5
v -0.7 2.3 -1.5
v -0.5 1.8 -1.5
v -0.5 2.3 -1.5
v -0.5 1.4 -1.6
v -0.5 1.8 -1.6
v -0.1 1.4 -1.6
v -0.1 1.8 -1.6
v -0.5 1.8 -1.7
v -0.5 1.9 -1.7
v -0.5 2.3 -1.7
v 5.96046e-008 1.8 -1.7
v 5.96046e-008 1.9 -1.7
v 5.96046e-008 2.3 -1.7
v -0.5 1.4 -1.4
v -0.1 1.4 -1.4
v -0.5 1.4 -1.6
v -0.1 1.4 -1.6
v -0.5 1.6 -1.3
v -0.1 1.6 -1.3
v -0.5 1.6 -1.4
v -0.1 1.6 -1.4
v -0.7 1.8 -1.3
v -0.5 1.8 -1.3
v -0.1 1.8 -1.3
v 5.96046e-008 1.8 -1.3
v -0.7 1.8 -1.4
v -0.5 1.8 -1.4
v -0.1 1.8 -1.4
v 5.96046e-008 1.8 -1.4
v -0.7 1.8 -1.5
v -0.5 1.8 -1.5
v -0.5 1.8 -1.6
v -0.1 1.8 -1.6
v -0.5 1.8 -1.7
v 5.96046e-008 1.8 -1.7
v -0.7 2.3 -1.3
v 5.96046e-008 2.3 -1.3
v -0.7 2.3 -1.5
v -0.5 2.3 -1.5
v -0.5 2.3 -1.6
v 5.96046e-008 2.3 -1.6
v -0.5 2.3 -1.7
v 5.96046e-008 2.3 -1.7

# faces
f 4/3/1 2/3/1 1/3/1
f 5/2/1 3/2/1 2/2/1
f 5/3/1 2/3/1 4/3/1
f 6/2/1 5/2/1 4/2/1
f 7/2/1 3/2/1 5/2/1
f 7/2/1 5/2/1 6/2/1
f 11/1/1 9/1/1 8/1/1
f 12/1/1 11/1/1 10/1/1
f 13/1/1 9/1/1 11/1/1
f 13/1/1 11/1/1 12/1/1
f 14/1/1 9/1/1 13/1/1
f 15/1/1 9/1/1 14/1/1
f 17/2/1 16/2/1 15/2/1
f 17/2/1 15/2/1 14/2/1
f 18/2/1 16/2/1 17/2/1
f 19/2/1 17/2/1 14/2/1
f 20/3/1 18/3/1 17/3/1
f 20/2/1 17/2/1 19/2/1
f 21/3/1 18/3/1 20/3/1
f 22/1/2 23/1/2 25/1/2
f 24/1/2 25/1/2 26/1/2
f 25/1/2 23/1/2 27/1/2
f 26/1/2 25/1/2 27/1/2
f 27/1/2 23/1/2 28/1/2
f 30/2/2 31/2/2 32/2/2
f 32/2/2 31/2/2 33/2/2
f 29/3/2 30/3/2 34/3/2
f 30/2/2 32/2/2 35/2/2
f 34/3/2 30/3/2 35/3/2
f 34/2/2 35/2/2 36/2/2
f 32/3/2 33/3/2 37/3/2
f 36/2/2 35/2/2 37/2/2
f 35/2/2 32/2/2 37/2/2
f 37/3/2 33/3/2 38/3/2
f 43/3/3 40/3/3 39/3/3
f 44/1/3 43/1/3 42/1/3
f 45/3/3 40/3/3 43/3/3
f 45/1/3 43/1/3 44/1/3
f 46/3/3 40/3/3 45/3/3
f 47/2/3 41/2/3 40/2/3
f 47/3/3 40/3/3 46/3/3
f 48/2/3 41/2/3 47/2/3
f 51/1/3 50/1/3 49/1/3
f 52/1/3 50/1/3 51/1/3
f 53/2/4 54/2/4 55/2/4
f 55/2/4 54/2/4 56/2/4
f 57/1/4 58/1/4 59/1/4
f 59/1/4 58/1/4 60/1/4
f 61/2/4 62/2/4 64/2/4
f 62/3/4 63/3/4 65/3/4
f 64/2/4 62/2/4 65/2/4
f 65/3/4 63/3/4 66/3/4
f 69/1/5 68/1/5 67/1/5
f 70/1/5 68/1/5 69/1/5
f 73/1/5 72/1/5 71/1/5
f 74/1/5 72/1/5 73/1/5
f 79/3/5 76/3/5 75/3/5
f 80/3/5 76/3/5 79/3/5
f 81/3/5 78/3/5 77/3/5
f 82/3/5 78/3/5 81/3/5
f 83/2/5 80/2/5 79/2/5
f 84/2/5 80/2/5 83/2/5
f 86/2/5 82/2/5 81/2/5
f 87/2/5 86/2/5 85/2/5
f 88/2/5 82/2/5 86/2/5
f 88/2/5 86/2/5 87/2/5
f 89/2/6 90/2/6 91/2/6
f 91/2/6 90/2/6 92/2/6
f 92/2/6 90/2/6 93/2/6
f 93/2/6 90/2/6 94/2/6
f 93/3/6 94/3/6 95/3/6
f 95/3/6 94/3/6 96/3/6
