# MagicaVoxel @ Ephtracy

# group
o 

# material
mtllib Character1_RightArm.mtl
usemtl palette

# normals
vn -1 0 0
vn 1 0 0
vn 0 0 1
vn 0 0 -1
vn 0 -1 0
vn 0 1 0

# texcoords
vt 0.373047 0.5
vt 0.416016 0.5

# verts
v -0.7 2.4 0.2
v -0.7 2.4 0.1
v -0.7 2.4 0
v -0.7 2.4 -0.1
v -0.7 2.7 0
v -0.7 2.7 -0.1
v -0.7 2.8 0.1
v -0.7 2.8 0
v -0.7 2.9 0.2
v -0.7 2.9 0.1
v -0.7 2.9 0
v -0.7 2.9 -0.1
v -0.7 3 0.2
v -0.7 3 0.1
v -0.7 3 -0.1
v -0.7 3.1 0.1
v -0.7 3.1 -0.1
v -0.6 2.4 0.4
v -0.6 2.4 0.2
v -0.6 2.5 0.3
v -0.6 2.5 0.2
v -0.6 2.7 0.4
v -0.6 2.7 0.3
v -0.6 2.8 0.4
v -0.6 2.8 0.3
v -0.6 2.9 0.3
v -0.6 2.9 0.2
v 5.96046e-008 2.4 0.4
v 5.96046e-008 2.4 0.2
v 5.96046e-008 2.4 0.1
v 5.96046e-008 2.4 0
v 5.96046e-008 2.4 -0.1
v 5.96046e-008 2.5 0.3
v 5.96046e-008 2.5 0.2
v 5.96046e-008 2.7 0.4
v 5.96046e-008 2.7 0.3
v 5.96046e-008 2.7 0
v 5.96046e-008 2.7 -0.1
v 5.96046e-008 2.8 0.4
v 5.96046e-008 2.8 0.3
v 5.96046e-008 2.8 0.1
v 5.96046e-008 2.8 0
v 5.96046e-008 2.9 0.3
v 5.96046e-008 2.9 0.2
v 5.96046e-008 2.9 0.1
v 5.96046e-008 2.9 0
v 5.96046e-008 2.9 -0.1
v 5.96046e-008 3 0.2
v 5.96046e-008 3 0.1
v 5.96046e-008 3 -0.1
v 5.96046e-008 3.1 0.1
v 5.96046e-008 3.1 -0.1
v -0.6 2.4 0.4
v -0.6 2.7 0.4
v -0.6 2.8 0.4
v 5.96046e-008 2.4 0.4
v 5.96046e-008 2.7 0.4
v 5.96046e-008 2.8 0.4
v -0.6 2.8 0.3
v -0.6 2.9 0.3
v 5.96046e-008 2.8 0.3
v 5.96046e-008 2.9 0.3
v -0.7 2.4 0.2
v -0.7 2.9 0.2
v -0.7 3 0.2
v -0.6 2.4 0.2
v -0.6 2.5 0.2
v -0.6 2.9 0.2
v 5.96046e-008 2.9 0.2
v 5.96046e-008 3 0.2
v -0.7 3 0.1
v -0.7 3.1 0.1
v 5.96046e-008 3 0.1
v 5.96046e-008 3.1 0.1
v -0.7 2.4 -0.1
v -0.7 2.7 -0.1
v -0.7 2.9 -0.1
v -0.7 3 -0.1
v -0.7 3.1 -0.1
v 5.96046e-008 2.4 -0.1
v 5.96046e-008 2.7 -0.1
v 5.96046e-008 2.9 -0.1
v 5.96046e-008 3 -0.1
v 5.96046e-008 3.1 -0.1
v -0.6 2.4 0.4
v 5.96046e-008 2.4 0.4
v -0.7 2.4 0.2
v -0.6 2.4 0.2
v 5.96046e-008 2.4 0.2
v -0.7 2.4 0.1
v 5.96046e-008 2.4 0.1
v -0.7 2.4 0
v 5.96046e-008 2.4 0
v -0.7 2.4 -0.1
v 5.96046e-008 2.4 -0.1
v -0.6 2.8 0.4
v 5.96046e-008 2.8 0.4
v -0.6 2.8 0.3
v 5.96046e-008 2.8 0.3
v -0.6 2.9 0.3
v 5.96046e-008 2.9 0.3
v -0.6 2.9 0.2
v 5.96046e-008 2.9 0.2
v -0.7 3 0.2
v 5.96046e-008 3 0.2
v -0.7 3 0.1
v 5.96046e-008 3 0.1
v -0.7 3.1 0.1
v 5.96046e-008 3.1 0.1
v -0.7 3.1 -0.1
v 5.96046e-008 3.1 -0.1

# faces
f 5/2/1 3/2/1 2/2/1
f 5/1/1 4/1/1 3/1/1
f 6/1/1 4/1/1 5/1/1
f 7/1/1 2/1/1 1/1/1
f 7/2/1 5/2/1 2/2/1
f 7/2/1 6/2/1 5/2/1
f 8/2/1 6/2/1 7/2/1
f 9/1/1 7/1/1 1/1/1
f 9/1/1 8/1/1 7/1/1
f 10/1/1 8/1/1 9/1/1
f 11/2/1 6/2/1 8/2/1
f 11/1/1 8/1/1 10/1/1
f 12/2/1 6/2/1 11/2/1
f 13/2/1 10/2/1 9/2/1
f 14/1/1 11/1/1 10/1/1
f 14/2/1 10/2/1 13/2/1
f 14/1/1 12/1/1 11/1/1
f 15/1/1 12/1/1 14/1/1
f 16/2/1 15/2/1 14/2/1
f 17/2/1 15/2/1 16/2/1
f 20/2/1 19/2/1 18/2/1
f 21/2/1 19/2/1 20/2/1
f 22/2/1 20/2/1 18/2/1
f 23/1/1 21/1/1 20/1/1
f 23/2/1 20/2/1 22/2/1
f 24/1/1 23/1/1 22/1/1
f 25/1/1 21/1/1 23/1/1
f 25/1/1 23/1/1 24/1/1
f 26/1/1 21/1/1 25/1/1
f 27/1/1 21/1/1 26/1/1
f 28/2/2 29/2/2 33/2/2
f 29/1/2 30/1/2 34/1/2
f 33/2/2 29/2/2 34/2/2
f 28/2/2 33/2/2 35/2/2
f 33/1/2 34/1/2 36/1/2
f 35/2/2 33/2/2 36/2/2
f 31/1/2 32/1/2 37/1/2
f 30/2/2 31/2/2 37/2/2
f 37/1/2 32/1/2 38/1/2
f 35/1/2 36/1/2 39/1/2
f 36/1/2 34/1/2 40/1/2
f 39/1/2 36/1/2 40/1/2
f 34/1/2 30/1/2 41/1/2
f 40/1/2 34/1/2 41/1/2
f 30/2/2 37/2/2 41/2/2
f 37/2/2 38/2/2 41/2/2
f 41/2/2 38/2/2 42/2/2
f 40/1/2 41/1/2 43/1/2
f 41/1/2 42/1/2 43/1/2
f 43/1/2 42/1/2 44/1/2
f 44/1/2 42/1/2 45/1/2
f 42/2/2 38/2/2 46/2/2
f 45/1/2 42/1/2 46/1/2
f 46/2/2 38/2/2 47/2/2
f 44/2/2 45/2/2 48/2/2
f 46/1/2 47/1/2 49/1/2
f 48/2/2 45/2/2 49/2/2
f 45/1/2 46/1/2 49/1/2
f 49/1/2 47/1/2 50/1/2
f 49/2/2 50/2/2 51/2/2
f 51/2/2 50/2/2 52/2/2
f 56/2/3 54/2/3 53/2/3
f 57/1/3 55/1/3 54/1/3
f 57/2/3 54/2/3 56/2/3
f 58/1/3 55/1/3 57/1/3
f 61/1/3 60/1/3 59/1/3
f 62/1/3 60/1/3 61/1/3
f 66/1/3 64/1/3 63/1/3
f 67/1/3 64/1/3 66/1/3
f 68/2/3 65/2/3 64/2/3
f 68/1/3 64/1/3 67/1/3
f 69/2/3 65/2/3 68/2/3
f 70/2/3 65/2/3 69/2/3
f 73/2/3 72/2/3 71/2/3
f 74/2/3 72/2/3 73/2/3
f 75/1/4 76/1/4 80/1/4
f 76/2/4 77/2/4 81/2/4
f 80/1/4 76/1/4 81/1/4
f 77/1/4 78/1/4 82/1/4
f 81/2/4 77/2/4 82/2/4
f 78/2/4 79/2/4 83/2/4
f 82/1/4 78/1/4 83/1/4
f 83/2/4 79/2/4 84/2/4
f 88/2/5 86/2/5 85/2/5
f 89/2/5 86/2/5 88/2/5
f 90/1/5 88/1/5 87/1/5
f 90/1/5 89/1/5 88/1/5
f 91/1/5 89/1/5 90/1/5
f 92/2/5 91/2/5 90/2/5
f 93/2/5 91/2/5 92/2/5
f 94/1/5 93/1/5 92/1/5
f 95/1/5 93/1/5 94/1/5
f 96/1/6 97/1/6 98/1/6
f 98/1/6 97/1/6 99/1/6
f 100/1/6 101/1/6 102/1/6
f 102/1/6 101/1/6 103/1/6
f 104/2/6 105/2/6 106/2/6
f 106/2/6 105/2/6 107/2/6
f 108/2/6 109/2/6 110/2/6
f 110/2/6 109/2/6 111/2/6
