# MagicaVoxel @ Ephtracy

# group
o 

# material
mtllib Character1_LeftLeg.mtl
usemtl palette

# normals
vn -1 0 0
vn 1 0 0
vn 0 0 1
vn 0 0 -1
vn 0 -1 0
vn 0 1 0

# texcoords
vt 0.0253906 0.5
vt 0.115234 0.5
vt 0.458984 0.5

# verts
v -0.9 1.4 -0.6
v -0.9 1.4 -1.2
v -0.9 1.5 -0.6
v -0.9 1.5 -1.2
v -0.9 1.7 -0.6
v -0.9 1.7 -1.2
v -0.8 1.3 -0.6
v -0.8 1.3 -1.2
v -0.8 1.4 -0.6
v -0.8 1.4 -1.2
v -0.6 0.7 -0.9
v -0.6 0.7 -1.3
v -0.6 1 -1.2
v -0.6 1 -1.3
v -0.6 1.3 -0.9
v -0.6 1.3 -1.2
v -0.2 0.7 -0.9
v -0.2 0.7 -1.3
v -0.2 0.9 -1.1
v -0.2 0.9 -1.2
v -0.2 1 -1
v -0.2 1 -1.1
v -0.2 1 -1.2
v -0.2 1 -1.3
v -0.2 1.1 -1
v -0.2 1.1 -1.1
v -0.2 1.3 -0.6
v -0.2 1.3 -0.9
v -0.2 1.5 -0.6
v -0.2 1.5 -1.2
v -0.1 1.5 -0.6
v -0.1 1.5 -1.2
v -0.1 1.7 -0.6
v -0.1 1.7 -1.2
v -0.9 1.4 -0.6
v -0.9 1.5 -0.6
v -0.9 1.7 -0.6
v -0.8 1.3 -0.6
v -0.8 1.4 -0.6
v -0.2 1.3 -0.6
v -0.2 1.5 -0.6
v -0.1 1.5 -0.6
v -0.1 1.7 -0.6
v -0.6 0.7 -0.9
v -0.6 1.3 -0.9
v -0.2 0.7 -0.9
v -0.2 1.3 -0.9
v -0.9 1.4 -1.2
v -0.9 1.5 -1.2
v -0.9 1.7 -1.2
v -0.8 1.3 -1.2
v -0.8 1.4 -1.2
v -0.6 1 -1.2
v -0.6 1.3 -1.2
v -0.2 1 -1.2
v -0.2 1.5 -1.2
v -0.1 1.5 -1.2
v -0.1 1.7 -1.2
v -0.6 0.7 -1.3
v -0.6 1 -1.3
v -0.2 0.7 -1.3
v -0.2 1 -1.3
v -0.6 0.7 -0.9
v -0.2 0.7 -0.9
v -0.6 0.7 -1.3
v -0.2 0.7 -1.3
v -0.8 1.3 -0.6
v -0.2 1.3 -0.6
v -0.6 1.3 -0.9
v -0.2 1.3 -0.9
v -0.8 1.3 -1.2
v -0.6 1.3 -1.2
v -0.9 1.4 -0.6
v -0.8 1.4 -0.6
v -0.9 1.4 -1.2
v -0.8 1.4 -1.2
v -0.2 1.5 -0.6
v -0.1 1.5 -0.6
v -0.2 1.5 -1.2
v -0.1 1.5 -1.2
v -0.6 1 -1.2
v -0.2 1 -1.2
v -0.6 1 -1.3
v -0.2 1 -1.3
v -0.9 1.7 -0.6
v -0.1 1.7 -0.6
v -0.9 1.7 -1.2
v -0.1 1.7 -1.2

# faces
f 3/2/1 2/2/1 1/2/1
f 4/2/1 2/2/1 3/2/1
f 5/3/1 4/3/1 3/3/1
f 6/3/1 4/3/1 5/3/1
f 9/2/1 8/2/1 7/2/1
f 10/2/1 8/2/1 9/2/1
f 13/2/1 12/2/1 11/2/1
f 14/2/1 12/2/1 13/2/1
f 15/2/1 13/2/1 11/2/1
f 16/2/1 13/2/1 15/2/1
f 17/2/2 18/2/2 19/2/2
f 19/2/2 18/2/2 20/2/2
f 17/2/2 19/2/2 21/2/2
f 19/1/2 20/1/2 22/1/2
f 21/2/2 19/2/2 22/2/2
f 20/2/2 18/2/2 23/2/2
f 22/1/2 20/1/2 23/1/2
f 23/2/2 18/2/2 24/2/2
f 21/1/2 22/1/2 25/1/2
f 17/2/2 21/2/2 25/2/2
f 22/2/2 23/2/2 26/2/2
f 25/1/2 22/1/2 26/1/2
f 17/2/2 25/2/2 28/2/2
f 25/2/2 26/2/2 28/2/2
f 27/2/2 28/2/2 29/2/2
f 26/2/2 23/2/2 30/2/2
f 29/2/2 28/2/2 30/2/2
f 28/2/2 26/2/2 30/2/2
f 31/3/2 32/3/2 33/3/2
f 33/3/2 32/3/2 34/3/2
f 39/2/3 36/2/3 35/2/3
f 40/2/3 39/2/3 38/2/3
f 41/3/3 37/3/3 36/3/3
f 41/2/3 39/2/3 40/2/3
f 41/2/3 36/2/3 39/2/3
f 42/3/3 37/3/3 41/3/3
f 43/3/3 37/3/3 42/3/3
f 46/2/3 45/2/3 44/2/3
f 47/2/3 45/2/3 46/2/3
f 48/2/4 49/2/4 52/2/4
f 51/2/4 52/2/4 54/2/4
f 53/2/4 54/2/4 55/2/4
f 49/3/4 50/3/4 56/3/4
f 55/2/4 54/2/4 56/2/4
f 52/2/4 49/2/4 56/2/4
f 54/2/4 52/2/4 56/2/4
f 56/3/4 50/3/4 57/3/4
f 57/3/4 50/3/4 58/3/4
f 59/2/4 60/2/4 61/2/4
f 61/2/4 60/2/4 62/2/4
f 65/2/5 64/2/5 63/2/5
f 66/2/5 64/2/5 65/2/5
f 69/2/5 68/2/5 67/2/5
f 70/2/5 68/2/5 69/2/5
f 71/2/5 69/2/5 67/2/5
f 72/2/5 69/2/5 71/2/5
f 75/2/5 74/2/5 73/2/5
f 76/2/5 74/2/5 75/2/5
f 79/3/5 78/3/5 77/3/5
f 80/3/5 78/3/5 79/3/5
f 81/2/6 82/2/6 83/2/6
f 83/2/6 82/2/6 84/2/6
f 85/3/6 86/3/6 87/3/6
f 87/3/6 86/3/6 88/3/6
