# MagicaVoxel @ Ephtracy

# group
o 

# material
mtllib Character1_Head.mtl
usemtl palette

# normals
vn -1 0 0
vn 1 0 0
vn 0 0 1
vn 0 0 -1
vn 0 -1 0
vn 0 1 0

# texcoords
vt 0.177734 0.5
vt 0.275391 0.5
vt 0.298828 0.5
vt 0.564453 0.5
vt 0.916016 0.5
vt 0.994141 0.5

# verts
v -0.9 3.4 5.96046e-008
v -0.9 3.4 -1.3
v -0.9 3.5 0.1
v -0.9 3.5 5.96046e-008
v -0.9 3.5 -1.3
v -0.9 3.5 -1.5
v -0.9 3.6 0.3
v -0.9 3.6 0.1
v -0.9 3.6 -1.5
v -0.9 3.6 -1.6
v -0.9 3.7 0.4
v -0.9 3.7 0.3
v -0.9 3.7 -1.6
v -0.9 3.7 -1.7
v -0.9 3.8 -1.7
v -0.9 3.8 -1.8
v -0.9 5 -1.7
v -0.9 5 -1.8
v -0.9 5.1 0.4
v -0.9 5.1 0.3
v -0.9 5.2 -1.6
v -0.9 5.2 -1.7
v -0.9 5.3 0.3
v -0.9 5.3 0.2
v -0.9 5.3 -1.5
v -0.9 5.3 -1.6
v -0.9 5.4 0.2
v -0.9 5.4 0.1
v -0.9 5.4 -1.4
v -0.9 5.4 -1.5
v -0.9 5.5 0.1
v -0.9 5.5 5.96046e-008
v -0.9 5.5 -1.3
v -0.9 5.5 -1.4
v -0.9 5.6 5.96046e-008
v -0.9 5.6 -0.3
v -0.9 5.6 -1
v -0.9 5.6 -1.3
v -0.9 5.7 -0.3
v -0.9 5.7 -1
v -0.8 3.3 -0.4
v -0.8 3.3 -1.1
v -0.8 3.4 -0.4
v -0.8 3.4 -1.1
v -0.7 3 -0.3
v -0.7 3 -1
v -0.7 3.3 -0.4
v -0.7 3.3 -1
v -0.7 3.4 -0.3
v -0.7 3.4 -0.4
v -0.6 4 -1.8
v -0.6 4 -2
v -0.6 4.3 -1.8
v -0.6 4.3 -2
v -0.4 4 0.6
v -0.4 4 0.4
v -0.4 4.3 0.6
v -0.4 4.3 0.4
v -0.1 3.3 -0.2
v -0.1 3.3 -0.3
v -0.1 3.4 -0.2
v -0.1 3.4 -0.3
v -0.2 4 -1.8
v -0.2 4 -2
v -0.2 4.3 -1.8
v -0.2 4.3 -2
v -0.1 3 -0.3
v -0.1 3 -1
v -0.1 3.3 -0.3
v -0.1 3.3 -1
v 0 4 0.6
v 0 4 0.4
v 0 4.3 0.6
v 0 4.3 0.4
v 0.2 3.3 -0.2
v 0.2 3.3 -0.3
v 0.2 3.3 -1
v 0.2 3.3 -1.1
v 0.2 3.4 5.96046e-008
v 0.2 3.4 -0.1
v 0.2 3.4 -0.2
v 0.2 3.4 -0.3
v 0.2 3.4 -1
v 0.2 3.4 -1.1
v 0.2 3.4 -1.2
v 0.2 3.4 -1.3
v 0.2 3.5 0.1
v 0.2 3.5 5.96046e-008
v 0.2 3.5 -0.1
v 0.2 3.5 -1.2
v 0.2 3.5 -1.3
v 0.2 3.5 -1.4
v 0.2 3.5 -1.5
v 0.2 3.6 0.3
v 0.2 3.6 0.2
v 0.2 3.6 0.1
v 0.2 3.6 5.96046e-008
v 0.2 3.6 -1.4
v 0.2 3.6 -1.5
v 0.2 3.6 -1.6
v 0.2 3.7 0.4
v 0.2 3.7 0.3
v 0.2 3.7 0.2
v 0.2 3.7 -1.5
v 0.2 3.7 -1.6
v 0.2 3.7 -1.7
v 0.2 3.8 0.4
v 0.2 3.8 0.3
v 0.2 3.8 -1.6
v 0.2 3.8 -1.7
v 0.2 3.8 -1.8
v 0.2 3.9 -1.7
v 0.2 3.9 -1.8
v 0.3 3.3 -0.3
v 0.3 3.3 -1
v 0.3 3.4 -0.1
v 0.3 3.4 -0.3
v 0.3 3.4 -1
v 0.3 3.4 -1.2
v 0.3 3.5 5.96046e-008
v 0.3 3.5 -0.1
v 0.3 3.5 -0.5
v 0.3 3.5 -0.9
v 0.3 3.5 -1.2
v 0.3 3.5 -1.4
v 0.3 3.6 0.2
v 0.3 3.6 5.96046e-008
v 0.3 3.6 -0.4
v 0.3 3.6 -0.5
v 0.3 3.6 -0.9
v 0.3 3.6 -1
v 0.3 3.6 -1.4
v 0.3 3.6 -1.5
v 0.3 3.7 0.3
v 0.3 3.7 0.2
v 0.3 3.7 -0.4
v 0.3 3.7 -0.5
v 0.3 3.7 -0.9
v 0.3 3.7 -1
v 0.3 3.7 -1.5
v 0.3 3.7 -1.6
v 0.3 3.8 0.4
v 0.3 3.8 0.3
v 0.3 3.8 -1.6
v 0.3 3.8 -1.7
v 0.3 3.9 -0.6
v 0.3 3.9 -0.8
v 0.3 3.9 -1.7
v 0.3 3.9 -1.8
v 0.3 4 -0.6
v 0.3 4 -0.8
v 0.3 4.1 5.96046e-008
v 0.3 4.1 -0.5
v 0.3 4.1 -1
v 0.3 4.1 -1.5
v 0.3 4.2 0.1
v 0.3 4.2 5.96046e-008
v 0.3 4.2 -0.1
v 0.3 4.2 -0.4
v 0.3 4.2 -1.1
v 0.3 4.2 -1.4
v 0.3 4.2 -1.5
v 0.3 4.2 -1.6
v 0.3 4.3 5.96046e-008
v 0.3 4.3 -0.1
v 0.3 4.3 -1.4
v 0.3 4.3 -1.5
v 0.3 4.4 -0.2
v 0.3 4.4 -0.3
v 0.3 4.4 -1.2
v 0.3 4.4 -1.3
v 0.3 4.5 -0.2
v 0.3 4.5 -0.3
v 0.3 4.5 -1.2
v 0.3 4.5 -1.3
v 0.3 4.6 0.1
v 0.3 4.6 5.96046e-008
v 0.3 4.6 -0.4
v 0.3 4.6 -1.1
v 0.3 4.6 -1.5
v 0.3 4.7 5.96046e-008
v 0.3 4.7 -0.5
v 0.3 4.7 -1
v 0.3 4.7 -1.6
v 0.3 4.8 0.2
v 0.3 4.8 0.1
v 0.3 4.8 -1.6
v 0.3 4.8 -1.7
v 0.3 4.9 -1.4
v 0.3 4.9 -1.6
v 0.3 5 0.2
v 0.3 5 0.1
v 0.3 5 -0.5
v 0.3 5 -0.9
v 0.3 5 -1.4
v 0.3 5 -1.5
v 0.3 5 -1.7
v 0.3 5 -1.8
v 0.3 5.1 0.4
v 0.3 5.1 0.3
v 0.3 5.1 0.1
v 0.3 5.1 -0.5
v 0.3 5.1 -0.9
v 0.3 5.1 -1.5
v 0.3 5.2 -1.6
v 0.3 5.2 -1.7
v 0.3 5.3 0.3
v 0.3 5.3 0.2
v 0.3 5.3 -1.5
v 0.3 5.3 -1.6
v 0.3 5.4 0.2
v 0.3 5.4 0.1
v 0.3 5.4 -1.4
v 0.3 5.4 -1.5
v 0.3 5.5 0.1
v 0.3 5.5 5.96046e-008
v 0.3 5.5 -1.3
v 0.3 5.5 -1.4
v 0.3 5.6 5.96046e-008
v 0.3 5.6 -0.3
v 0.3 5.6 -1
v 0.3 5.6 -1.3
v 0.3 5.7 -0.3
v 0.3 5.7 -1
v 0.5 3.9 -0.6
v 0.5 3.9 -0.8
v 0.5 4 -0.6
v 0.5 4 -0.8
v -0.4 4 0.6
v -0.4 4.3 0.6
v 0 4 0.6
v 0 4.3 0.6
v -0.9 3.7 0.4
v -0.9 5.1 0.4
v -0.4 4 0.4
v -0.4 4.3 0.4
v 0 4 0.4
v 0 4.3 0.4
v 0.2 3.7 0.4
v 0.2 3.8 0.4
v 0.3 3.8 0.4
v 0.3 5.1 0.4
v -0.9 3.6 0.3
v -0.9 3.7 0.3
v -0.9 5.1 0.3
v -0.9 5.3 0.3
v 0.2 3.6 0.3
v 0.2 3.7 0.3
v 0.2 3.8 0.3
v 0.3 3.7 0.3
v 0.3 3.8 0.3
v 0.3 5.1 0.3
v 0.3 5.3 0.3
v -0.9 5.3 0.2
v -0.9 5.4 0.2
v 0.2 3.6 0.2
v 0.2 3.7 0.2
v 0.3 3.6 0.2
v 0.3 3.7 0.2
v 0.3 5.3 0.2
v 0.3 5.4 0.2
v -0.9 3.5 0.1
v -0.9 3.6 0.1
v -0.9 5.4 0.1
v -0.9 5.5 0.1
v 0.2 3.5 0.1
v 0.2 3.6 0.1
v 0.3 5.4 0.1
v 0.3 5.5 0.1
v -0.9 3.4 5.96046e-008
v -0.9 3.5 5.96046e-008
v -0.9 5.5 5.96046e-008
v -0.9 5.6 5.96046e-008
v 0.2 3.4 5.96046e-008
v 0.2 3.5 5.96046e-008
v 0.2 3.6 5.96046e-008
v 0.3 3.5 5.96046e-008
v 0.3 3.6 5.96046e-008
v 0.3 5.5 5.96046e-008
v 0.3 5.6 5.96046e-008
v 0.2 3.4 -0.1
v 0.2 3.5 -0.1
v 0.3 3.4 -0.1
v 0.3 3.5 -0.1
v -0.1 3.3 -0.2
v -0.1 3.4 -0.2
v 0.2 3.3 -0.2
v 0.2 3.4 -0.2
v -0.9 5.6 -0.3
v -0.9 5.7 -0.3
v -0.7 3 -0.3
v -0.7 3.4 -0.3
v -0.1 3 -0.3
v -0.1 3.3 -0.3
v -0.1 3.4 -0.3
v 0.2 3.3 -0.3
v 0.2 3.4 -0.3
v 0.3 3.3 -0.3
v 0.3 3.4 -0.3
v 0.3 5.6 -0.3
v 0.3 5.7 -0.3
v -0.8 3.3 -0.4
v -0.8 3.4 -0.4
v -0.7 3.3 -0.4
v -0.7 3.4 -0.4
v 0.3 3.9 -0.6
v 0.3 4 -0.6
v 0.5 3.9 -0.6
v 0.5 4 -0.6
v 0.3 3.9 -0.8
v 0.3 4 -0.8
v 0.5 3.9 -0.8
v 0.5 4 -0.8
v -0.9 5.6 -1
v -0.9 5.7 -1
v -0.7 3 -1
v -0.7 3.3 -1
v -0.1 3 -1
v -0.1 3.3 -1
v 0.2 3.3 -1
v 0.2 3.4 -1
v 0.3 3.3 -1
v 0.3 3.4 -1
v 0.3 5.6 -1
v 0.3 5.7 -1
v -0.8 3.3 -1.1
v -0.8 3.4 -1.1
v 0.2 3.3 -1.1
v 0.2 3.4 -1.1
v 0.2 3.4 -1.2
v 0.2 3.5 -1.2
v 0.3 3.4 -1.2
v 0.3 3.5 -1.2
v -0.9 3.4 -1.3
v -0.9 3.5 -1.3
v -0.9 5.5 -1.3
v -0.9 5.6 -1.3
v 0.2 3.4 -1.3
v 0.2 3.5 -1.3
v 0.3 5.5 -1.3
v 0.3 5.6 -1.3
v -0.9 5.4 -1.4
v -0.9 5.5 -1.4
v 0.2 3.5 -1.4
v 0.2 3.6 -1.4
v 0.3 3.5 -1.4
v 0.3 3.6 -1.4
v 0.3 5.4 -1.4
v 0.3 5.5 -1.4
v -0.9 3.5 -1.5
v -0.9 3.6 -1.5
v -0.9 5.3 -1.5
v -0.9 5.4 -1.5
v 0.2 3.5 -1.5
v 0.2 3.6 -1.5
v 0.2 3.7 -1.5
v 0.3 3.6 -1.5
v 0.3 3.7 -1.5
v 0.3 5.3 -1.5
v 0.3 5.4 -1.5
v -0.9 3.6 -1.6
v -0.9 3.7 -1.6
v -0.9 5.2 -1.6
v -0.9 5.3 -1.6
v 0.2 3.6 -1.6
v 0.2 3.7 -1.6
v 0.2 3.8 -1.6
v 0.3 3.7 -1.6
v 0.3 3.8 -1.6
v 0.3 5.2 -1.6
v 0.3 5.3 -1.6
v -0.9 3.7 -1.7
v -0.9 3.8 -1.7
v -0.9 5 -1.7
v -0.9 5.2 -1.7
v 0.2 3.7 -1.7
v 0.2 3.8 -1.7
v 0.2 3.9 -1.7
v 0.3 3.8 -1.7
v 0.3 3.9 -1.7
v 0.3 5 -1.7
v 0.3 5.2 -1.7
v -0.9 3.8 -1.8
v -0.9 5 -1.8
v -0.6 4 -1.8
v -0.6 4.3 -1.8
v -0.2 4 -1.8
v -0.2 4.3 -1.8
v 0.2 3.8 -1.8
v 0.2 3.9 -1.8
v 0.3 3.9 -1.8
v 0.3 5 -1.8
v -0.6 4 -2
v -0.6 4.3 -2
v -0.2 4 -2
v -0.2 4.3 -2
v -0.7 3 -0.3
v -0.1 3 -0.3
v -0.7 3 -1
v -0.1 3 -1
v -0.1 3.3 -0.2
v 0.2 3.3 -0.2
v -0.1 3.3 -0.3
v 0.2 3.3 -0.3
v 0.3 3.3 -0.3
v -0.8 3.3 -0.4
v -0.7 3.3 -0.4
v -0.7 3.3 -1
v -0.1 3.3 -1
v 0.2 3.3 -1
v 0.3 3.3 -1
v -0.8 3.3 -1.1
v 0.2 3.3 -1.1
v -0.9 3.4 5.96046e-008
v 0.2 3.4 5.96046e-008
v 0.2 3.4 -0.1
v 0.3 3.4 -0.1
v -0.1 3.4 -0.2
v 0.2 3.4 -0.2
v -0.7 3.4 -0.3
v -0.1 3.4 -0.3
v 0.2 3.4 -0.3
v 0.3 3.4 -0.3
v -0.8 3.4 -0.4
v -0.7 3.4 -0.4
v 0.2 3.4 -1
v 0.3 3.4 -1
v -0.8 3.4 -1.1
v 0.2 3.4 -1.1
v 0.2 3.4 -1.2
v 0.3 3.4 -1.2
v -0.9 3.4 -1.3
v 0.2 3.4 -1.3
v -0.9 3.5 0.1
v 0.2 3.5 0.1
v -0.9 3.5 5.96046e-008
v 0.2 3.5 5.96046e-008
v 0.3 3.5 5.96046e-008
v 0.2 3.5 -0.1
v 0.3 3.5 -0.1
v 0.2 3.5 -1.2
v 0.3 3.5 -1.2
v -0.9 3.5 -1.3
v 0.2 3.5 -1.3
v 0.2 3.5 -1.4
v 0.3 3.5 -1.4
v -0.9 3.5 -1.5
v 0.2 3.5 -1.5
v -0.9 3.6 0.3
v 0.2 3.6 0.3
v 0.2 3.6 0.2
v 0.3 3.6 0.2
v -0.9 3.6 0.1
v 0.2 3.6 0.1
v 0.2 3.6 5.96046e-008
v 0.3 3.6 5.96046e-008
v 0.2 3.6 -1.4
v 0.3 3.6 -1.4
v -0.9 3.6 -1.5
v 0.2 3.6 -1.5
v 0.3 3.6 -1.5
v -0.9 3.6 -1.6
v 0.2 3.6 -1.6
v -0.9 3.7 0.4
v 0.2 3.7 0.4
v -0.9 3.7 0.3
v 0.2 3.7 0.3
v 0.3 3.7 0.3
v 0.2 3.7 0.2
v 0.3 3.7 0.2
v 0.2 3.7 -1.5
v 0.3 3.7 -1.5
v -0.9 3.7 -1.6
v 0.2 3.7 -1.6
v 0.3 3.7 -1.6
v -0.9 3.7 -1.7
v 0.2 3.7 -1.7
v 0.2 3.8 0.4
v 0.3 3.8 0.4
v 0.2 3.8 0.3
v 0.3 3.8 0.3
v 0.2 3.8 -1.6
v 0.3 3.8 -1.6
v -0.9 3.8 -1.7
v 0.2 3.8 -1.7
v 0.3 3.8 -1.7
v -0.9 3.8 -1.8
v 0.2 3.8 -1.8
v 0.3 3.9 -0.6
v 0.5 3.9 -0.6
v 0.3 3.9 -0.8
v 0.5 3.9 -0.8
v 0.2 3.9 -1.7
v 0.3 3.9 -1.7
v 0.2 3.9 -1.8
v 0.3 3.9 -1.8
v -0.4 4 0.6
v 0 4 0.6
v -0.4 4 0.4
v 0 4 0.4
v -0.6 4 -1.8
v -0.2 4 -1.8
v -0.6 4 -2
v -0.2 4 -2
v 0.3 4 -0.6
v 0.5 4 -0.6
v 0.3 4 -0.8
v 0.5 4 -0.8
v -0.4 4.3 0.6
v 0 4.3 0.6
v -0.4 4.3 0.4
v 0 4.3 0.4
v -0.6 4.3 -1.8
v -0.2 4.3 -1.8
v -0.6 4.3 -2
v -0.2 4.3 -2
v -0.9 5 -1.7
v 0.3 5 -1.7
v -0.9 5 -1.8
v 0.3 5 -1.8
v -0.9 5.1 0.4
v 0.3 5.1 0.4
v -0.9 5.1 0.3
v 0.3 5.1 0.3
v -0.9 5.2 -1.6
v 0.3 5.2 -1.6
v -0.9 5.2 -1.7
v 0.3 5.2 -1.7
v -0.9 5.3 0.3
v 0.3 5.3 0.3
v -0.9 5.3 0.2
v 0.3 5.3 0.2
v -0.9 5.3 -1.5
v 0.3 5.3 -1.5
v -0.9 5.3 -1.6
v 0.3 5.3 -1.6
v -0.9 5.4 0.2
v 0.3 5.4 0.2
v -0.9 5.4 0.1
v 0.3 5.4 0.1
v -0.9 5.4 -1.4
v 0.3 5.4 -1.4
v -0.9 5.4 -1.5
v 0.3 5.4 -1.5
v -0.9 5.5 0.1
v 0.3 5.5 0.1
v -0.9 5.5 5.96046e-008
v 0.3 5.5 5.96046e-008
v -0.9 5.5 -1.3
v 0.3 5.5 -1.3
v -0.9 5.5 -1.4
v 0.3 5.5 -1.4
v -0.9 5.6 5.96046e-008
v 0.3 5.6 5.96046e-008
v -0.9 5.6 -0.3
v 0.3 5.6 -0.3
v -0.9 5.6 -1
v 0.3 5.6 -1
v -0.9 5.6 -1.3
v 0.3 5.6 -1.3
v -0.9 5.7 -0.3
v 0.3 5.7 -0.3
v -0.9 5.7 -1
v 0.3 5.7 -1

# faces
f 4/2/1 2/2/1 1/2/1
f 5/2/1 2/2/1 4/2/1
f 8/2/1 4/2/1 3/2/1
f 8/2/1 6/2/1 5/2/1
f 8/2/1 5/2/1 4/2/1
f 9/2/1 6/2/1 8/2/1
f 12/2/1 8/2/1 7/2/1
f 12/2/1 10/2/1 9/2/1
f 12/2/1 9/2/1 8/2/1
f 13/2/1 10/2/1 12/2/1
f 15/2/1 12/2/1 11/2/1
f 15/2/1 14/2/1 13/2/1
f 15/2/1 13/2/1 12/2/1
f 17/2/1 15/2/1 11/2/1
f 17/2/1 16/2/1 15/2/1
f 18/2/1 16/2/1 17/2/1
f 19/2/1 17/2/1 11/2/1
f 20/2/1 17/2/1 19/2/1
f 21/2/1 17/2/1 20/2/1
f 22/2/1 17/2/1 21/2/1
f 23/2/1 21/2/1 20/2/1
f 24/2/1 21/2/1 23/2/1
f 25/2/1 21/2/1 24/2/1
f 26/2/1 21/2/1 25/2/1
f 27/2/1 25/2/1 24/2/1
f 28/2/1 25/2/1 27/2/1
f 29/2/1 25/2/1 28/2/1
f 30/2/1 25/2/1 29/2/1
f 31/2/1 29/2/1 28/2/1
f 32/2/1 29/2/1 31/2/1
f 33/2/1 29/2/1 32/2/1
f 34/2/1 29/2/1 33/2/1
f 35/2/1 33/2/1 32/2/1
f 36/2/1 33/2/1 35/2/1
f 37/2/1 33/2/1 36/2/1
f 38/2/1 33/2/1 37/2/1
f 39/2/1 37/2/1 36/2/1
f 40/2/1 37/2/1 39/2/1
f 43/2/1 42/2/1 41/2/1
f 44/2/1 42/2/1 43/2/1
f 47/2/1 46/2/1 45/2/1
f 48/2/1 46/2/1 47/2/1
f 49/2/1 47/2/1 45/2/1
f 50/2/1 47/2/1 49/2/1
f 53/2/1 52/2/1 51/2/1
f 54/2/1 52/2/1 53/2/1
f 57/2/1 56/2/1 55/2/1
f 58/2/1 56/2/1 57/2/1
f 61/2/1 60/2/1 59/2/1
f 62/2/1 60/2/1 61/2/1
f 63/2/2 64/2/2 65/2/2
f 65/2/2 64/2/2 66/2/2
f 67/2/2 68/2/2 69/2/2
f 69/2/2 68/2/2 70/2/2
f 71/2/2 72/2/2 73/2/2
f 73/2/2 72/2/2 74/2/2
f 75/2/2 76/2/2 81/2/2
f 81/2/2 76/2/2 82/2/2
f 77/2/2 78/2/2 83/2/2
f 83/2/2 78/2/2 84/2/2
f 79/2/2 80/2/2 88/2/2
f 88/2/2 80/2/2 89/2/2
f 85/2/2 86/2/2 90/2/2
f 90/2/2 86/2/2 91/2/2
f 87/2/2 88/2/2 96/2/2
f 96/2/2 88/2/2 97/2/2
f 92/2/2 93/2/2 98/2/2
f 98/2/2 93/2/2 99/2/2
f 94/2/2 95/2/2 102/2/2
f 102/2/2 95/2/2 103/2/2
f 99/2/2 100/2/2 104/2/2
f 104/2/2 100/2/2 105/2/2
f 101/2/2 102/2/2 107/2/2
f 107/2/2 102/2/2 108/2/2
f 105/2/2 106/2/2 109/2/2
f 109/2/2 106/2/2 110/2/2
f 110/2/2 111/2/2 112/2/2
f 112/2/2 111/2/2 113/2/2
f 114/2/2 115/2/2 117/2/2
f 117/2/2 115/2/2 118/2/2
f 116/2/2 117/2/2 121/2/2
f 118/2/2 119/2/2 121/2/2
f 117/2/2 118/2/2 121/2/2
f 121/2/2 119/2/2 122/2/2
f 122/2/2 119/2/2 123/2/2
f 123/2/2 119/2/2 124/2/2
f 120/2/2 121/2/2 127/2/2
f 121/2/2 122/2/2 127/2/2
f 127/2/2 122/2/2 128/2/2
f 122/6/2 123/6/2 129/6/2
f 128/2/2 122/2/2 129/2/2
f 124/2/2 125/2/2 130/2/2
f 129/6/2 123/6/2 130/6/2
f 123/2/2 124/2/2 130/2/2
f 130/2/2 125/2/2 131/2/2
f 131/2/2 125/2/2 132/2/2
f 126/2/2 127/2/2 135/2/2
f 127/2/2 128/2/2 135/2/2
f 128/6/2 129/6/2 136/6/2
f 135/2/2 128/2/2 136/2/2
f 129/2/2 130/2/2 137/2/2
f 136/6/2 129/6/2 137/6/2
f 130/6/2 131/6/2 138/6/2
f 137/2/2 130/2/2 138/2/2
f 132/2/2 133/2/2 139/2/2
f 138/6/2 131/6/2 139/6/2
f 131/2/2 132/2/2 139/2/2
f 139/2/2 133/2/2 140/2/2
f 134/2/2 135/2/2 143/2/2
f 140/2/2 141/2/2 143/2/2
f 139/2/2 140/2/2 143/2/2
f 138/2/2 139/2/2 143/2/2
f 136/2/2 137/2/2 143/2/2
f 135/2/2 136/2/2 143/2/2
f 137/2/2 138/2/2 143/2/2
f 143/2/2 141/2/2 144/2/2
f 142/2/2 143/2/2 146/2/2
f 144/2/2 145/2/2 146/2/2
f 143/2/2 144/2/2 146/2/2
f 146/2/2 145/2/2 147/2/2
f 147/2/2 145/2/2 148/2/2
f 142/2/2 146/2/2 150/2/2
f 148/2/2 149/2/2 151/2/2
f 147/2/2 148/2/2 151/2/2
f 142/2/2 150/2/2 152/2/2
f 150/2/2 151/2/2 152/2/2
f 152/2/2 151/2/2 153/2/2
f 151/2/2 149/2/2 154/2/2
f 153/2/2 151/2/2 154/2/2
f 154/2/2 149/2/2 155/2/2
f 142/2/2 152/2/2 156/2/2
f 152/5/2 153/5/2 157/5/2
f 156/2/2 152/2/2 157/2/2
f 157/5/2 153/5/2 158/5/2
f 158/5/2 153/5/2 159/5/2
f 154/5/2 155/5/2 160/5/2
f 160/5/2 155/5/2 161/5/2
f 155/2/2 149/2/2 162/2/2
f 161/5/2 155/5/2 162/5/2
f 162/2/2 149/2/2 163/2/2
f 156/5/2 157/5/2 164/5/2
f 157/5/2 158/5/2 164/5/2
f 158/4/2 159/4/2 165/4/2
f 164/5/2 158/5/2 165/5/2
f 160/4/2 161/4/2 166/4/2
f 162/5/2 163/5/2 166/5/2
f 161/5/2 162/5/2 166/5/2
f 166/5/2 163/5/2 167/5/2
f 165/4/2 159/4/2 168/4/2
f 164/4/2 165/4/2 168/4/2
f 168/4/2 159/4/2 169/4/2
f 166/4/2 167/4/2 170/4/2
f 160/4/2 166/4/2 170/4/2
f 170/4/2 167/4/2 171/4/2
f 168/5/2 169/5/2 172/5/2
f 164/4/2 168/4/2 172/4/2
f 169/4/2 159/4/2 173/4/2
f 172/5/2 169/5/2 173/5/2
f 170/5/2 171/5/2 174/5/2
f 160/4/2 170/4/2 174/4/2
f 171/4/2 167/4/2 175/4/2
f 174/5/2 171/5/2 175/5/2
f 142/2/2 156/2/2 176/2/2
f 156/5/2 164/5/2 176/5/2
f 164/4/2 172/4/2 177/4/2
f 176/5/2 164/5/2 177/5/2
f 172/4/2 173/4/2 177/4/2
f 159/5/2 153/5/2 178/5/2
f 177/4/2 173/4/2 178/4/2
f 173/4/2 159/4/2 178/4/2
f 174/4/2 175/4/2 179/4/2
f 154/5/2 160/5/2 179/5/2
f 160/4/2 174/4/2 179/4/2
f 175/4/2 167/4/2 180/4/2
f 179/4/2 175/4/2 180/4/2
f 167/5/2 163/5/2 180/5/2
f 177/5/2 178/5/2 181/5/2
f 176/2/2 177/2/2 181/2/2
f 153/2/2 154/2/2 182/2/2
f 181/5/2 178/5/2 182/5/2
f 178/5/2 153/5/2 182/5/2
f 154/5/2 179/5/2 183/5/2
f 182/2/2 154/2/2 183/2/2
f 179/5/2 180/5/2 183/5/2
f 180/5/2 163/5/2 184/5/2
f 183/5/2 180/5/2 184/5/2
f 163/2/2 149/2/2 184/2/2
f 181/2/2 182/2/2 185/2/2
f 182/2/2 183/2/2 185/2/2
f 183/2/2 184/2/2 185/2/2
f 142/2/2 176/2/2 185/2/2
f 176/2/2 181/2/2 185/2/2
f 185/2/2 184/2/2 186/2/2
f 184/2/2 149/2/2 187/2/2
f 186/2/2 184/2/2 187/2/2
f 187/2/2 149/2/2 188/2/2
f 186/2/2 187/2/2 189/2/2
f 187/1/2 188/1/2 190/1/2
f 189/2/2 187/2/2 190/2/2
f 185/1/2 186/1/2 191/1/2
f 142/2/2 185/2/2 191/2/2
f 186/2/2 189/2/2 192/2/2
f 191/1/2 186/1/2 192/1/2
f 192/2/2 189/2/2 193/2/2
f 193/2/2 189/2/2 194/2/2
f 189/1/2 190/1/2 195/1/2
f 194/2/2 189/2/2 195/2/2
f 195/1/2 190/1/2 196/1/2
f 190/1/2 188/1/2 197/1/2
f 196/1/2 190/1/2 197/1/2
f 188/2/2 149/2/2 197/2/2
f 197/2/2 149/2/2 198/2/2
f 142/2/2 191/2/2 199/2/2
f 191/2/2 192/2/2 199/2/2
f 199/2/2 192/2/2 200/2/2
f 192/1/2 193/1/2 201/1/2
f 200/2/2 192/2/2 201/2/2
f 193/2/2 194/2/2 202/2/2
f 201/1/2 193/1/2 202/1/2
f 195/1/2 196/1/2 203/1/2
f 202/2/2 194/2/2 203/2/2
f 194/1/2 195/1/2 203/1/2
f 196/2/2 197/2/2 204/2/2
f 203/1/2 196/1/2 204/1/2
f 201/2/2 202/2/2 205/2/2
f 204/2/2 197/2/2 205/2/2
f 203/2/2 204/2/2 205/2/2
f 202/2/2 203/2/2 205/2/2
f 200/2/2 201/2/2 205/2/2
f 205/2/2 197/2/2 206/2/2
f 200/2/2 205/2/2 207/2/2
f 207/2/2 205/2/2 208/2/2
f 208/2/2 205/2/2 209/2/2
f 209/2/2 205/2/2 210/2/2
f 208/2/2 209/2/2 211/2/2
f 211/2/2 209/2/2 212/2/2
f 212/2/2 209/2/2 213/2/2
f 213/2/2 209/2/2 214/2/2
f 212/2/2 213/2/2 215/2/2
f 215/2/2 213/2/2 216/2/2
f 216/2/2 213/2/2 217/2/2
f 217/2/2 213/2/2 218/2/2
f 216/2/2 217/2/2 219/2/2
f 219/2/2 217/2/2 220/2/2
f 220/2/2 217/2/2 221/2/2
f 221/2/2 217/2/2 222/2/2
f 220/2/2 221/2/2 223/2/2
f 223/2/2 221/2/2 224/2/2
f 225/3/2 226/3/2 227/3/2
f 227/3/2 226/3/2 228/3/2
f 231/2/3 230/2/3 229/2/3
f 232/2/3 230/2/3 231/2/3
f 235/2/3 234/2/3 233/2/3
f 236/2/3 234/2/3 235/2/3
f 237/2/3 235/2/3 233/2/3
f 238/2/3 234/2/3 236/2/3
f 239/2/3 237/2/3 233/2/3
f 239/2/3 238/2/3 237/2/3
f 240/2/3 238/2/3 239/2/3
f 241/2/3 238/2/3 240/2/3
f 242/2/3 234/2/3 238/2/3
f 242/2/3 238/2/3 241/2/3
f 247/2/3 244/2/3 243/2/3
f 248/2/3 244/2/3 247/2/3
f 250/2/3 249/2/3 248/2/3
f 251/2/3 249/2/3 250/2/3
f 252/2/3 246/2/3 245/2/3
f 253/2/3 246/2/3 252/2/3
f 258/2/3 257/2/3 256/2/3
f 259/2/3 257/2/3 258/2/3
f 260/2/3 255/2/3 254/2/3
f 261/2/3 255/2/3 260/2/3
f 266/2/3 263/2/3 262/2/3
f 267/2/3 263/2/3 266/2/3
f 268/2/3 265/2/3 264/2/3
f 269/2/3 265/2/3 268/2/3
f 274/2/3 271/2/3 270/2/3
f 275/2/3 271/2/3 274/2/3
f 277/2/3 276/2/3 275/2/3
f 278/2/3 276/2/3 277/2/3
f 279/2/3 273/2/3 272/2/3
f 280/2/3 273/2/3 279/2/3
f 283/2/3 282/2/3 281/2/3
f 284/2/3 282/2/3 283/2/3
f 287/2/3 286/2/3 285/2/3
f 288/2/3 286/2/3 287/2/3
f 293/2/3 292/2/3 291/2/3
f 294/2/3 292/2/3 293/2/3
f 295/2/3 292/2/3 294/2/3
f 298/2/3 297/2/3 296/2/3
f 299/2/3 297/2/3 298/2/3
f 300/2/3 290/2/3 289/2/3
f 301/2/3 290/2/3 300/2/3
f 304/2/3 303/2/3 302/2/3
f 305/2/3 303/2/3 304/2/3
f 308/3/3 307/3/3 306/3/3
f 309/3/3 307/3/3 308/3/3
f 310/3/4 311/3/4 312/3/4
f 312/3/4 311/3/4 313/3/4
f 316/2/4 317/2/4 318/2/4
f 318/2/4 317/2/4 319/2/4
f 320/2/4 321/2/4 322/2/4
f 322/2/4 321/2/4 323/2/4
f 314/2/4 315/2/4 324/2/4
f 324/2/4 315/2/4 325/2/4
f 326/2/4 327/2/4 328/2/4
f 328/2/4 327/2/4 329/2/4
f 330/2/4 331/2/4 332/2/4
f 332/2/4 331/2/4 333/2/4
f 334/2/4 335/2/4 338/2/4
f 338/2/4 335/2/4 339/2/4
f 336/2/4 337/2/4 340/2/4
f 340/2/4 337/2/4 341/2/4
f 344/2/4 345/2/4 346/2/4
f 346/2/4 345/2/4 347/2/4
f 342/2/4 343/2/4 348/2/4
f 348/2/4 343/2/4 349/2/4
f 350/2/4 351/2/4 354/2/4
f 354/2/4 351/2/4 355/2/4
f 355/2/4 356/2/4 357/2/4
f 357/2/4 356/2/4 358/2/4
f 352/2/4 353/2/4 359/2/4
f 359/2/4 353/2/4 360/2/4
f 361/2/4 362/2/4 365/2/4
f 365/2/4 362/2/4 366/2/4
f 366/2/4 367/2/4 368/2/4
f 368/2/4 367/2/4 369/2/4
f 363/2/4 364/2/4 370/2/4
f 370/2/4 364/2/4 371/2/4
f 372/2/4 373/2/4 376/2/4
f 376/2/4 373/2/4 377/2/4
f 377/2/4 378/2/4 379/2/4
f 379/2/4 378/2/4 380/2/4
f 374/2/4 375/2/4 381/2/4
f 381/2/4 375/2/4 382/2/4
f 383/2/4 384/2/4 385/2/4
f 385/2/4 384/2/4 386/2/4
f 383/2/4 385/2/4 387/2/4
f 386/2/4 384/2/4 388/2/4
f 383/2/4 387/2/4 389/2/4
f 387/2/4 388/2/4 389/2/4
f 389/2/4 388/2/4 390/2/4
f 390/2/4 388/2/4 391/2/4
f 388/2/4 384/2/4 392/2/4
f 391/2/4 388/2/4 392/2/4
f 393/2/4 394/2/4 395/2/4
f 395/2/4 394/2/4 396/2/4
f 399/2/5 398/2/5 397/2/5
f 400/2/5 398/2/5 399/2/5
f 403/2/5 402/2/5 401/2/5
f 404/2/5 402/2/5 403/2/5
f 408/2/5 407/2/5 406/2/5
f 409/2/5 404/2/5 403/2/5
f 409/2/5 405/2/5 404/2/5
f 410/2/5 405/2/5 409/2/5
f 411/2/5 405/2/5 410/2/5
f 412/2/5 408/2/5 406/2/5
f 412/2/5 409/2/5 408/2/5
f 412/2/5 410/2/5 409/2/5
f 413/2/5 410/2/5 412/2/5
f 416/2/5 415/2/5 414/2/5
f 418/2/5 416/2/5 414/2/5
f 418/2/5 417/2/5 416/2/5
f 419/2/5 417/2/5 418/2/5
f 420/2/5 418/2/5 414/2/5
f 421/2/5 418/2/5 420/2/5
f 422/2/5 417/2/5 419/2/5
f 423/2/5 417/2/5 422/2/5
f 424/2/5 420/2/5 414/2/5
f 425/2/5 420/2/5 424/2/5
f 428/2/5 424/2/5 414/2/5
f 429/2/5 427/2/5 426/2/5
f 430/2/5 427/2/5 429/2/5
f 430/2/5 429/2/5 428/2/5
f 431/2/5 427/2/5 430/2/5
f 432/2/5 428/2/5 414/2/5
f 432/2/5 430/2/5 428/2/5
f 433/2/5 430/2/5 432/2/5
f 436/2/5 435/2/5 434/2/5
f 437/2/5 435/2/5 436/2/5
f 439/2/5 438/2/5 437/2/5
f 440/2/5 438/2/5 439/2/5
f 444/2/5 442/2/5 441/2/5
f 445/2/5 442/2/5 444/2/5
f 445/2/5 444/2/5 443/2/5
f 446/2/5 442/2/5 445/2/5
f 447/2/5 445/2/5 443/2/5
f 448/2/5 445/2/5 447/2/5
f 451/2/5 450/2/5 449/2/5
f 453/2/5 451/2/5 449/2/5
f 453/2/5 452/2/5 451/2/5
f 454/2/5 452/2/5 453/2/5
f 455/2/5 452/2/5 454/2/5
f 456/2/5 452/2/5 455/2/5
f 460/2/5 458/2/5 457/2/5
f 461/2/5 458/2/5 460/2/5
f 462/2/5 460/2/5 459/2/5
f 463/2/5 460/2/5 462/2/5
f 466/2/5 465/2/5 464/2/5
f 467/2/5 465/2/5 466/2/5
f 469/2/5 468/2/5 467/2/5
f 470/2/5 468/2/5 469/2/5
f 474/2/5 472/2/5 471/2/5
f 475/2/5 472/2/5 474/2/5
f 476/2/5 474/2/5 473/2/5
f 477/2/5 474/2/5 476/2/5
f 480/2/5 479/2/5 478/2/5
f 481/2/5 479/2/5 480/2/5
f 485/2/5 483/2/5 482/2/5
f 486/2/5 483/2/5 485/2/5
f 487/2/5 485/2/5 484/2/5
f 488/2/5 485/2/5 487/2/5
f 491/3/5 490/3/5 489/3/5
f 492/3/5 490/3/5 491/3/5
f 495/2/5 494/2/5 493/2/5
f 496/2/5 494/2/5 495/2/5
f 499/2/5 498/2/5 497/2/5
f 500/2/5 498/2/5 499/2/5
f 503/2/5 502/2/5 501/2/5
f 504/2/5 502/2/5 503/2/5
f 505/3/6 506/3/6 507/3/6
f 507/3/6 506/3/6 508/3/6
f 509/2/6 510/2/6 511/2/6
f 511/2/6 510/2/6 512/2/6
f 513/2/6 514/2/6 515/2/6
f 515/2/6 514/2/6 516/2/6
f 517/2/6 518/2/6 519/2/6
f 519/2/6 518/2/6 520/2/6
f 521/2/6 522/2/6 523/2/6
f 523/2/6 522/2/6 524/2/6
f 525/2/6 526/2/6 527/2/6
f 527/2/6 526/2/6 528/2/6
f 529/2/6 530/2/6 531/2/6
f 531/2/6 530/2/6 532/2/6
f 533/2/6 534/2/6 535/2/6
f 535/2/6 534/2/6 536/2/6
f 537/2/6 538/2/6 539/2/6
f 539/2/6 538/2/6 540/2/6
f 541/2/6 542/2/6 543/2/6
f 543/2/6 542/2/6 544/2/6
f 545/2/6 546/2/6 547/2/6
f 547/2/6 546/2/6 548/2/6
f 549/2/6 550/2/6 551/2/6
f 551/2/6 550/2/6 552/2/6
f 553/2/6 554/2/6 555/2/6
f 555/2/6 554/2/6 556/2/6
f 557/2/6 558/2/6 559/2/6
f 559/2/6 558/2/6 560/2/6
f 561/2/6 562/2/6 563/2/6
f 563/2/6 562/2/6 564/2/6
